<mxfile host="Electron" modified="2024-02-18T07:47:47.375Z" agent="Mozilla/5.0 (X11; Linux x86_64) AppleWebKit/537.36 (KHTML, like Gecko) draw.io/23.1.5 Chrome/120.0.6099.109 Electron/28.1.0 Safari/537.36" etag="HbMsNhn5ptISh1pGETil" version="23.1.5" type="device">
  <diagram id="YjXWd2C3QgXy0v-CMcwV" name="Page-1">
    <mxGraphModel dx="3458" dy="3198" grid="1" gridSize="10" guides="1" tooltips="1" connect="1" arrows="1" fold="1" page="1" pageScale="1" pageWidth="850" pageHeight="1100" math="0" shadow="0">
      <root>
        <mxCell id="0" />
        <mxCell id="1" parent="0" />
        <mxCell id="4QqiqVwi1cBf87IRrPp7-5" style="edgeStyle=orthogonalEdgeStyle;curved=1;orthogonalLoop=1;jettySize=auto;html=1;exitX=0.5;exitY=0;exitDx=0;exitDy=0;entryX=0.425;entryY=1;entryDx=0;entryDy=0;entryPerimeter=0;" parent="1" source="4QqiqVwi1cBf87IRrPp7-1" target="4QqiqVwi1cBf87IRrPp7-4" edge="1">
          <mxGeometry relative="1" as="geometry" />
        </mxCell>
        <mxCell id="4QqiqVwi1cBf87IRrPp7-17" style="edgeStyle=orthogonalEdgeStyle;curved=1;orthogonalLoop=1;jettySize=auto;html=1;exitX=0;exitY=0.5;exitDx=0;exitDy=0;entryX=1;entryY=0.5;entryDx=0;entryDy=0;" parent="1" source="4QqiqVwi1cBf87IRrPp7-1" target="FjZOOBbh_rfoeGEimOdd-1" edge="1">
          <mxGeometry relative="1" as="geometry" />
        </mxCell>
        <mxCell id="m9XsXD8E_b_i3M8wHN8T-11" style="edgeStyle=orthogonalEdgeStyle;curved=1;orthogonalLoop=1;jettySize=auto;html=1;exitX=0.5;exitY=1;exitDx=0;exitDy=0;entryX=0.5;entryY=0;entryDx=0;entryDy=0;" parent="1" source="4QqiqVwi1cBf87IRrPp7-1" target="m9XsXD8E_b_i3M8wHN8T-10" edge="1">
          <mxGeometry relative="1" as="geometry" />
        </mxCell>
        <mxCell id="m9XsXD8E_b_i3M8wHN8T-16" style="edgeStyle=orthogonalEdgeStyle;curved=1;orthogonalLoop=1;jettySize=auto;html=1;exitX=1;exitY=1;exitDx=0;exitDy=0;" parent="1" source="4QqiqVwi1cBf87IRrPp7-1" target="m9XsXD8E_b_i3M8wHN8T-14" edge="1">
          <mxGeometry relative="1" as="geometry" />
        </mxCell>
        <mxCell id="m9XsXD8E_b_i3M8wHN8T-22" style="edgeStyle=orthogonalEdgeStyle;curved=1;orthogonalLoop=1;jettySize=auto;html=1;exitX=1;exitY=0.5;exitDx=0;exitDy=0;entryX=0;entryY=0.5;entryDx=0;entryDy=0;" parent="1" source="4QqiqVwi1cBf87IRrPp7-1" target="m9XsXD8E_b_i3M8wHN8T-21" edge="1">
          <mxGeometry relative="1" as="geometry" />
        </mxCell>
        <mxCell id="4QqiqVwi1cBf87IRrPp7-1" value="slice&lt;br&gt;源码位置在runtime slice.go" style="ellipse;whiteSpace=wrap;html=1;" parent="1" vertex="1">
          <mxGeometry x="440" y="530" width="120" height="80" as="geometry" />
        </mxCell>
        <mxCell id="4QqiqVwi1cBf87IRrPp7-2" value="&lt;pre style=&quot;margin: 10px 8px ; padding: 1em ; outline: 0px ; max-width: 100% ; color: rgb(88 , 110 , 117) ; background: rgb(253 , 246 , 227) ; font-size: 14px ; text-align: left ; line-height: 1.5 ; font-family: , &amp;quot;blinkmacsystemfont&amp;quot; , &amp;quot;helvetica neue&amp;quot; , &amp;quot;pingfang sc&amp;quot; , &amp;quot;hiragino sans gb&amp;quot; , &amp;quot;microsoft yahei ui&amp;quot; , &amp;quot;microsoft yahei&amp;quot; , &amp;quot;arial&amp;quot; , sans-serif ; overflow-x: auto ; border-radius: 8px ; box-sizing: border-box ; overflow-wrap: break-word&quot;&gt;&lt;code style=&quot;margin: 0px ; padding: 0px ; outline: 0px ; max-width: 100% ; box-sizing: border-box ; word-wrap: break-word ; line-height: 1.75 ; font-family: &amp;quot;menlo&amp;quot; , &amp;quot;operator mono&amp;quot; , &amp;quot;consolas&amp;quot; , &amp;quot;monaco&amp;quot; , monospace&quot;&gt;&lt;span style=&quot;margin: 0px ; padding: 0px ; outline: 0px ; max-width: 100% ; box-sizing: border-box ; word-wrap: break-word&quot;&gt;reflect/value.go 反射时用到的辅助结构体&lt;br&gt;&lt;div style=&quot;background-color:#1e1f22;color:#bcbec4&quot;&gt;&lt;pre style=&quot;font-family:&#39;JetBrains Mono&#39;,monospace;font-size:9.8pt;&quot;&gt;type SliceHeader &lt;span style=&quot;color:#cf8e6d;&quot;&gt;struct &lt;/span&gt;{&lt;br&gt;    Data &lt;span style=&quot;color:#cc7832;&quot;&gt;uintptr&lt;br&gt;&lt;/span&gt;&lt;span style=&quot;color:#cc7832;&quot;&gt;    &lt;/span&gt;Len  &lt;span style=&quot;color:#cc7832;&quot;&gt;int&lt;br&gt;&lt;/span&gt;&lt;span style=&quot;color:#cc7832;&quot;&gt;    &lt;/span&gt;Cap  &lt;span style=&quot;color:#cc7832;&quot;&gt;int&lt;br&gt;&lt;/span&gt;}&lt;/pre&gt;&lt;/div&gt;&lt;/span&gt;&lt;/code&gt;&lt;/pre&gt;&lt;pre style=&quot;margin: 10px 8px ; padding: 1em ; outline: 0px ; max-width: 100% ; color: rgb(88 , 110 , 117) ; background: rgb(253 , 246 , 227) ; font-size: 14px ; text-align: left ; line-height: 1.5 ; font-family: , &amp;quot;blinkmacsystemfont&amp;quot; , &amp;quot;helvetica neue&amp;quot; , &amp;quot;pingfang sc&amp;quot; , &amp;quot;hiragino sans gb&amp;quot; , &amp;quot;microsoft yahei ui&amp;quot; , &amp;quot;microsoft yahei&amp;quot; , &amp;quot;arial&amp;quot; , sans-serif ; overflow-x: auto ; border-radius: 8px ; box-sizing: border-box ; overflow-wrap: break-word&quot;&gt;&lt;code style=&quot;margin: 0px ; padding: 0px ; outline: 0px ; max-width: 100% ; box-sizing: border-box ; word-wrap: break-word ; line-height: 1.75 ; font-family: &amp;quot;menlo&amp;quot; , &amp;quot;operator mono&amp;quot; , &amp;quot;consolas&amp;quot; , &amp;quot;monaco&amp;quot; , monospace&quot;&gt;&lt;span style=&quot;margin: 0px ; padding: 0px ; outline: 0px ; max-width: 100% ; box-sizing: border-box ; word-wrap: break-word&quot;&gt;runtime/slice.go Go语言中切片的底层实现&lt;br&gt;type&amp;nbsp;slice&amp;nbsp;&lt;/span&gt;&lt;span style=&quot;margin: 0px ; padding: 0px ; outline: 0px ; max-width: 100% ; box-sizing: border-box ; word-wrap: break-word&quot;&gt;struct&lt;/span&gt;&lt;span style=&quot;margin: 0px ; padding: 0px ; outline: 0px ; max-width: 100% ; box-sizing: border-box ; word-wrap: break-word&quot;&gt;&amp;nbsp;&lt;/span&gt;&lt;span style=&quot;margin: 0px ; padding: 0px ; outline: 0px ; max-width: 100% ; box-sizing: border-box ; word-wrap: break-word&quot;&gt;{&lt;/span&gt;&lt;br style=&quot;margin: 0px ; padding: 0px ; outline: 0px ; max-width: 100% ; box-sizing: border-box ; word-wrap: break-word&quot;&gt;&lt;span style=&quot;margin: 0px ; padding: 0px ; outline: 0px ; max-width: 100% ; box-sizing: border-box ; word-wrap: break-word&quot;&gt;&amp;nbsp;&amp;nbsp;&amp;nbsp;&amp;nbsp;&lt;/span&gt;//&amp;nbsp;元素存在哪（&lt;/code&gt;指向起点的地址 ）&lt;code style=&quot;margin: 0px ; padding: 0px ; outline: 0px ; max-width: 100% ; box-sizing: border-box ; word-wrap: break-word ; line-height: 1.75 ; font-family: &amp;quot;menlo&amp;quot; , &amp;quot;operator mono&amp;quot; , &amp;quot;consolas&amp;quot; , &amp;quot;monaco&amp;quot; , monospace&quot;&gt;&lt;span style=&quot;margin: 0px ; padding: 0px ; outline: 0px ; max-width: 100% ; box-sizing: border-box ; word-wrap: break-word&quot;&gt;&amp;nbsp;&amp;nbsp;&amp;nbsp;&amp;nbsp;array&amp;nbsp;&lt;/span&gt;&lt;span style=&quot;margin: 0px ; padding: 0px ; outline: 0px ; max-width: 100% ; box-sizing: border-box ; word-wrap: break-word&quot;&gt;unsafe&lt;/span&gt;&lt;span style=&quot;margin: 0px ; padding: 0px ; outline: 0px ; max-width: 100% ; box-sizing: border-box ; word-wrap: break-word&quot;&gt;.&lt;/span&gt;&lt;span style=&quot;margin: 0px ; padding: 0px ; outline: 0px ; max-width: 100% ; box-sizing: border-box ; word-wrap: break-word&quot;&gt;Pointer&lt;/span&gt;&lt;br style=&quot;margin: 0px ; padding: 0px ; outline: 0px ; max-width: 100% ; box-sizing: border-box ; word-wrap: break-word&quot;&gt;&lt;span style=&quot;margin: 0px ; padding: 0px ; outline: 0px ; max-width: 100% ; box-sizing: border-box ; word-wrap: break-word&quot;&gt;&amp;nbsp;&amp;nbsp;&amp;nbsp;&amp;nbsp;&lt;/span&gt;&lt;span style=&quot;margin: 0px ; padding: 0px ; outline: 0px ; max-width: 100% ; box-sizing: border-box ; word-wrap: break-word&quot;&gt;//&amp;nbsp;存了多少元素（切片长度）&lt;/span&gt;&lt;br style=&quot;margin: 0px ; padding: 0px ; outline: 0px ; max-width: 100% ; box-sizing: border-box ; word-wrap: break-word&quot;&gt;&lt;span style=&quot;margin: 0px ; padding: 0px ; outline: 0px ; max-width: 100% ; box-sizing: border-box ; word-wrap: break-word&quot;&gt;&amp;nbsp;&amp;nbsp;&amp;nbsp;&amp;nbsp;len&amp;nbsp;&amp;nbsp;&amp;nbsp;&lt;/span&gt;&lt;span style=&quot;margin: 0px ; padding: 0px ; outline: 0px ; max-width: 100% ; box-sizing: border-box ; word-wrap: break-word&quot;&gt;int&lt;/span&gt;&lt;br style=&quot;margin: 0px ; padding: 0px ; outline: 0px ; max-width: 100% ; box-sizing: border-box ; word-wrap: break-word&quot;&gt;&lt;span style=&quot;margin: 0px ; padding: 0px ; outline: 0px ; max-width: 100% ; box-sizing: border-box ; word-wrap: break-word&quot;&gt;&amp;nbsp;&amp;nbsp;&amp;nbsp;&amp;nbsp;&lt;/span&gt;&lt;span style=&quot;margin: 0px ; padding: 0px ; outline: 0px ; max-width: 100% ; box-sizing: border-box ; word-wrap: break-word&quot;&gt;//&amp;nbsp;能存多少元素（切片容量）&lt;/span&gt;&lt;br style=&quot;margin: 0px ; padding: 0px ; outline: 0px ; max-width: 100% ; box-sizing: border-box ; word-wrap: break-word&quot;&gt;&lt;span style=&quot;margin: 0px ; padding: 0px ; outline: 0px ; max-width: 100% ; box-sizing: border-box ; word-wrap: break-word&quot;&gt;&amp;nbsp;&amp;nbsp;&amp;nbsp;&amp;nbsp;cap&amp;nbsp;&amp;nbsp;&amp;nbsp;&lt;/span&gt;&lt;span style=&quot;margin: 0px ; padding: 0px ; outline: 0px ; max-width: 100% ; box-sizing: border-box ; word-wrap: break-word&quot;&gt;int&lt;/span&gt;&lt;br style=&quot;margin: 0px ; padding: 0px ; outline: 0px ; max-width: 100% ; box-sizing: border-box ; word-wrap: break-word&quot;&gt;&lt;span style=&quot;margin: 0px ; padding: 0px ; outline: 0px ; max-width: 100% ; box-sizing: border-box ; word-wrap: break-word&quot;&gt;}&lt;/span&gt;&lt;/code&gt;&lt;/pre&gt;" style="ellipse;whiteSpace=wrap;html=1;" parent="1" vertex="1">
          <mxGeometry x="-1040" y="-50" width="805" height="570" as="geometry" />
        </mxCell>
        <mxCell id="4QqiqVwi1cBf87IRrPp7-8" style="edgeStyle=orthogonalEdgeStyle;curved=1;orthogonalLoop=1;jettySize=auto;html=1;exitX=1;exitY=0;exitDx=0;exitDy=0;entryX=0.5;entryY=1;entryDx=0;entryDy=0;" parent="1" source="4QqiqVwi1cBf87IRrPp7-4" target="4QqiqVwi1cBf87IRrPp7-7" edge="1">
          <mxGeometry relative="1" as="geometry" />
        </mxCell>
        <mxCell id="4QqiqVwi1cBf87IRrPp7-4" value="初始化" style="ellipse;whiteSpace=wrap;html=1;" parent="1" vertex="1">
          <mxGeometry x="620" y="340" width="120" height="80" as="geometry" />
        </mxCell>
        <mxCell id="4QqiqVwi1cBf87IRrPp7-11" style="edgeStyle=orthogonalEdgeStyle;curved=1;orthogonalLoop=1;jettySize=auto;html=1;exitX=0.25;exitY=0;exitDx=0;exitDy=0;entryX=0.523;entryY=1;entryDx=0;entryDy=0;entryPerimeter=0;" parent="1" source="4QqiqVwi1cBf87IRrPp7-7" target="4QqiqVwi1cBf87IRrPp7-10" edge="1">
          <mxGeometry relative="1" as="geometry" />
        </mxCell>
        <mxCell id="4QqiqVwi1cBf87IRrPp7-7" value="&lt;pre style=&quot;margin: 10px 8px ; padding: 1em ; outline: 0px ; max-width: 100% ; background: rgb(253 , 246 , 227) ; font-size: 14px ; text-align: left ; line-height: 1.5 ; overflow-x: auto ; border-radius: 8px ; box-sizing: border-box ; overflow-wrap: break-word&quot;&gt;&lt;div style=&quot;color: rgb(8 , 8 , 8) ; background-color: rgb(255 , 255 , 255) ; font-family: &amp;#34;courier 10 pitch&amp;#34; , monospace ; font-size: 17.3pt&quot;&gt;&lt;span style=&quot;color: #0033b3&quot;&gt;func &lt;/span&gt;&lt;span style=&quot;color: #286d73&quot;&gt;makeslice&lt;/span&gt;(&lt;span style=&quot;color: #000000&quot;&gt;et &lt;/span&gt;*&lt;span style=&quot;color: #336ecc&quot;&gt;_type&lt;/span&gt;, &lt;span style=&quot;color: #000000&quot;&gt;len&lt;/span&gt;, &lt;span style=&quot;color: #000000&quot;&gt;cap &lt;/span&gt;&lt;span style=&quot;color: #0033b3&quot;&gt;int&lt;/span&gt;) &lt;span style=&quot;color: #805900&quot;&gt;unsafe&lt;/span&gt;.&lt;span style=&quot;color: #336ecc&quot;&gt;Pointer &lt;/span&gt;{&lt;/div&gt;&lt;div style=&quot;color: rgb(8 , 8 , 8) ; background-color: rgb(255 , 255 , 255) ; font-family: &amp;#34;courier 10 pitch&amp;#34; , monospace ; font-size: 17.3pt&quot;&gt;    // &lt;span style=&quot;font-size: 23.0667px ; color: rgb(0 , 0 , 0)&quot;&gt;et&lt;/span&gt;&lt;span style=&quot;font-size: 23.0667px&quot;&gt;.&lt;/span&gt;&lt;span style=&quot;font-size: 23.0667px ; color: rgb(0 , 0 , 0)&quot;&gt;size 指的是切片一个元素的大小 类型是 &lt;/span&gt;&lt;span style=&quot;color: rgb(0 , 51 , 179) ; font-family: &amp;#34;courier 10 pitch&amp;#34; , monospace ; font-size: 17.3pt&quot;&gt;uintptr（根据机器字长自适应的无符号整型，足够容纳指针&lt;/span&gt;&lt;span style=&quot;color: rgb(0 , 51 , 179) ; font-size: 17.3pt ; white-space: normal&quot;&gt;）&lt;/span&gt;&lt;/div&gt;&lt;div style=&quot;color: rgb(8 , 8 , 8) ; background-color: rgb(255 , 255 , 255) ; font-family: &amp;#34;courier 10 pitch&amp;#34; , monospace ; font-size: 17.3pt&quot;&gt;&lt;span style=&quot;color: rgb(0 , 51 , 179) ; font-size: 17.3pt ; white-space: normal&quot;&gt;&amp;nbsp; &amp;nbsp; // 这里只是用 uintptr 装了一个整型数字用于计算，&lt;/span&gt;&lt;/div&gt;&lt;div style=&quot;color: rgb(8 , 8 , 8) ; background-color: rgb(255 , 255 , 255) ; font-family: &amp;#34;courier 10 pitch&amp;#34; , monospace ; font-size: 17.3pt&quot;&gt;    &lt;span style=&quot;color: #000000&quot;&gt;mem&lt;/span&gt;, &lt;span style=&quot;color: #000000&quot;&gt;overflow &lt;/span&gt;:= &lt;span style=&quot;color: #805900&quot;&gt;math&lt;/span&gt;.&lt;span style=&quot;color: #36666b&quot;&gt;MulUintptr&lt;/span&gt;(&lt;span style=&quot;color: #000000&quot;&gt;et&lt;/span&gt;.&lt;span style=&quot;color: #000000&quot;&gt;size&lt;/span&gt;, &lt;span style=&quot;color: #0033b3&quot;&gt;uintptr&lt;/span&gt;(&lt;span style=&quot;color: #000000&quot;&gt;cap&lt;/span&gt;))&lt;br&gt;    &lt;span style=&quot;color: #0033b3&quot;&gt;if &lt;/span&gt;&lt;span style=&quot;color: #000000&quot;&gt;overflow &lt;/span&gt;|| &lt;span style=&quot;color: #000000&quot;&gt;mem &lt;/span&gt;&amp;gt; &lt;span style=&quot;color: #871094&quot;&gt;maxAlloc &lt;/span&gt;|| &lt;span style=&quot;color: #000000&quot;&gt;len &lt;/span&gt;&amp;lt; &lt;span style=&quot;color: #1750eb&quot;&gt;0 &lt;/span&gt;|| &lt;span style=&quot;color: #000000&quot;&gt;len &lt;/span&gt;&amp;gt; &lt;span style=&quot;color: #000000&quot;&gt;cap &lt;/span&gt;{&lt;br&gt;       &lt;span style=&quot;color: #8c8c8c ; font-style: italic&quot;&gt;// NOTE: Produce a &#39;len out of range&#39; error instead of a&lt;br&gt;&lt;/span&gt;&lt;span style=&quot;color: #8c8c8c ; font-style: italic&quot;&gt;       // &#39;cap out of range&#39; error when someone does make([]T, bignumber).&lt;br&gt;&lt;/span&gt;&lt;span style=&quot;color: #8c8c8c ; font-style: italic&quot;&gt;       // &#39;cap out of range&#39; is true too, but since the cap is only being&lt;br&gt;&lt;/span&gt;&lt;span style=&quot;color: #8c8c8c ; font-style: italic&quot;&gt;       // supplied implicitly, saying len is clearer.&lt;br&gt;&lt;/span&gt;&lt;span style=&quot;color: #8c8c8c ; font-style: italic&quot;&gt;       // See golang.org/issue/4085.&lt;br&gt;&lt;/span&gt;&lt;span style=&quot;color: #8c8c8c ; font-style: italic&quot;&gt;       &lt;/span&gt;&lt;span style=&quot;color: #708c00&quot;&gt;mem&lt;/span&gt;, &lt;span style=&quot;color: #708c00&quot;&gt;overflow &lt;/span&gt;:= &lt;span style=&quot;color: #805900&quot;&gt;math&lt;/span&gt;.&lt;span style=&quot;color: #36666b&quot;&gt;MulUintptr&lt;/span&gt;(&lt;span style=&quot;color: #000000&quot;&gt;et&lt;/span&gt;.&lt;span style=&quot;color: #000000&quot;&gt;size&lt;/span&gt;, &lt;span style=&quot;color: #0033b3&quot;&gt;uintptr&lt;/span&gt;(&lt;span style=&quot;color: #000000&quot;&gt;len&lt;/span&gt;))&lt;br&gt;       &lt;span style=&quot;color: #0033b3&quot;&gt;if &lt;/span&gt;&lt;span style=&quot;color: #708c00&quot;&gt;overflow &lt;/span&gt;|| &lt;span style=&quot;color: #708c00&quot;&gt;mem &lt;/span&gt;&amp;gt; &lt;span style=&quot;color: #871094&quot;&gt;maxAlloc &lt;/span&gt;|| &lt;span style=&quot;color: #000000&quot;&gt;len &lt;/span&gt;&amp;lt; &lt;span style=&quot;color: #1750eb&quot;&gt;0 &lt;/span&gt;{&lt;br&gt;          &lt;span style=&quot;color: #36666b&quot;&gt;panicmakeslicelen&lt;/span&gt;()&lt;br&gt;       }&lt;br&gt;       &lt;span style=&quot;color: #36666b&quot;&gt;panicmakeslicecap&lt;/span&gt;()&lt;br&gt;    }&lt;br&gt;&lt;br&gt;    &lt;span style=&quot;color: #0033b3&quot;&gt;return &lt;/span&gt;&lt;span style=&quot;color: #36666b&quot;&gt;mallocgc&lt;/span&gt;(&lt;span style=&quot;color: #000000&quot;&gt;mem&lt;/span&gt;, &lt;span style=&quot;color: #000000&quot;&gt;et&lt;/span&gt;, &lt;span style=&quot;color: #0033b3&quot;&gt;true&lt;/span&gt;)&lt;br&gt;}&lt;/div&gt;&lt;/pre&gt;" style="rounded=0;whiteSpace=wrap;html=1;" parent="1" vertex="1">
          <mxGeometry x="420" y="-620" width="1300" height="670" as="geometry" />
        </mxCell>
        <mxCell id="4QqiqVwi1cBf87IRrPp7-14" style="edgeStyle=orthogonalEdgeStyle;curved=1;orthogonalLoop=1;jettySize=auto;html=1;exitX=0.5;exitY=0;exitDx=0;exitDy=0;entryX=0.5;entryY=1;entryDx=0;entryDy=0;" parent="1" source="4QqiqVwi1cBf87IRrPp7-10" target="4QqiqVwi1cBf87IRrPp7-13" edge="1">
          <mxGeometry relative="1" as="geometry" />
        </mxCell>
        <mxCell id="4QqiqVwi1cBf87IRrPp7-10" value="&lt;div style=&quot;background-color: rgb(255 , 255 , 255) ; color: rgb(8 , 8 , 8) ; font-family: &amp;#34;courier 10 pitch&amp;#34; , monospace ; font-size: 17.3pt&quot;&gt;&lt;span style=&quot;color: #0033b3&quot;&gt;type &lt;/span&gt;&lt;span style=&quot;color: #000000&quot;&gt;_type &lt;/span&gt;&lt;span style=&quot;color: #0033b3&quot;&gt;struct &lt;/span&gt;{&lt;br&gt;    &lt;span style=&quot;color: #000000&quot;&gt;size       &lt;/span&gt;&lt;span style=&quot;color: #0033b3&quot;&gt;uintptr&lt;br&gt;&lt;/span&gt;&lt;span style=&quot;color: #0033b3&quot;&gt;    &lt;/span&gt;&lt;span style=&quot;color: #000000&quot;&gt;ptrdata    &lt;/span&gt;&lt;span style=&quot;color: #0033b3&quot;&gt;uintptr &lt;/span&gt;&lt;span style=&quot;color: #8c8c8c ; font-style: italic&quot;&gt;// &lt;/span&gt;&lt;span style=&quot;color: #525252 ; font-style: italic&quot;&gt;size&lt;/span&gt;&lt;span style=&quot;color: #8c8c8c ; font-style: italic&quot;&gt; of memory prefix holding all pointers&lt;br&gt;&lt;/span&gt;&lt;span style=&quot;color: #8c8c8c ; font-style: italic&quot;&gt;    &lt;/span&gt;&lt;span style=&quot;color: #000000&quot;&gt;hash       &lt;/span&gt;&lt;span style=&quot;color: #0033b3&quot;&gt;uint32&lt;br&gt;&lt;/span&gt;&lt;span style=&quot;color: #0033b3&quot;&gt;    &lt;/span&gt;&lt;span style=&quot;color: #000000&quot;&gt;tflag      &lt;/span&gt;&lt;span style=&quot;color: #336ecc&quot;&gt;tflag&lt;br&gt;&lt;/span&gt;&lt;span style=&quot;color: #336ecc&quot;&gt;    &lt;/span&gt;&lt;span style=&quot;color: #000000&quot;&gt;align      &lt;/span&gt;&lt;span style=&quot;color: #0033b3&quot;&gt;uint8&lt;br&gt;&lt;/span&gt;&lt;span style=&quot;color: #0033b3&quot;&gt;    &lt;/span&gt;&lt;span style=&quot;color: #000000&quot;&gt;fieldAlign &lt;/span&gt;&lt;span style=&quot;color: #0033b3&quot;&gt;uint8&lt;br&gt;&lt;/span&gt;&lt;span style=&quot;color: #0033b3&quot;&gt;    &lt;/span&gt;&lt;span style=&quot;color: #000000&quot;&gt;kind       &lt;/span&gt;&lt;span style=&quot;color: #0033b3&quot;&gt;uint8&lt;br&gt;&lt;/span&gt;&lt;span style=&quot;color: #0033b3&quot;&gt;    &lt;/span&gt;&lt;span style=&quot;color: #8c8c8c ; font-style: italic&quot;&gt;// function for comparing objects of this type&lt;br&gt;&lt;/span&gt;&lt;span style=&quot;color: #8c8c8c ; font-style: italic&quot;&gt;    // (ptr to object A, ptr to object B) -&amp;gt; ==?&lt;br&gt;&lt;/span&gt;&lt;span style=&quot;color: #8c8c8c ; font-style: italic&quot;&gt;    &lt;/span&gt;&lt;span style=&quot;color: #000000&quot;&gt;equal &lt;/span&gt;&lt;span style=&quot;color: #0033b3&quot;&gt;func&lt;/span&gt;(&lt;span style=&quot;color: #805900&quot;&gt;unsafe&lt;/span&gt;.&lt;span style=&quot;color: #336ecc&quot;&gt;Pointer&lt;/span&gt;, &lt;span style=&quot;color: #805900&quot;&gt;unsafe&lt;/span&gt;.&lt;span style=&quot;color: #336ecc&quot;&gt;Pointer&lt;/span&gt;) &lt;span style=&quot;color: #0033b3&quot;&gt;bool&lt;br&gt;&lt;/span&gt;&lt;span style=&quot;color: #0033b3&quot;&gt;    &lt;/span&gt;&lt;span style=&quot;color: #8c8c8c ; font-style: italic&quot;&gt;// &lt;/span&gt;&lt;span style=&quot;color: #525252 ; font-style: italic&quot;&gt;gcdata&lt;/span&gt;&lt;span style=&quot;color: #8c8c8c ; font-style: italic&quot;&gt; stores the &lt;/span&gt;&lt;span style=&quot;color: #525252 ; font-style: italic&quot;&gt;GC&lt;/span&gt;&lt;span style=&quot;color: #8c8c8c ; font-style: italic&quot;&gt; type data for the garbage collector.&lt;br&gt;&lt;/span&gt;&lt;span style=&quot;color: #8c8c8c ; font-style: italic&quot;&gt;    // If the KindGCProg bit is set in &lt;/span&gt;&lt;span style=&quot;color: #525252 ; font-style: italic&quot;&gt;kind&lt;/span&gt;&lt;span style=&quot;color: #8c8c8c ; font-style: italic&quot;&gt;, &lt;/span&gt;&lt;span style=&quot;color: #525252 ; font-style: italic&quot;&gt;gcdata&lt;/span&gt;&lt;span style=&quot;color: #8c8c8c ; font-style: italic&quot;&gt; is a &lt;/span&gt;&lt;span style=&quot;color: #525252 ; font-style: italic&quot;&gt;GC&lt;/span&gt;&lt;span style=&quot;color: #8c8c8c ; font-style: italic&quot;&gt; program.&lt;br&gt;&lt;/span&gt;&lt;span style=&quot;color: #8c8c8c ; font-style: italic&quot;&gt;    // Otherwise it is a ptrmask bitmap. See mbitmap.go for details.&lt;br&gt;&lt;/span&gt;&lt;span style=&quot;color: #8c8c8c ; font-style: italic&quot;&gt;    &lt;/span&gt;&lt;span style=&quot;color: #000000&quot;&gt;gcdata    &lt;/span&gt;*&lt;span style=&quot;color: #0033b3&quot;&gt;byte&lt;br&gt;&lt;/span&gt;&lt;span style=&quot;color: #0033b3&quot;&gt;    &lt;/span&gt;&lt;span style=&quot;color: #000000&quot;&gt;str       &lt;/span&gt;&lt;span style=&quot;color: #336ecc&quot;&gt;nameOff&lt;br&gt;&lt;/span&gt;&lt;span style=&quot;color: #336ecc&quot;&gt;    &lt;/span&gt;&lt;span style=&quot;color: #000000&quot;&gt;ptrToThis &lt;/span&gt;&lt;span style=&quot;color: #336ecc&quot;&gt;typeOff&lt;br&gt;&lt;/span&gt;}&lt;/div&gt;" style="rounded=0;whiteSpace=wrap;html=1;" parent="1" vertex="1">
          <mxGeometry x="-160" y="-1380" width="970" height="580" as="geometry" />
        </mxCell>
        <mxCell id="4QqiqVwi1cBf87IRrPp7-12" value="&lt;ol style=&quot;border: 0px solid rgb(217 , 217 , 227) ; box-sizing: border-box ; list-style: none ; margin: 1.25em 0px ; padding: 0px ; display: flex ; color: rgb(55 , 65 , 81) ; font-family: , , , , &amp;#34;segoe ui&amp;#34; , &amp;#34;roboto&amp;#34; , &amp;#34;ubuntu&amp;#34; , &amp;#34;cantarell&amp;#34; , &amp;#34;noto sans&amp;#34; , sans-serif , &amp;#34;helvetica neue&amp;#34; , &amp;#34;arial&amp;#34; , &amp;#34;apple color emoji&amp;#34; , &amp;#34;segoe ui emoji&amp;#34; , &amp;#34;segoe ui symbol&amp;#34; , &amp;#34;noto color emoji&amp;#34; ; font-size: 16px ; background-color: rgb(247 , 247 , 248)&quot;&gt;&lt;li style=&quot;border: 0px solid rgb(217 , 217 , 227) ; box-sizing: border-box ; margin-bottom: 0px ; margin-top: 0px ; padding-left: 0.375em ; display: block ; min-height: 28px&quot;&gt;&lt;p style=&quot;border: 0px solid rgb(217 , 217 , 227) ; box-sizing: border-box ; margin: 0px&quot;&gt;&lt;span style=&quot;border: 0px solid rgb(217 , 217 , 227) ; box-sizing: border-box ; font-weight: 600&quot;&gt;基本类型（例如整数、浮点数）&lt;/span&gt;：&lt;code style=&quot;border: 0px solid rgb(217 , 217 , 227) ; box-sizing: border-box ; font-family: &amp;#34;söhne mono&amp;#34; , &amp;#34;monaco&amp;#34; , &amp;#34;andale mono&amp;#34; , &amp;#34;ubuntu mono&amp;#34; , monospace &amp;#34;important&amp;#34; ; font-size: 0.875em ; font-weight: 600&quot;&gt;size&lt;/code&gt; 表示该类型值所需的字节数。例如，&lt;code style=&quot;border: 0px solid rgb(217 , 217 , 227) ; box-sizing: border-box ; font-family: &amp;#34;söhne mono&amp;#34; , &amp;#34;monaco&amp;#34; , &amp;#34;andale mono&amp;#34; , &amp;#34;ubuntu mono&amp;#34; , monospace &amp;#34;important&amp;#34; ; font-size: 0.875em ; font-weight: 600&quot;&gt;int32&lt;/code&gt; 的大小是4，因为它需要4个字节来存储。&lt;/p&gt;&lt;/li&gt;&lt;li style=&quot;border: 0px solid rgb(217 , 217 , 227) ; box-sizing: border-box ; margin-bottom: 0px ; margin-top: 0px ; padding-left: 0.375em ; display: block ; min-height: 28px&quot;&gt;&lt;p style=&quot;border: 0px solid rgb(217 , 217 , 227) ; box-sizing: border-box ; margin: 0px&quot;&gt;&lt;span style=&quot;border: 0px solid rgb(217 , 217 , 227) ; box-sizing: border-box ; font-weight: 600&quot;&gt;复合类型&lt;/span&gt;：&lt;/p&gt;&lt;ul style=&quot;border: 0px solid rgb(217 , 217 , 227) ; box-sizing: border-box ; list-style: disc ; margin: 0px 0px 0px 1rem ; padding: 0px ; display: flex&quot;&gt;&lt;li style=&quot;border: 0px solid rgb(217 , 217 , 227) ; box-sizing: border-box ; margin: 0px ; padding-left: 0.375em ; display: block ; min-height: 28px&quot;&gt;&lt;span style=&quot;border: 0px solid rgb(217 , 217 , 227) ; box-sizing: border-box ; font-weight: 600&quot;&gt;结构体&lt;/span&gt;：&lt;code style=&quot;border: 0px solid rgb(217 , 217 , 227) ; box-sizing: border-box ; font-family: &amp;#34;söhne mono&amp;#34; , &amp;#34;monaco&amp;#34; , &amp;#34;andale mono&amp;#34; , &amp;#34;ubuntu mono&amp;#34; , monospace &amp;#34;important&amp;#34; ; font-size: 0.875em ; font-weight: 600&quot;&gt;size&lt;/code&gt; 是结构体中所有字段所需空间的总和，可能还包括一些对齐填充。&lt;/li&gt;&lt;li style=&quot;border: 0px solid rgb(217 , 217 , 227) ; box-sizing: border-box ; margin: 0px ; padding-left: 0.375em ; display: block ; min-height: 28px&quot;&gt;&lt;span style=&quot;border: 0px solid rgb(217 , 217 , 227) ; box-sizing: border-box ; font-weight: 600&quot;&gt;数组&lt;/span&gt;：&lt;code style=&quot;border: 0px solid rgb(217 , 217 , 227) ; box-sizing: border-box ; font-family: &amp;#34;söhne mono&amp;#34; , &amp;#34;monaco&amp;#34; , &amp;#34;andale mono&amp;#34; , &amp;#34;ubuntu mono&amp;#34; , monospace &amp;#34;important&amp;#34; ; font-size: 0.875em ; font-weight: 600&quot;&gt;size&lt;/code&gt; 是数组的单个元素大小乘以元素数量。&lt;/li&gt;&lt;/ul&gt;&lt;/li&gt;&lt;li style=&quot;border: 0px solid rgb(217 , 217 , 227) ; box-sizing: border-box ; margin-bottom: 0px ; margin-top: 0px ; padding-left: 0.375em ; display: block ; min-height: 28px&quot;&gt;&lt;p style=&quot;border: 0px solid rgb(217 , 217 , 227) ; box-sizing: border-box ; margin: 0px&quot;&gt;&lt;span style=&quot;border: 0px solid rgb(217 , 217 , 227) ; box-sizing: border-box ; font-weight: 600&quot;&gt;引用类型&lt;/span&gt;：&lt;/p&gt;&lt;ul style=&quot;border: 0px solid rgb(217 , 217 , 227) ; box-sizing: border-box ; list-style: disc ; margin: 0px 0px 0px 1rem ; padding: 0px ; display: flex&quot;&gt;&lt;li style=&quot;border: 0px solid rgb(217 , 217 , 227) ; box-sizing: border-box ; margin: 0px ; padding-left: 0.375em ; display: block ; min-height: 28px&quot;&gt;&lt;span style=&quot;border: 0px solid rgb(217 , 217 , 227) ; box-sizing: border-box ; font-weight: 600&quot;&gt;切片&lt;/span&gt;：&lt;code style=&quot;border: 0px solid rgb(217 , 217 , 227) ; box-sizing: border-box ; font-family: &amp;#34;söhne mono&amp;#34; , &amp;#34;monaco&amp;#34; , &amp;#34;andale mono&amp;#34; , &amp;#34;ubuntu mono&amp;#34; , monospace &amp;#34;important&amp;#34; ; font-size: 0.875em ; font-weight: 600&quot;&gt;size&lt;/code&gt; 表示单个切片元素的大小，而不是整个切片头部的大小。&lt;/li&gt;&lt;li style=&quot;border: 0px solid rgb(217 , 217 , 227) ; box-sizing: border-box ; margin: 0px ; padding-left: 0.375em ; display: block ; min-height: 28px&quot;&gt;&lt;span style=&quot;border: 0px solid rgb(217 , 217 , 227) ; box-sizing: border-box ; font-weight: 600&quot;&gt;映射、通道等&lt;/span&gt;：&lt;code style=&quot;border: 0px solid rgb(217 , 217 , 227) ; box-sizing: border-box ; font-family: &amp;#34;söhne mono&amp;#34; , &amp;#34;monaco&amp;#34; , &amp;#34;andale mono&amp;#34; , &amp;#34;ubuntu mono&amp;#34; , monospace &amp;#34;important&amp;#34; ; font-size: 0.875em ; font-weight: 600&quot;&gt;size&lt;/code&gt; 的解释可能与具体的数据结构有关。&lt;/li&gt;&lt;/ul&gt;&lt;/li&gt;&lt;li style=&quot;border: 0px solid rgb(217 , 217 , 227) ; box-sizing: border-box ; margin-bottom: 0px ; margin-top: 0px ; padding-left: 0.375em ; display: block ; min-height: 28px&quot;&gt;&lt;p style=&quot;border: 0px solid rgb(217 , 217 , 227) ; box-sizing: border-box ; margin: 0px&quot;&gt;&lt;span style=&quot;border: 0px solid rgb(217 , 217 , 227) ; box-sizing: border-box ; font-weight: 600&quot;&gt;指针类型&lt;/span&gt;：&lt;code style=&quot;border: 0px solid rgb(217 , 217 , 227) ; box-sizing: border-box ; font-family: &amp;#34;söhne mono&amp;#34; , &amp;#34;monaco&amp;#34; , &amp;#34;andale mono&amp;#34; , &amp;#34;ubuntu mono&amp;#34; , monospace &amp;#34;important&amp;#34; ; font-size: 0.875em ; font-weight: 600&quot;&gt;size&lt;/code&gt; 通常等于指针的大小，这取决于具体的体系结构（例如，32位或64位）。&lt;/p&gt;&lt;/li&gt;&lt;li style=&quot;border: 0px solid rgb(217 , 217 , 227) ; box-sizing: border-box ; margin-bottom: 0px ; margin-top: 0px ; padding-left: 0.375em ; display: block ; min-height: 28px&quot;&gt;&lt;p style=&quot;border: 0px solid rgb(217 , 217 , 227) ; box-sizing: border-box ; margin: 0px&quot;&gt;&lt;span style=&quot;border: 0px solid rgb(217 , 217 , 227) ; box-sizing: border-box ; font-weight: 600&quot;&gt;接口类型&lt;/span&gt;：&lt;code style=&quot;border: 0px solid rgb(217 , 217 , 227) ; box-sizing: border-box ; font-family: &amp;#34;söhne mono&amp;#34; , &amp;#34;monaco&amp;#34; , &amp;#34;andale mono&amp;#34; , &amp;#34;ubuntu mono&amp;#34; , monospace &amp;#34;important&amp;#34; ; font-size: 0.875em ; font-weight: 600&quot;&gt;size&lt;/code&gt; 可能与存储接口值所需的空间有关，包括动态类型信息和具体值的空间。&lt;/p&gt;&lt;/li&gt;&lt;li style=&quot;border: 0px solid rgb(217 , 217 , 227) ; box-sizing: border-box ; margin-bottom: 0px ; margin-top: 0px ; padding-left: 0.375em ; display: block ; min-height: 28px&quot;&gt;&lt;p style=&quot;border: 0px solid rgb(217 , 217 , 227) ; box-sizing: border-box ; margin: 0px&quot;&gt;&lt;span style=&quot;border: 0px solid rgb(217 , 217 , 227) ; box-sizing: border-box ; font-weight: 600&quot;&gt;函数类型&lt;/span&gt;：函数本身在 Go 语言中没有直接的大小表示，所以 &lt;code style=&quot;border: 0px solid rgb(217 , 217 , 227) ; box-sizing: border-box ; font-family: &amp;#34;söhne mono&amp;#34; , &amp;#34;monaco&amp;#34; , &amp;#34;andale mono&amp;#34; , &amp;#34;ubuntu mono&amp;#34; , monospace &amp;#34;important&amp;#34; ; font-size: 0.875em ; font-weight: 600&quot;&gt;size&lt;/code&gt; 字段可能没有具体意义。&lt;/p&gt;&lt;/li&gt;&lt;/ol&gt;" style="rounded=0;whiteSpace=wrap;html=1;" parent="1" vertex="1">
          <mxGeometry x="-200" y="-1850" width="780" height="220" as="geometry" />
        </mxCell>
        <mxCell id="4QqiqVwi1cBf87IRrPp7-15" style="edgeStyle=orthogonalEdgeStyle;curved=1;orthogonalLoop=1;jettySize=auto;html=1;exitX=0.5;exitY=0;exitDx=0;exitDy=0;" parent="1" source="4QqiqVwi1cBf87IRrPp7-13" target="4QqiqVwi1cBf87IRrPp7-12" edge="1">
          <mxGeometry relative="1" as="geometry" />
        </mxCell>
        <mxCell id="4QqiqVwi1cBf87IRrPp7-13" value="size" style="rounded=0;whiteSpace=wrap;html=1;" parent="1" vertex="1">
          <mxGeometry x="180" y="-1530" width="120" height="60" as="geometry" />
        </mxCell>
        <mxCell id="4QqiqVwi1cBf87IRrPp7-19" style="edgeStyle=orthogonalEdgeStyle;curved=1;orthogonalLoop=1;jettySize=auto;html=1;exitX=0;exitY=0;exitDx=0;exitDy=0;entryX=0.949;entryY=0.739;entryDx=0;entryDy=0;entryPerimeter=0;" parent="1" source="4QqiqVwi1cBf87IRrPp7-16" target="4QqiqVwi1cBf87IRrPp7-2" edge="1">
          <mxGeometry relative="1" as="geometry" />
        </mxCell>
        <mxCell id="4QqiqVwi1cBf87IRrPp7-16" value="结构" style="ellipse;whiteSpace=wrap;html=1;" parent="1" vertex="1">
          <mxGeometry x="-50" y="570" width="120" height="80" as="geometry" />
        </mxCell>
        <mxCell id="m9XsXD8E_b_i3M8wHN8T-13" style="edgeStyle=orthogonalEdgeStyle;curved=1;orthogonalLoop=1;jettySize=auto;html=1;exitX=0.5;exitY=1;exitDx=0;exitDy=0;entryX=0.5;entryY=0;entryDx=0;entryDy=0;" parent="1" source="m9XsXD8E_b_i3M8wHN8T-10" target="m9XsXD8E_b_i3M8wHN8T-12" edge="1">
          <mxGeometry relative="1" as="geometry" />
        </mxCell>
        <mxCell id="m9XsXD8E_b_i3M8wHN8T-10" value="内容截取" style="ellipse;whiteSpace=wrap;html=1;" parent="1" vertex="1">
          <mxGeometry x="280" y="710" width="120" height="80" as="geometry" />
        </mxCell>
        <mxCell id="m9XsXD8E_b_i3M8wHN8T-12" value="&lt;span style=&quot;color: rgb(63 , 63 , 63) ; font-family: , &amp;#34;blinkmacsystemfont&amp;#34; , &amp;#34;helvetica neue&amp;#34; , &amp;#34;pingfang sc&amp;#34; , &amp;#34;hiragino sans gb&amp;#34; , &amp;#34;microsoft yahei ui&amp;#34; , &amp;#34;microsoft yahei&amp;#34; , &amp;#34;arial&amp;#34; , sans-serif ; font-size: 14px ; letter-spacing: 1.4px ; text-align: left ; background-color: rgb(255 , 255 , 255)&quot;&gt;切片 slice 执行截取操作时，本质上是一次引用传递操作，因为不论如何截取，底层复用的都是同一块内存空间中的数据，只不过，截取动作会创建出一个新的 slice header 实例.&lt;/span&gt;" style="ellipse;whiteSpace=wrap;html=1;" parent="1" vertex="1">
          <mxGeometry x="-140" y="950" width="440" height="130" as="geometry" />
        </mxCell>
        <mxCell id="m9XsXD8E_b_i3M8wHN8T-19" style="edgeStyle=orthogonalEdgeStyle;curved=1;orthogonalLoop=1;jettySize=auto;html=1;exitX=0.5;exitY=1;exitDx=0;exitDy=0;entryX=0.5;entryY=0;entryDx=0;entryDy=0;" parent="1" source="m9XsXD8E_b_i3M8wHN8T-14" target="FjZOOBbh_rfoeGEimOdd-3" edge="1">
          <mxGeometry relative="1" as="geometry">
            <mxPoint x="620" y="930" as="targetPoint" />
          </mxGeometry>
        </mxCell>
        <mxCell id="m9XsXD8E_b_i3M8wHN8T-14" value="作为参数传入" style="ellipse;whiteSpace=wrap;html=1;" parent="1" vertex="1">
          <mxGeometry x="560" y="720" width="120" height="80" as="geometry" />
        </mxCell>
        <mxCell id="m9XsXD8E_b_i3M8wHN8T-25" style="edgeStyle=orthogonalEdgeStyle;curved=1;orthogonalLoop=1;jettySize=auto;html=1;exitX=1;exitY=0.5;exitDx=0;exitDy=0;" parent="1" source="m9XsXD8E_b_i3M8wHN8T-21" target="m9XsXD8E_b_i3M8wHN8T-24" edge="1">
          <mxGeometry relative="1" as="geometry" />
        </mxCell>
        <mxCell id="m9XsXD8E_b_i3M8wHN8T-21" value="扩容 扩容后，slice结构体中数组换成新的" style="ellipse;whiteSpace=wrap;html=1;" parent="1" vertex="1">
          <mxGeometry x="1070" y="570" width="120" height="80" as="geometry" />
        </mxCell>
        <mxCell id="m9XsXD8E_b_i3M8wHN8T-27" style="edgeStyle=orthogonalEdgeStyle;curved=1;orthogonalLoop=1;jettySize=auto;html=1;exitX=1;exitY=0.5;exitDx=0;exitDy=0;entryX=0;entryY=0.5;entryDx=0;entryDy=0;" parent="1" source="m9XsXD8E_b_i3M8wHN8T-24" target="m9XsXD8E_b_i3M8wHN8T-26" edge="1">
          <mxGeometry relative="1" as="geometry" />
        </mxCell>
        <mxCell id="m9XsXD8E_b_i3M8wHN8T-24" value="&lt;pre style=&quot;margin: 10px 8px ; padding: 1em ; outline: 0px ; max-width: 100% ; color: rgb(88 , 110 , 117) ; background: rgb(253 , 246 , 227) ; font-size: 14px ; text-align: left ; line-height: 1.5 ; font-family: , &amp;#34;blinkmacsystemfont&amp;#34; , &amp;#34;helvetica neue&amp;#34; , &amp;#34;pingfang sc&amp;#34; , &amp;#34;hiragino sans gb&amp;#34; , &amp;#34;microsoft yahei ui&amp;#34; , &amp;#34;microsoft yahei&amp;#34; , &amp;#34;arial&amp;#34; , sans-serif ; overflow-x: auto ; border-radius: 8px ; box-sizing: border-box ; overflow-wrap: break-word&quot;&gt;&lt;code style=&quot;margin: 0px ; padding: 0px ; outline: 0px ; max-width: 100% ; box-sizing: border-box ; word-wrap: break-word ; line-height: 1.75 ; font-family: &amp;#34;menlo&amp;#34; , &amp;#34;operator mono&amp;#34; , &amp;#34;consolas&amp;#34; , &amp;#34;monaco&amp;#34; , monospace&quot;&gt;&lt;span style=&quot;margin: 0px ; padding: 0px ; outline: 0px ; max-width: 100% ; box-sizing: border-box ; word-wrap: break-word&quot;&gt;func&amp;nbsp;growslice&lt;/span&gt;&lt;span style=&quot;margin: 0px ; padding: 0px ; outline: 0px ; max-width: 100% ; box-sizing: border-box ; word-wrap: break-word&quot;&gt;(&lt;/span&gt;&lt;span style=&quot;margin: 0px ; padding: 0px ; outline: 0px ; max-width: 100% ; box-sizing: border-box ; word-wrap: break-word&quot;&gt;et&amp;nbsp;&lt;/span&gt;&lt;span style=&quot;margin: 0px ; padding: 0px ; outline: 0px ; max-width: 100% ; box-sizing: border-box ; word-wrap: break-word&quot;&gt;*&lt;/span&gt;&lt;span style=&quot;margin: 0px ; padding: 0px ; outline: 0px ; max-width: 100% ; box-sizing: border-box ; word-wrap: break-word&quot;&gt;_type&lt;/span&gt;&lt;span style=&quot;margin: 0px ; padding: 0px ; outline: 0px ; max-width: 100% ; box-sizing: border-box ; word-wrap: break-word&quot;&gt;,&lt;/span&gt;&lt;span style=&quot;margin: 0px ; padding: 0px ; outline: 0px ; max-width: 100% ; box-sizing: border-box ; word-wrap: break-word&quot;&gt;&amp;nbsp;old&amp;nbsp;slice&lt;/span&gt;&lt;span style=&quot;margin: 0px ; padding: 0px ; outline: 0px ; max-width: 100% ; box-sizing: border-box ; word-wrap: break-word&quot;&gt;,&lt;/span&gt;&lt;span style=&quot;margin: 0px ; padding: 0px ; outline: 0px ; max-width: 100% ; box-sizing: border-box ; word-wrap: break-word&quot;&gt;&amp;nbsp;cap&amp;nbsp;&lt;/span&gt;&lt;span style=&quot;margin: 0px ; padding: 0px ; outline: 0px ; max-width: 100% ; box-sizing: border-box ; word-wrap: break-word&quot;&gt;int&lt;/span&gt;&lt;span style=&quot;margin: 0px ; padding: 0px ; outline: 0px ; max-width: 100% ; box-sizing: border-box ; word-wrap: break-word&quot;&gt;)&lt;/span&gt;&lt;span style=&quot;margin: 0px ; padding: 0px ; outline: 0px ; max-width: 100% ; box-sizing: border-box ; word-wrap: break-word&quot;&gt;&amp;nbsp;slice&amp;nbsp;&lt;/span&gt;&lt;span style=&quot;margin: 0px ; padding: 0px ; outline: 0px ; max-width: 100% ; box-sizing: border-box ; word-wrap: break-word&quot;&gt;{&lt;/span&gt;&lt;br style=&quot;margin: 0px ; padding: 0px ; outline: 0px ; max-width: 100% ; box-sizing: border-box ; word-wrap: break-word&quot;&gt;&lt;span style=&quot;margin: 0px ; padding: 0px ; outline: 0px ; max-width: 100% ; box-sizing: border-box ; word-wrap: break-word&quot;&gt;&amp;nbsp;&amp;nbsp;&amp;nbsp;&amp;nbsp;&lt;/span&gt;&lt;span style=&quot;margin: 0px ; padding: 0px ; outline: 0px ; max-width: 100% ; box-sizing: border-box ; word-wrap: break-word&quot;&gt;//...&amp;nbsp;&lt;/span&gt;&lt;br style=&quot;margin: 0px ; padding: 0px ; outline: 0px ; max-width: 100% ; box-sizing: border-box ; word-wrap: break-word&quot;&gt;&lt;span style=&quot;margin: 0px ; padding: 0px ; outline: 0px ; max-width: 100% ; box-sizing: border-box ; word-wrap: break-word&quot;&gt;&amp;nbsp;&amp;nbsp;&amp;nbsp;&amp;nbsp;&lt;/span&gt;&lt;span style=&quot;margin: 0px ; padding: 0px ; outline: 0px ; max-width: 100% ; box-sizing: border-box ; word-wrap: break-word&quot;&gt;if&lt;/span&gt;&lt;span style=&quot;margin: 0px ; padding: 0px ; outline: 0px ; max-width: 100% ; box-sizing: border-box ; word-wrap: break-word&quot;&gt;&amp;nbsp;cap&amp;nbsp;&lt;/span&gt;&lt;span style=&quot;margin: 0px ; padding: 0px ; outline: 0px ; max-width: 100% ; box-sizing: border-box ; word-wrap: break-word&quot;&gt;&amp;lt;&lt;/span&gt;&lt;span style=&quot;margin: 0px ; padding: 0px ; outline: 0px ; max-width: 100% ; box-sizing: border-box ; word-wrap: break-word&quot;&gt;&amp;nbsp;old&lt;/span&gt;&lt;span style=&quot;margin: 0px ; padding: 0px ; outline: 0px ; max-width: 100% ; box-sizing: border-box ; word-wrap: break-word&quot;&gt;.&lt;/span&gt;&lt;span style=&quot;margin: 0px ; padding: 0px ; outline: 0px ; max-width: 100% ; box-sizing: border-box ; word-wrap: break-word&quot;&gt;cap&amp;nbsp;&lt;/span&gt;&lt;span style=&quot;margin: 0px ; padding: 0px ; outline: 0px ; max-width: 100% ; box-sizing: border-box ; word-wrap: break-word&quot;&gt;{&lt;/span&gt;&lt;br style=&quot;margin: 0px ; padding: 0px ; outline: 0px ; max-width: 100% ; box-sizing: border-box ; word-wrap: break-word&quot;&gt;&lt;span style=&quot;margin: 0px ; padding: 0px ; outline: 0px ; max-width: 100% ; box-sizing: border-box ; word-wrap: break-word&quot;&gt;&amp;nbsp;&amp;nbsp;&amp;nbsp;&amp;nbsp;&amp;nbsp;&amp;nbsp;&amp;nbsp;&amp;nbsp;panic&lt;/span&gt;&lt;span style=&quot;margin: 0px ; padding: 0px ; outline: 0px ; max-width: 100% ; box-sizing: border-box ; word-wrap: break-word&quot;&gt;(&lt;/span&gt;&lt;span style=&quot;margin: 0px ; padding: 0px ; outline: 0px ; max-width: 100% ; box-sizing: border-box ; word-wrap: break-word&quot;&gt;errorString&lt;/span&gt;&lt;span style=&quot;margin: 0px ; padding: 0px ; outline: 0px ; max-width: 100% ; box-sizing: border-box ; word-wrap: break-word&quot;&gt;(&lt;/span&gt;&lt;span style=&quot;margin: 0px ; padding: 0px ; outline: 0px ; max-width: 100% ; box-sizing: border-box ; word-wrap: break-word&quot;&gt;&quot;growslice:&amp;nbsp;cap&amp;nbsp;out&amp;nbsp;of&amp;nbsp;range&quot;&lt;/span&gt;&lt;span style=&quot;margin: 0px ; padding: 0px ; outline: 0px ; max-width: 100% ; box-sizing: border-box ; word-wrap: break-word&quot;&gt;))&lt;/span&gt;&lt;br style=&quot;margin: 0px ; padding: 0px ; outline: 0px ; max-width: 100% ; box-sizing: border-box ; word-wrap: break-word&quot;&gt;&lt;span style=&quot;margin: 0px ; padding: 0px ; outline: 0px ; max-width: 100% ; box-sizing: border-box ; word-wrap: break-word&quot;&gt;&amp;nbsp;&amp;nbsp;&amp;nbsp;&amp;nbsp;&lt;/span&gt;&lt;span style=&quot;margin: 0px ; padding: 0px ; outline: 0px ; max-width: 100% ; box-sizing: border-box ; word-wrap: break-word&quot;&gt;}&lt;/span&gt;&lt;br style=&quot;margin: 0px ; padding: 0px ; outline: 0px ; max-width: 100% ; box-sizing: border-box ; word-wrap: break-word&quot;&gt;&lt;br style=&quot;margin: 0px ; padding: 0px ; outline: 0px ; max-width: 100% ; box-sizing: border-box ; word-wrap: break-word&quot;&gt;&lt;br style=&quot;margin: 0px ; padding: 0px ; outline: 0px ; max-width: 100% ; box-sizing: border-box ; word-wrap: break-word&quot;&gt;&lt;span style=&quot;margin: 0px ; padding: 0px ; outline: 0px ; max-width: 100% ; box-sizing: border-box ; word-wrap: break-word&quot;&gt;&amp;nbsp;&amp;nbsp;&amp;nbsp;&amp;nbsp;&lt;/span&gt;&lt;span style=&quot;margin: 0px ; padding: 0px ; outline: 0px ; max-width: 100% ; box-sizing: border-box ; word-wrap: break-word&quot;&gt;if&lt;/span&gt;&lt;span style=&quot;margin: 0px ; padding: 0px ; outline: 0px ; max-width: 100% ; box-sizing: border-box ; word-wrap: break-word&quot;&gt;&amp;nbsp;et&lt;/span&gt;&lt;span style=&quot;margin: 0px ; padding: 0px ; outline: 0px ; max-width: 100% ; box-sizing: border-box ; word-wrap: break-word&quot;&gt;.&lt;/span&gt;&lt;span style=&quot;margin: 0px ; padding: 0px ; outline: 0px ; max-width: 100% ; box-sizing: border-box ; word-wrap: break-word&quot;&gt;size&amp;nbsp;&lt;/span&gt;&lt;span style=&quot;margin: 0px ; padding: 0px ; outline: 0px ; max-width: 100% ; box-sizing: border-box ; word-wrap: break-word&quot;&gt;==&lt;/span&gt;&lt;span style=&quot;margin: 0px ; padding: 0px ; outline: 0px ; max-width: 100% ; box-sizing: border-box ; word-wrap: break-word&quot;&gt;&amp;nbsp;&lt;/span&gt;&lt;span style=&quot;margin: 0px ; padding: 0px ; outline: 0px ; max-width: 100% ; box-sizing: border-box ; word-wrap: break-word&quot;&gt;0&lt;/span&gt;&lt;span style=&quot;margin: 0px ; padding: 0px ; outline: 0px ; max-width: 100% ; box-sizing: border-box ; word-wrap: break-word&quot;&gt;&amp;nbsp;&lt;/span&gt;&lt;span style=&quot;margin: 0px ; padding: 0px ; outline: 0px ; max-width: 100% ; box-sizing: border-box ; word-wrap: break-word&quot;&gt;{&lt;/span&gt;&lt;br style=&quot;margin: 0px ; padding: 0px ; outline: 0px ; max-width: 100% ; box-sizing: border-box ; word-wrap: break-word&quot;&gt;&lt;span style=&quot;margin: 0px ; padding: 0px ; outline: 0px ; max-width: 100% ; box-sizing: border-box ; word-wrap: break-word&quot;&gt;&amp;nbsp;&amp;nbsp;&amp;nbsp;&amp;nbsp;&amp;nbsp;&amp;nbsp;&amp;nbsp;&amp;nbsp;&lt;/span&gt;&lt;span style=&quot;margin: 0px ; padding: 0px ; outline: 0px ; max-width: 100% ; box-sizing: border-box ; word-wrap: break-word&quot;&gt;//&amp;nbsp;倘若元素大小为&amp;nbsp;0，则无需分配空间直接返回&lt;/span&gt;&lt;br style=&quot;margin: 0px ; padding: 0px ; outline: 0px ; max-width: 100% ; box-sizing: border-box ; word-wrap: break-word&quot;&gt;&lt;span style=&quot;margin: 0px ; padding: 0px ; outline: 0px ; max-width: 100% ; box-sizing: border-box ; word-wrap: break-word&quot;&gt;&amp;nbsp;&amp;nbsp;&amp;nbsp;&amp;nbsp;&amp;nbsp;&amp;nbsp;&amp;nbsp;&amp;nbsp;&lt;/span&gt;&lt;span style=&quot;margin: 0px ; padding: 0px ; outline: 0px ; max-width: 100% ; box-sizing: border-box ; word-wrap: break-word&quot;&gt;return&lt;/span&gt;&lt;span style=&quot;margin: 0px ; padding: 0px ; outline: 0px ; max-width: 100% ; box-sizing: border-box ; word-wrap: break-word&quot;&gt;&amp;nbsp;slice&lt;/span&gt;&lt;span style=&quot;margin: 0px ; padding: 0px ; outline: 0px ; max-width: 100% ; box-sizing: border-box ; word-wrap: break-word&quot;&gt;{&lt;/span&gt;&lt;span style=&quot;margin: 0px ; padding: 0px ; outline: 0px ; max-width: 100% ; box-sizing: border-box ; word-wrap: break-word&quot;&gt;unsafe&lt;/span&gt;&lt;span style=&quot;margin: 0px ; padding: 0px ; outline: 0px ; max-width: 100% ; box-sizing: border-box ; word-wrap: break-word&quot;&gt;.&lt;/span&gt;&lt;span style=&quot;margin: 0px ; padding: 0px ; outline: 0px ; max-width: 100% ; box-sizing: border-box ; word-wrap: break-word&quot;&gt;Pointer&lt;/span&gt;&lt;span style=&quot;margin: 0px ; padding: 0px ; outline: 0px ; max-width: 100% ; box-sizing: border-box ; word-wrap: break-word&quot;&gt;(&amp;amp;&lt;/span&gt;&lt;span style=&quot;margin: 0px ; padding: 0px ; outline: 0px ; max-width: 100% ; box-sizing: border-box ; word-wrap: break-word&quot;&gt;zerobase&lt;/span&gt;&lt;span style=&quot;margin: 0px ; padding: 0px ; outline: 0px ; max-width: 100% ; box-sizing: border-box ; word-wrap: break-word&quot;&gt;),&lt;/span&gt;&lt;span style=&quot;margin: 0px ; padding: 0px ; outline: 0px ; max-width: 100% ; box-sizing: border-box ; word-wrap: break-word&quot;&gt;&amp;nbsp;old&lt;/span&gt;&lt;span style=&quot;margin: 0px ; padding: 0px ; outline: 0px ; max-width: 100% ; box-sizing: border-box ; word-wrap: break-word&quot;&gt;.&lt;/span&gt;&lt;span style=&quot;margin: 0px ; padding: 0px ; outline: 0px ; max-width: 100% ; box-sizing: border-box ; word-wrap: break-word&quot;&gt;len&lt;/span&gt;&lt;span style=&quot;margin: 0px ; padding: 0px ; outline: 0px ; max-width: 100% ; box-sizing: border-box ; word-wrap: break-word&quot;&gt;,&lt;/span&gt;&lt;span style=&quot;margin: 0px ; padding: 0px ; outline: 0px ; max-width: 100% ; box-sizing: border-box ; word-wrap: break-word&quot;&gt;&amp;nbsp;cap&lt;/span&gt;&lt;span style=&quot;margin: 0px ; padding: 0px ; outline: 0px ; max-width: 100% ; box-sizing: border-box ; word-wrap: break-word&quot;&gt;}&lt;/span&gt;&lt;br style=&quot;margin: 0px ; padding: 0px ; outline: 0px ; max-width: 100% ; box-sizing: border-box ; word-wrap: break-word&quot;&gt;&lt;span style=&quot;margin: 0px ; padding: 0px ; outline: 0px ; max-width: 100% ; box-sizing: border-box ; word-wrap: break-word&quot;&gt;&amp;nbsp;&amp;nbsp;&amp;nbsp;&amp;nbsp;&lt;/span&gt;&lt;span style=&quot;margin: 0px ; padding: 0px ; outline: 0px ; max-width: 100% ; box-sizing: border-box ; word-wrap: break-word&quot;&gt;}&lt;/span&gt;&lt;br style=&quot;margin: 0px ; padding: 0px ; outline: 0px ; max-width: 100% ; box-sizing: border-box ; word-wrap: break-word&quot;&gt;&lt;br style=&quot;margin: 0px ; padding: 0px ; outline: 0px ; max-width: 100% ; box-sizing: border-box ; word-wrap: break-word&quot;&gt;&lt;br style=&quot;margin: 0px ; padding: 0px ; outline: 0px ; max-width: 100% ; box-sizing: border-box ; word-wrap: break-word&quot;&gt;&lt;span style=&quot;margin: 0px ; padding: 0px ; outline: 0px ; max-width: 100% ; box-sizing: border-box ; word-wrap: break-word&quot;&gt;&amp;nbsp;&amp;nbsp;&amp;nbsp;&amp;nbsp;&lt;/span&gt;&lt;span style=&quot;margin: 0px ; padding: 0px ; outline: 0px ; max-width: 100% ; box-sizing: border-box ; word-wrap: break-word&quot;&gt;//&amp;nbsp;计算扩容后数组的容量&lt;/span&gt;&lt;br style=&quot;margin: 0px ; padding: 0px ; outline: 0px ; max-width: 100% ; box-sizing: border-box ; word-wrap: break-word&quot;&gt;&lt;span style=&quot;margin: 0px ; padding: 0px ; outline: 0px ; max-width: 100% ; box-sizing: border-box ; word-wrap: break-word&quot;&gt;&amp;nbsp;&amp;nbsp;&amp;nbsp;&amp;nbsp;newcap&amp;nbsp;&lt;/span&gt;&lt;span style=&quot;margin: 0px ; padding: 0px ; outline: 0px ; max-width: 100% ; box-sizing: border-box ; word-wrap: break-word&quot;&gt;:=&lt;/span&gt;&lt;span style=&quot;margin: 0px ; padding: 0px ; outline: 0px ; max-width: 100% ; box-sizing: border-box ; word-wrap: break-word&quot;&gt;&amp;nbsp;old&lt;/span&gt;&lt;span style=&quot;margin: 0px ; padding: 0px ; outline: 0px ; max-width: 100% ; box-sizing: border-box ; word-wrap: break-word&quot;&gt;.&lt;/span&gt;&lt;span style=&quot;margin: 0px ; padding: 0px ; outline: 0px ; max-width: 100% ; box-sizing: border-box ; word-wrap: break-word&quot;&gt;cap&lt;/span&gt;&lt;br style=&quot;margin: 0px ; padding: 0px ; outline: 0px ; max-width: 100% ; box-sizing: border-box ; word-wrap: break-word&quot;&gt;&lt;span style=&quot;margin: 0px ; padding: 0px ; outline: 0px ; max-width: 100% ; box-sizing: border-box ; word-wrap: break-word&quot;&gt;&amp;nbsp;&amp;nbsp;&amp;nbsp;&amp;nbsp;&lt;/span&gt;&lt;span style=&quot;margin: 0px ; padding: 0px ; outline: 0px ; max-width: 100% ; box-sizing: border-box ; word-wrap: break-word&quot;&gt;//&amp;nbsp;取原容量两倍的容量数值&lt;/span&gt;&lt;br style=&quot;margin: 0px ; padding: 0px ; outline: 0px ; max-width: 100% ; box-sizing: border-box ; word-wrap: break-word&quot;&gt;&lt;span style=&quot;margin: 0px ; padding: 0px ; outline: 0px ; max-width: 100% ; box-sizing: border-box ; word-wrap: break-word&quot;&gt;&amp;nbsp;&amp;nbsp;&amp;nbsp;&amp;nbsp;doublecap&amp;nbsp;&lt;/span&gt;&lt;span style=&quot;margin: 0px ; padding: 0px ; outline: 0px ; max-width: 100% ; box-sizing: border-box ; word-wrap: break-word&quot;&gt;:=&lt;/span&gt;&lt;span style=&quot;margin: 0px ; padding: 0px ; outline: 0px ; max-width: 100% ; box-sizing: border-box ; word-wrap: break-word&quot;&gt;&amp;nbsp;newcap&amp;nbsp;&lt;/span&gt;&lt;span style=&quot;margin: 0px ; padding: 0px ; outline: 0px ; max-width: 100% ; box-sizing: border-box ; word-wrap: break-word&quot;&gt;+&lt;/span&gt;&lt;span style=&quot;margin: 0px ; padding: 0px ; outline: 0px ; max-width: 100% ; box-sizing: border-box ; word-wrap: break-word&quot;&gt;&amp;nbsp;newcap&lt;/span&gt;&lt;br style=&quot;margin: 0px ; padding: 0px ; outline: 0px ; max-width: 100% ; box-sizing: border-box ; word-wrap: break-word&quot;&gt;&lt;span style=&quot;margin: 0px ; padding: 0px ; outline: 0px ; max-width: 100% ; box-sizing: border-box ; word-wrap: break-word&quot;&gt;&amp;nbsp;&amp;nbsp;&amp;nbsp;&amp;nbsp;&lt;/span&gt;&lt;span style=&quot;margin: 0px ; padding: 0px ; outline: 0px ; max-width: 100% ; box-sizing: border-box ; word-wrap: break-word&quot;&gt;//&amp;nbsp;倘若新的容量大于原容量的两倍，直接取新容量作为数组扩容后的容量&lt;/span&gt;&lt;br style=&quot;margin: 0px ; padding: 0px ; outline: 0px ; max-width: 100% ; box-sizing: border-box ; word-wrap: break-word&quot;&gt;&lt;span style=&quot;margin: 0px ; padding: 0px ; outline: 0px ; max-width: 100% ; box-sizing: border-box ; word-wrap: break-word&quot;&gt;&amp;nbsp;&amp;nbsp;&amp;nbsp;&amp;nbsp;&lt;/span&gt;&lt;span style=&quot;margin: 0px ; padding: 0px ; outline: 0px ; max-width: 100% ; box-sizing: border-box ; word-wrap: break-word&quot;&gt;if&lt;/span&gt;&lt;span style=&quot;margin: 0px ; padding: 0px ; outline: 0px ; max-width: 100% ; box-sizing: border-box ; word-wrap: break-word&quot;&gt;&amp;nbsp;cap&amp;nbsp;&lt;/span&gt;&lt;span style=&quot;margin: 0px ; padding: 0px ; outline: 0px ; max-width: 100% ; box-sizing: border-box ; word-wrap: break-word&quot;&gt;&amp;gt;&lt;/span&gt;&lt;span style=&quot;margin: 0px ; padding: 0px ; outline: 0px ; max-width: 100% ; box-sizing: border-box ; word-wrap: break-word&quot;&gt;&amp;nbsp;doublecap&amp;nbsp;&lt;/span&gt;&lt;span style=&quot;margin: 0px ; padding: 0px ; outline: 0px ; max-width: 100% ; box-sizing: border-box ; word-wrap: break-word&quot;&gt;{&lt;/span&gt;&lt;br style=&quot;margin: 0px ; padding: 0px ; outline: 0px ; max-width: 100% ; box-sizing: border-box ; word-wrap: break-word&quot;&gt;&lt;span style=&quot;margin: 0px ; padding: 0px ; outline: 0px ; max-width: 100% ; box-sizing: border-box ; word-wrap: break-word&quot;&gt;&amp;nbsp;&amp;nbsp;&amp;nbsp;&amp;nbsp;&amp;nbsp;&amp;nbsp;&amp;nbsp;&amp;nbsp;newcap&amp;nbsp;&lt;/span&gt;&lt;span style=&quot;margin: 0px ; padding: 0px ; outline: 0px ; max-width: 100% ; box-sizing: border-box ; word-wrap: break-word&quot;&gt;=&lt;/span&gt;&lt;span style=&quot;margin: 0px ; padding: 0px ; outline: 0px ; max-width: 100% ; box-sizing: border-box ; word-wrap: break-word&quot;&gt;&amp;nbsp;cap&lt;/span&gt;&lt;br style=&quot;margin: 0px ; padding: 0px ; outline: 0px ; max-width: 100% ; box-sizing: border-box ; word-wrap: break-word&quot;&gt;&lt;span style=&quot;margin: 0px ; padding: 0px ; outline: 0px ; max-width: 100% ; box-sizing: border-box ; word-wrap: break-word&quot;&gt;&amp;nbsp;&amp;nbsp;&amp;nbsp;&amp;nbsp;&lt;/span&gt;&lt;span style=&quot;margin: 0px ; padding: 0px ; outline: 0px ; max-width: 100% ; box-sizing: border-box ; word-wrap: break-word&quot;&gt;}&lt;/span&gt;&lt;span style=&quot;margin: 0px ; padding: 0px ; outline: 0px ; max-width: 100% ; box-sizing: border-box ; word-wrap: break-word&quot;&gt;&amp;nbsp;&lt;/span&gt;&lt;span style=&quot;margin: 0px ; padding: 0px ; outline: 0px ; max-width: 100% ; box-sizing: border-box ; word-wrap: break-word&quot;&gt;else&lt;/span&gt;&lt;span style=&quot;margin: 0px ; padding: 0px ; outline: 0px ; max-width: 100% ; box-sizing: border-box ; word-wrap: break-word&quot;&gt;&amp;nbsp;&lt;/span&gt;&lt;span style=&quot;margin: 0px ; padding: 0px ; outline: 0px ; max-width: 100% ; box-sizing: border-box ; word-wrap: break-word&quot;&gt;{&lt;/span&gt;&lt;br style=&quot;margin: 0px ; padding: 0px ; outline: 0px ; max-width: 100% ; box-sizing: border-box ; word-wrap: break-word&quot;&gt;&lt;span style=&quot;margin: 0px ; padding: 0px ; outline: 0px ; max-width: 100% ; box-sizing: border-box ; word-wrap: break-word&quot;&gt;&amp;nbsp;&amp;nbsp;&amp;nbsp;&amp;nbsp;&amp;nbsp;&amp;nbsp;&amp;nbsp;&amp;nbsp;&lt;/span&gt;&lt;span style=&quot;margin: 0px ; padding: 0px ; outline: 0px ; max-width: 100% ; box-sizing: border-box ; word-wrap: break-word&quot;&gt;const&lt;/span&gt;&lt;span style=&quot;margin: 0px ; padding: 0px ; outline: 0px ; max-width: 100% ; box-sizing: border-box ; word-wrap: break-word&quot;&gt;&amp;nbsp;threshold&amp;nbsp;&lt;/span&gt;&lt;span style=&quot;margin: 0px ; padding: 0px ; outline: 0px ; max-width: 100% ; box-sizing: border-box ; word-wrap: break-word&quot;&gt;=&lt;/span&gt;&lt;span style=&quot;margin: 0px ; padding: 0px ; outline: 0px ; max-width: 100% ; box-sizing: border-box ; word-wrap: break-word&quot;&gt;&amp;nbsp;&lt;/span&gt;&lt;span style=&quot;margin: 0px ; padding: 0px ; outline: 0px ; max-width: 100% ; box-sizing: border-box ; word-wrap: break-word&quot;&gt;256&lt;/span&gt;&lt;br style=&quot;margin: 0px ; padding: 0px ; outline: 0px ; max-width: 100% ; box-sizing: border-box ; word-wrap: break-word&quot;&gt;&lt;span style=&quot;margin: 0px ; padding: 0px ; outline: 0px ; max-width: 100% ; box-sizing: border-box ; word-wrap: break-word&quot;&gt;&amp;nbsp;&amp;nbsp;&amp;nbsp;&amp;nbsp;&amp;nbsp;&amp;nbsp;&amp;nbsp;&amp;nbsp;&lt;/span&gt;&lt;span style=&quot;margin: 0px ; padding: 0px ; outline: 0px ; max-width: 100% ; box-sizing: border-box ; word-wrap: break-word&quot;&gt;//&amp;nbsp;倘若原容量小于&amp;nbsp;256，则扩容后新容量为原容量的两倍&lt;/span&gt;&lt;br style=&quot;margin: 0px ; padding: 0px ; outline: 0px ; max-width: 100% ; box-sizing: border-box ; word-wrap: break-word&quot;&gt;&lt;span style=&quot;margin: 0px ; padding: 0px ; outline: 0px ; max-width: 100% ; box-sizing: border-box ; word-wrap: break-word&quot;&gt;&amp;nbsp;&amp;nbsp;&amp;nbsp;&amp;nbsp;&amp;nbsp;&amp;nbsp;&amp;nbsp;&amp;nbsp;&lt;/span&gt;&lt;span style=&quot;margin: 0px ; padding: 0px ; outline: 0px ; max-width: 100% ; box-sizing: border-box ; word-wrap: break-word&quot;&gt;if&lt;/span&gt;&lt;span style=&quot;margin: 0px ; padding: 0px ; outline: 0px ; max-width: 100% ; box-sizing: border-box ; word-wrap: break-word&quot;&gt;&amp;nbsp;old&lt;/span&gt;&lt;span style=&quot;margin: 0px ; padding: 0px ; outline: 0px ; max-width: 100% ; box-sizing: border-box ; word-wrap: break-word&quot;&gt;.&lt;/span&gt;&lt;span style=&quot;margin: 0px ; padding: 0px ; outline: 0px ; max-width: 100% ; box-sizing: border-box ; word-wrap: break-word&quot;&gt;cap&amp;nbsp;&lt;/span&gt;&lt;span style=&quot;margin: 0px ; padding: 0px ; outline: 0px ; max-width: 100% ; box-sizing: border-box ; word-wrap: break-word&quot;&gt;&amp;lt;&lt;/span&gt;&lt;span style=&quot;margin: 0px ; padding: 0px ; outline: 0px ; max-width: 100% ; box-sizing: border-box ; word-wrap: break-word&quot;&gt;&amp;nbsp;threshold&amp;nbsp;&lt;/span&gt;&lt;span style=&quot;margin: 0px ; padding: 0px ; outline: 0px ; max-width: 100% ; box-sizing: border-box ; word-wrap: break-word&quot;&gt;{&lt;/span&gt;&lt;br style=&quot;margin: 0px ; padding: 0px ; outline: 0px ; max-width: 100% ; box-sizing: border-box ; word-wrap: break-word&quot;&gt;&lt;span style=&quot;margin: 0px ; padding: 0px ; outline: 0px ; max-width: 100% ; box-sizing: border-box ; word-wrap: break-word&quot;&gt;&amp;nbsp;&amp;nbsp;&amp;nbsp;&amp;nbsp;&amp;nbsp;&amp;nbsp;&amp;nbsp;&amp;nbsp;&amp;nbsp;&amp;nbsp;&amp;nbsp;&amp;nbsp;newcap&amp;nbsp;&lt;/span&gt;&lt;span style=&quot;margin: 0px ; padding: 0px ; outline: 0px ; max-width: 100% ; box-sizing: border-box ; word-wrap: break-word&quot;&gt;=&lt;/span&gt;&lt;span style=&quot;margin: 0px ; padding: 0px ; outline: 0px ; max-width: 100% ; box-sizing: border-box ; word-wrap: break-word&quot;&gt;&amp;nbsp;doublecap&lt;/span&gt;&lt;br style=&quot;margin: 0px ; padding: 0px ; outline: 0px ; max-width: 100% ; box-sizing: border-box ; word-wrap: break-word&quot;&gt;&lt;span style=&quot;margin: 0px ; padding: 0px ; outline: 0px ; max-width: 100% ; box-sizing: border-box ; word-wrap: break-word&quot;&gt;&amp;nbsp;&amp;nbsp;&amp;nbsp;&amp;nbsp;&amp;nbsp;&amp;nbsp;&amp;nbsp;&amp;nbsp;&lt;/span&gt;&lt;span style=&quot;margin: 0px ; padding: 0px ; outline: 0px ; max-width: 100% ; box-sizing: border-box ; word-wrap: break-word&quot;&gt;}&lt;/span&gt;&lt;span style=&quot;margin: 0px ; padding: 0px ; outline: 0px ; max-width: 100% ; box-sizing: border-box ; word-wrap: break-word&quot;&gt;&amp;nbsp;&lt;/span&gt;&lt;span style=&quot;margin: 0px ; padding: 0px ; outline: 0px ; max-width: 100% ; box-sizing: border-box ; word-wrap: break-word&quot;&gt;else&lt;/span&gt;&lt;span style=&quot;margin: 0px ; padding: 0px ; outline: 0px ; max-width: 100% ; box-sizing: border-box ; word-wrap: break-word&quot;&gt;&amp;nbsp;&lt;/span&gt;&lt;span style=&quot;margin: 0px ; padding: 0px ; outline: 0px ; max-width: 100% ; box-sizing: border-box ; word-wrap: break-word&quot;&gt;{&lt;/span&gt;&lt;br style=&quot;margin: 0px ; padding: 0px ; outline: 0px ; max-width: 100% ; box-sizing: border-box ; word-wrap: break-word&quot;&gt;&lt;span style=&quot;margin: 0px ; padding: 0px ; outline: 0px ; max-width: 100% ; box-sizing: border-box ; word-wrap: break-word&quot;&gt;&amp;nbsp;&amp;nbsp;&amp;nbsp;&amp;nbsp;&amp;nbsp;&amp;nbsp;&amp;nbsp;&amp;nbsp;&amp;nbsp;&amp;nbsp;&amp;nbsp;&amp;nbsp;&lt;/span&gt;&lt;span style=&quot;margin: 0px ; padding: 0px ; outline: 0px ; max-width: 100% ; box-sizing: border-box ; word-wrap: break-word&quot;&gt;//&amp;nbsp;在原容量的基础上，对原容量&amp;nbsp;*&amp;nbsp;5/4&amp;nbsp;并且加上&amp;nbsp;192&lt;/span&gt;&lt;br style=&quot;margin: 0px ; padding: 0px ; outline: 0px ; max-width: 100% ; box-sizing: border-box ; word-wrap: break-word&quot;&gt;&lt;span style=&quot;margin: 0px ; padding: 0px ; outline: 0px ; max-width: 100% ; box-sizing: border-box ; word-wrap: break-word&quot;&gt;&amp;nbsp;&amp;nbsp;&amp;nbsp;&amp;nbsp;&amp;nbsp;&amp;nbsp;&amp;nbsp;&amp;nbsp;&amp;nbsp;&amp;nbsp;&amp;nbsp;&amp;nbsp;&lt;/span&gt;&lt;span style=&quot;margin: 0px ; padding: 0px ; outline: 0px ; max-width: 100% ; box-sizing: border-box ; word-wrap: break-word&quot;&gt;//&amp;nbsp;循环执行上述操作，直到扩容后的容量已经大于等于预期的新容量为止&lt;/span&gt;&lt;br style=&quot;margin: 0px ; padding: 0px ; outline: 0px ; max-width: 100% ; box-sizing: border-box ; word-wrap: break-word&quot;&gt;&lt;span style=&quot;margin: 0px ; padding: 0px ; outline: 0px ; max-width: 100% ; box-sizing: border-box ; word-wrap: break-word&quot;&gt;&amp;nbsp;&amp;nbsp;&amp;nbsp;&amp;nbsp;&amp;nbsp;&amp;nbsp;&amp;nbsp;&amp;nbsp;&amp;nbsp;&amp;nbsp;&amp;nbsp;&amp;nbsp;&lt;/span&gt;&lt;span style=&quot;margin: 0px ; padding: 0px ; outline: 0px ; max-width: 100% ; box-sizing: border-box ; word-wrap: break-word&quot;&gt;for&lt;/span&gt;&lt;span style=&quot;margin: 0px ; padding: 0px ; outline: 0px ; max-width: 100% ; box-sizing: border-box ; word-wrap: break-word&quot;&gt;&amp;nbsp;&lt;/span&gt;&lt;span style=&quot;margin: 0px ; padding: 0px ; outline: 0px ; max-width: 100% ; box-sizing: border-box ; word-wrap: break-word&quot;&gt;0&lt;/span&gt;&lt;span style=&quot;margin: 0px ; padding: 0px ; outline: 0px ; max-width: 100% ; box-sizing: border-box ; word-wrap: break-word&quot;&gt;&amp;nbsp;&lt;/span&gt;&lt;span style=&quot;margin: 0px ; padding: 0px ; outline: 0px ; max-width: 100% ; box-sizing: border-box ; word-wrap: break-word&quot;&gt;&amp;lt;&lt;/span&gt;&lt;span style=&quot;margin: 0px ; padding: 0px ; outline: 0px ; max-width: 100% ; box-sizing: border-box ; word-wrap: break-word&quot;&gt;&amp;nbsp;newcap&amp;nbsp;&lt;/span&gt;&lt;span style=&quot;margin: 0px ; padding: 0px ; outline: 0px ; max-width: 100% ; box-sizing: border-box ; word-wrap: break-word&quot;&gt;&amp;amp;&amp;amp;&lt;/span&gt;&lt;span style=&quot;margin: 0px ; padding: 0px ; outline: 0px ; max-width: 100% ; box-sizing: border-box ; word-wrap: break-word&quot;&gt;&amp;nbsp;newcap&amp;nbsp;&lt;/span&gt;&lt;span style=&quot;margin: 0px ; padding: 0px ; outline: 0px ; max-width: 100% ; box-sizing: border-box ; word-wrap: break-word&quot;&gt;&amp;lt;&lt;/span&gt;&lt;span style=&quot;margin: 0px ; padding: 0px ; outline: 0px ; max-width: 100% ; box-sizing: border-box ; word-wrap: break-word&quot;&gt;&amp;nbsp;cap&amp;nbsp;&lt;/span&gt;&lt;span style=&quot;margin: 0px ; padding: 0px ; outline: 0px ; max-width: 100% ; box-sizing: border-box ; word-wrap: break-word&quot;&gt;{&lt;/span&gt;&lt;span style=&quot;margin: 0px ; padding: 0px ; outline: 0px ; max-width: 100% ; box-sizing: border-box ; word-wrap: break-word&quot;&gt;&amp;nbsp;&amp;nbsp;&amp;nbsp;&amp;nbsp;&amp;nbsp;&amp;nbsp;&amp;nbsp;&amp;nbsp;&amp;nbsp;&amp;nbsp;&amp;nbsp;&amp;nbsp;&amp;nbsp;&lt;/span&gt;&lt;br style=&quot;margin: 0px ; padding: 0px ; outline: 0px ; max-width: 100% ; box-sizing: border-box ; word-wrap: break-word&quot;&gt;&lt;span style=&quot;margin: 0px ; padding: 0px ; outline: 0px ; max-width: 100% ; box-sizing: border-box ; word-wrap: break-word&quot;&gt;&amp;nbsp;&amp;nbsp;&amp;nbsp;&amp;nbsp;&amp;nbsp;&amp;nbsp;&amp;nbsp;&amp;nbsp;&amp;nbsp;&amp;nbsp;&amp;nbsp;&amp;nbsp;&amp;nbsp;&amp;nbsp;&amp;nbsp;&amp;nbsp;newcap&amp;nbsp;&lt;/span&gt;&lt;span style=&quot;margin: 0px ; padding: 0px ; outline: 0px ; max-width: 100% ; box-sizing: border-box ; word-wrap: break-word&quot;&gt;+=&lt;/span&gt;&lt;span style=&quot;margin: 0px ; padding: 0px ; outline: 0px ; max-width: 100% ; box-sizing: border-box ; word-wrap: break-word&quot;&gt;&amp;nbsp;&lt;/span&gt;&lt;span style=&quot;margin: 0px ; padding: 0px ; outline: 0px ; max-width: 100% ; box-sizing: border-box ; word-wrap: break-word&quot;&gt;(&lt;/span&gt;&lt;span style=&quot;margin: 0px ; padding: 0px ; outline: 0px ; max-width: 100% ; box-sizing: border-box ; word-wrap: break-word&quot;&gt;newcap&amp;nbsp;&lt;/span&gt;&lt;span style=&quot;margin: 0px ; padding: 0px ; outline: 0px ; max-width: 100% ; box-sizing: border-box ; word-wrap: break-word&quot;&gt;+&lt;/span&gt;&lt;span style=&quot;margin: 0px ; padding: 0px ; outline: 0px ; max-width: 100% ; box-sizing: border-box ; word-wrap: break-word&quot;&gt;&amp;nbsp;&lt;/span&gt;&lt;span style=&quot;margin: 0px ; padding: 0px ; outline: 0px ; max-width: 100% ; box-sizing: border-box ; word-wrap: break-word&quot;&gt;3&lt;/span&gt;&lt;span style=&quot;margin: 0px ; padding: 0px ; outline: 0px ; max-width: 100% ; box-sizing: border-box ; word-wrap: break-word&quot;&gt;*&lt;/span&gt;&lt;span style=&quot;margin: 0px ; padding: 0px ; outline: 0px ; max-width: 100% ; box-sizing: border-box ; word-wrap: break-word&quot;&gt;threshold&lt;/span&gt;&lt;span style=&quot;margin: 0px ; padding: 0px ; outline: 0px ; max-width: 100% ; box-sizing: border-box ; word-wrap: break-word&quot;&gt;)&lt;/span&gt;&lt;span style=&quot;margin: 0px ; padding: 0px ; outline: 0px ; max-width: 100% ; box-sizing: border-box ; word-wrap: break-word&quot;&gt;&amp;nbsp;&lt;/span&gt;&lt;span style=&quot;margin: 0px ; padding: 0px ; outline: 0px ; max-width: 100% ; box-sizing: border-box ; word-wrap: break-word&quot;&gt;/&lt;/span&gt;&lt;span style=&quot;margin: 0px ; padding: 0px ; outline: 0px ; max-width: 100% ; box-sizing: border-box ; word-wrap: break-word&quot;&gt;&amp;nbsp;&lt;/span&gt;&lt;span style=&quot;margin: 0px ; padding: 0px ; outline: 0px ; max-width: 100% ; box-sizing: border-box ; word-wrap: break-word&quot;&gt;4&lt;/span&gt;&lt;br style=&quot;margin: 0px ; padding: 0px ; outline: 0px ; max-width: 100% ; box-sizing: border-box ; word-wrap: break-word&quot;&gt;&lt;span style=&quot;margin: 0px ; padding: 0px ; outline: 0px ; max-width: 100% ; box-sizing: border-box ; word-wrap: break-word&quot;&gt;&amp;nbsp;&amp;nbsp;&amp;nbsp;&amp;nbsp;&amp;nbsp;&amp;nbsp;&amp;nbsp;&amp;nbsp;&amp;nbsp;&amp;nbsp;&amp;nbsp;&amp;nbsp;&lt;/span&gt;&lt;span style=&quot;margin: 0px ; padding: 0px ; outline: 0px ; max-width: 100% ; box-sizing: border-box ; word-wrap: break-word&quot;&gt;}&lt;/span&gt;&lt;br style=&quot;margin: 0px ; padding: 0px ; outline: 0px ; max-width: 100% ; box-sizing: border-box ; word-wrap: break-word&quot;&gt;&lt;span style=&quot;margin: 0px ; padding: 0px ; outline: 0px ; max-width: 100% ; box-sizing: border-box ; word-wrap: break-word&quot;&gt;&amp;nbsp;&amp;nbsp;&amp;nbsp;&amp;nbsp;&amp;nbsp;&amp;nbsp;&amp;nbsp;&amp;nbsp;&amp;nbsp;&amp;nbsp;&amp;nbsp;&amp;nbsp;&lt;/span&gt;&lt;span style=&quot;margin: 0px ; padding: 0px ; outline: 0px ; max-width: 100% ; box-sizing: border-box ; word-wrap: break-word&quot;&gt;//&amp;nbsp;倘若数值越界了，则取预期的新容量&amp;nbsp;cap&amp;nbsp;封顶&lt;/span&gt;&lt;br style=&quot;margin: 0px ; padding: 0px ; outline: 0px ; max-width: 100% ; box-sizing: border-box ; word-wrap: break-word&quot;&gt;&lt;span style=&quot;margin: 0px ; padding: 0px ; outline: 0px ; max-width: 100% ; box-sizing: border-box ; word-wrap: break-word&quot;&gt;&amp;nbsp;&amp;nbsp;&amp;nbsp;&amp;nbsp;&amp;nbsp;&amp;nbsp;&amp;nbsp;&amp;nbsp;&amp;nbsp;&amp;nbsp;&amp;nbsp;&amp;nbsp;&lt;/span&gt;&lt;span style=&quot;margin: 0px ; padding: 0px ; outline: 0px ; max-width: 100% ; box-sizing: border-box ; word-wrap: break-word&quot;&gt;if&lt;/span&gt;&lt;span style=&quot;margin: 0px ; padding: 0px ; outline: 0px ; max-width: 100% ; box-sizing: border-box ; word-wrap: break-word&quot;&gt;&amp;nbsp;newcap&amp;nbsp;&lt;/span&gt;&lt;span style=&quot;margin: 0px ; padding: 0px ; outline: 0px ; max-width: 100% ; box-sizing: border-box ; word-wrap: break-word&quot;&gt;&amp;lt;=&lt;/span&gt;&lt;span style=&quot;margin: 0px ; padding: 0px ; outline: 0px ; max-width: 100% ; box-sizing: border-box ; word-wrap: break-word&quot;&gt;&amp;nbsp;&lt;/span&gt;&lt;span style=&quot;margin: 0px ; padding: 0px ; outline: 0px ; max-width: 100% ; box-sizing: border-box ; word-wrap: break-word&quot;&gt;0&lt;/span&gt;&lt;span style=&quot;margin: 0px ; padding: 0px ; outline: 0px ; max-width: 100% ; box-sizing: border-box ; word-wrap: break-word&quot;&gt;&amp;nbsp;&lt;/span&gt;&lt;span style=&quot;margin: 0px ; padding: 0px ; outline: 0px ; max-width: 100% ; box-sizing: border-box ; word-wrap: break-word&quot;&gt;{&lt;/span&gt;&lt;br style=&quot;margin: 0px ; padding: 0px ; outline: 0px ; max-width: 100% ; box-sizing: border-box ; word-wrap: break-word&quot;&gt;&lt;span style=&quot;margin: 0px ; padding: 0px ; outline: 0px ; max-width: 100% ; box-sizing: border-box ; word-wrap: break-word&quot;&gt;&amp;nbsp;&amp;nbsp;&amp;nbsp;&amp;nbsp;&amp;nbsp;&amp;nbsp;&amp;nbsp;&amp;nbsp;&amp;nbsp;&amp;nbsp;&amp;nbsp;&amp;nbsp;&amp;nbsp;&amp;nbsp;&amp;nbsp;&amp;nbsp;newcap&amp;nbsp;&lt;/span&gt;&lt;span style=&quot;margin: 0px ; padding: 0px ; outline: 0px ; max-width: 100% ; box-sizing: border-box ; word-wrap: break-word&quot;&gt;=&lt;/span&gt;&lt;span style=&quot;margin: 0px ; padding: 0px ; outline: 0px ; max-width: 100% ; box-sizing: border-box ; word-wrap: break-word&quot;&gt;&amp;nbsp;cap&lt;/span&gt;&lt;br style=&quot;margin: 0px ; padding: 0px ; outline: 0px ; max-width: 100% ; box-sizing: border-box ; word-wrap: break-word&quot;&gt;&lt;span style=&quot;margin: 0px ; padding: 0px ; outline: 0px ; max-width: 100% ; box-sizing: border-box ; word-wrap: break-word&quot;&gt;&amp;nbsp;&amp;nbsp;&amp;nbsp;&amp;nbsp;&amp;nbsp;&amp;nbsp;&amp;nbsp;&amp;nbsp;&amp;nbsp;&amp;nbsp;&amp;nbsp;&amp;nbsp;&lt;/span&gt;&lt;span style=&quot;margin: 0px ; padding: 0px ; outline: 0px ; max-width: 100% ; box-sizing: border-box ; word-wrap: break-word&quot;&gt;}&lt;/span&gt;&lt;br style=&quot;margin: 0px ; padding: 0px ; outline: 0px ; max-width: 100% ; box-sizing: border-box ; word-wrap: break-word&quot;&gt;&lt;span style=&quot;margin: 0px ; padding: 0px ; outline: 0px ; max-width: 100% ; box-sizing: border-box ; word-wrap: break-word&quot;&gt;&amp;nbsp;&amp;nbsp;&amp;nbsp;&amp;nbsp;&amp;nbsp;&amp;nbsp;&amp;nbsp;&amp;nbsp;&lt;/span&gt;&lt;span style=&quot;margin: 0px ; padding: 0px ; outline: 0px ; max-width: 100% ; box-sizing: border-box ; word-wrap: break-word&quot;&gt;}&lt;/span&gt;&lt;br style=&quot;margin: 0px ; padding: 0px ; outline: 0px ; max-width: 100% ; box-sizing: border-box ; word-wrap: break-word&quot;&gt;&lt;span style=&quot;margin: 0px ; padding: 0px ; outline: 0px ; max-width: 100% ; box-sizing: border-box ; word-wrap: break-word&quot;&gt;&amp;nbsp;&amp;nbsp;&amp;nbsp;&amp;nbsp;&lt;/span&gt;&lt;span style=&quot;margin: 0px ; padding: 0px ; outline: 0px ; max-width: 100% ; box-sizing: border-box ; word-wrap: break-word&quot;&gt;}&lt;/span&gt;&lt;br style=&quot;margin: 0px ; padding: 0px ; outline: 0px ; max-width: 100% ; box-sizing: border-box ; word-wrap: break-word&quot;&gt;&lt;br style=&quot;margin: 0px ; padding: 0px ; outline: 0px ; max-width: 100% ; box-sizing: border-box ; word-wrap: break-word&quot;&gt;&lt;br style=&quot;margin: 0px ; padding: 0px ; outline: 0px ; max-width: 100% ; box-sizing: border-box ; word-wrap: break-word&quot;&gt;&lt;span style=&quot;margin: 0px ; padding: 0px ; outline: 0px ; max-width: 100% ; box-sizing: border-box ; word-wrap: break-word&quot;&gt;&amp;nbsp;&amp;nbsp;&amp;nbsp;&amp;nbsp;&lt;/span&gt;&lt;span style=&quot;margin: 0px ; padding: 0px ; outline: 0px ; max-width: 100% ; box-sizing: border-box ; word-wrap: break-word&quot;&gt;var&lt;/span&gt;&lt;span style=&quot;margin: 0px ; padding: 0px ; outline: 0px ; max-width: 100% ; box-sizing: border-box ; word-wrap: break-word&quot;&gt;&amp;nbsp;overflow&amp;nbsp;&lt;/span&gt;&lt;span style=&quot;margin: 0px ; padding: 0px ; outline: 0px ; max-width: 100% ; box-sizing: border-box ; word-wrap: break-word&quot;&gt;bool&lt;/span&gt;&lt;br style=&quot;margin: 0px ; padding: 0px ; outline: 0px ; max-width: 100% ; box-sizing: border-box ; word-wrap: break-word&quot;&gt;&lt;span style=&quot;margin: 0px ; padding: 0px ; outline: 0px ; max-width: 100% ; box-sizing: border-box ; word-wrap: break-word&quot;&gt;&amp;nbsp;&amp;nbsp;&amp;nbsp;&amp;nbsp;&lt;/span&gt;&lt;span style=&quot;margin: 0px ; padding: 0px ; outline: 0px ; max-width: 100% ; box-sizing: border-box ; word-wrap: break-word&quot;&gt;var&lt;/span&gt;&lt;span style=&quot;margin: 0px ; padding: 0px ; outline: 0px ; max-width: 100% ; box-sizing: border-box ; word-wrap: break-word&quot;&gt;&amp;nbsp;lenmem&lt;/span&gt;&lt;span style=&quot;margin: 0px ; padding: 0px ; outline: 0px ; max-width: 100% ; box-sizing: border-box ; word-wrap: break-word&quot;&gt;,&lt;/span&gt;&lt;span style=&quot;margin: 0px ; padding: 0px ; outline: 0px ; max-width: 100% ; box-sizing: border-box ; word-wrap: break-word&quot;&gt;&amp;nbsp;newlenmem&lt;/span&gt;&lt;span style=&quot;margin: 0px ; padding: 0px ; outline: 0px ; max-width: 100% ; box-sizing: border-box ; word-wrap: break-word&quot;&gt;,&lt;/span&gt;&lt;span style=&quot;margin: 0px ; padding: 0px ; outline: 0px ; max-width: 100% ; box-sizing: border-box ; word-wrap: break-word&quot;&gt;&amp;nbsp;capmem&amp;nbsp;uintptr&lt;/span&gt;&lt;br style=&quot;margin: 0px ; padding: 0px ; outline: 0px ; max-width: 100% ; box-sizing: border-box ; word-wrap: break-word&quot;&gt;&lt;span style=&quot;margin: 0px ; padding: 0px ; outline: 0px ; max-width: 100% ; box-sizing: border-box ; word-wrap: break-word&quot;&gt;&amp;nbsp;&amp;nbsp;&amp;nbsp;&amp;nbsp;&lt;/span&gt;&lt;span style=&quot;margin: 0px ; padding: 0px ; outline: 0px ; max-width: 100% ; box-sizing: border-box ; word-wrap: break-word&quot;&gt;//&amp;nbsp;基于容量，确定新数组容器所需要的内存空间大小&amp;nbsp;capmem&lt;/span&gt;&lt;br style=&quot;margin: 0px ; padding: 0px ; outline: 0px ; max-width: 100% ; box-sizing: border-box ; word-wrap: break-word&quot;&gt;&lt;span style=&quot;margin: 0px ; padding: 0px ; outline: 0px ; max-width: 100% ; box-sizing: border-box ; word-wrap: break-word&quot;&gt;&amp;nbsp;&amp;nbsp;&amp;nbsp;&amp;nbsp;&lt;/span&gt;&lt;span style=&quot;margin: 0px ; padding: 0px ; outline: 0px ; max-width: 100% ; box-sizing: border-box ; word-wrap: break-word&quot;&gt;switch&lt;/span&gt;&lt;span style=&quot;margin: 0px ; padding: 0px ; outline: 0px ; max-width: 100% ; box-sizing: border-box ; word-wrap: break-word&quot;&gt;&amp;nbsp;&lt;/span&gt;&lt;span style=&quot;margin: 0px ; padding: 0px ; outline: 0px ; max-width: 100% ; box-sizing: border-box ; word-wrap: break-word&quot;&gt;{&lt;/span&gt;&lt;br style=&quot;margin: 0px ; padding: 0px ; outline: 0px ; max-width: 100% ; box-sizing: border-box ; word-wrap: break-word&quot;&gt;&lt;span style=&quot;margin: 0px ; padding: 0px ; outline: 0px ; max-width: 100% ; box-sizing: border-box ; word-wrap: break-word&quot;&gt;&amp;nbsp;&amp;nbsp;&amp;nbsp;&amp;nbsp;&lt;/span&gt;&lt;span style=&quot;margin: 0px ; padding: 0px ; outline: 0px ; max-width: 100% ; box-sizing: border-box ; word-wrap: break-word&quot;&gt;//&amp;nbsp;倘若数组元素的大小为&amp;nbsp;1，则新容量大小为&amp;nbsp;1&amp;nbsp;*&amp;nbsp;newcap.&lt;/span&gt;&lt;br style=&quot;margin: 0px ; padding: 0px ; outline: 0px ; max-width: 100% ; box-sizing: border-box ; word-wrap: break-word&quot;&gt;&lt;span style=&quot;margin: 0px ; padding: 0px ; outline: 0px ; max-width: 100% ; box-sizing: border-box ; word-wrap: break-word&quot;&gt;&amp;nbsp;&amp;nbsp;&amp;nbsp;&amp;nbsp;&lt;/span&gt;&lt;span style=&quot;margin: 0px ; padding: 0px ; outline: 0px ; max-width: 100% ; box-sizing: border-box ; word-wrap: break-word&quot;&gt;//&amp;nbsp;同时会针对&amp;nbsp;span&amp;nbsp;class&amp;nbsp;进行取整&lt;/span&gt;&lt;br style=&quot;margin: 0px ; padding: 0px ; outline: 0px ; max-width: 100% ; box-sizing: border-box ; word-wrap: break-word&quot;&gt;&lt;span style=&quot;margin: 0px ; padding: 0px ; outline: 0px ; max-width: 100% ; box-sizing: border-box ; word-wrap: break-word&quot;&gt;&amp;nbsp;&amp;nbsp;&amp;nbsp;&amp;nbsp;&lt;/span&gt;&lt;span style=&quot;margin: 0px ; padding: 0px ; outline: 0px ; max-width: 100% ; box-sizing: border-box ; word-wrap: break-word&quot;&gt;case&lt;/span&gt;&lt;span style=&quot;margin: 0px ; padding: 0px ; outline: 0px ; max-width: 100% ; box-sizing: border-box ; word-wrap: break-word&quot;&gt;&amp;nbsp;et&lt;/span&gt;&lt;span style=&quot;margin: 0px ; padding: 0px ; outline: 0px ; max-width: 100% ; box-sizing: border-box ; word-wrap: break-word&quot;&gt;.&lt;/span&gt;&lt;span style=&quot;margin: 0px ; padding: 0px ; outline: 0px ; max-width: 100% ; box-sizing: border-box ; word-wrap: break-word&quot;&gt;size&amp;nbsp;&lt;/span&gt;&lt;span style=&quot;margin: 0px ; padding: 0px ; outline: 0px ; max-width: 100% ; box-sizing: border-box ; word-wrap: break-word&quot;&gt;==&lt;/span&gt;&lt;span style=&quot;margin: 0px ; padding: 0px ; outline: 0px ; max-width: 100% ; box-sizing: border-box ; word-wrap: break-word&quot;&gt;&amp;nbsp;&lt;/span&gt;&lt;span style=&quot;margin: 0px ; padding: 0px ; outline: 0px ; max-width: 100% ; box-sizing: border-box ; word-wrap: break-word&quot;&gt;1&lt;/span&gt;&lt;span style=&quot;margin: 0px ; padding: 0px ; outline: 0px ; max-width: 100% ; box-sizing: border-box ; word-wrap: break-word&quot;&gt;:&lt;/span&gt;&lt;br style=&quot;margin: 0px ; padding: 0px ; outline: 0px ; max-width: 100% ; box-sizing: border-box ; word-wrap: break-word&quot;&gt;&lt;span style=&quot;margin: 0px ; padding: 0px ; outline: 0px ; max-width: 100% ; box-sizing: border-box ; word-wrap: break-word&quot;&gt;&amp;nbsp;&amp;nbsp;&amp;nbsp;&amp;nbsp;&amp;nbsp;&amp;nbsp;&amp;nbsp;&amp;nbsp;lenmem&amp;nbsp;&lt;/span&gt;&lt;span style=&quot;margin: 0px ; padding: 0px ; outline: 0px ; max-width: 100% ; box-sizing: border-box ; word-wrap: break-word&quot;&gt;=&lt;/span&gt;&lt;span style=&quot;margin: 0px ; padding: 0px ; outline: 0px ; max-width: 100% ; box-sizing: border-box ; word-wrap: break-word&quot;&gt;&amp;nbsp;uintptr&lt;/span&gt;&lt;span style=&quot;margin: 0px ; padding: 0px ; outline: 0px ; max-width: 100% ; box-sizing: border-box ; word-wrap: break-word&quot;&gt;(&lt;/span&gt;&lt;span style=&quot;margin: 0px ; padding: 0px ; outline: 0px ; max-width: 100% ; box-sizing: border-box ; word-wrap: break-word&quot;&gt;old&lt;/span&gt;&lt;span style=&quot;margin: 0px ; padding: 0px ; outline: 0px ; max-width: 100% ; box-sizing: border-box ; word-wrap: break-word&quot;&gt;.&lt;/span&gt;&lt;span style=&quot;margin: 0px ; padding: 0px ; outline: 0px ; max-width: 100% ; box-sizing: border-box ; word-wrap: break-word&quot;&gt;len&lt;/span&gt;&lt;span style=&quot;margin: 0px ; padding: 0px ; outline: 0px ; max-width: 100% ; box-sizing: border-box ; word-wrap: break-word&quot;&gt;)&lt;/span&gt;&lt;br style=&quot;margin: 0px ; padding: 0px ; outline: 0px ; max-width: 100% ; box-sizing: border-box ; word-wrap: break-word&quot;&gt;&lt;span style=&quot;margin: 0px ; padding: 0px ; outline: 0px ; max-width: 100% ; box-sizing: border-box ; word-wrap: break-word&quot;&gt;&amp;nbsp;&amp;nbsp;&amp;nbsp;&amp;nbsp;&amp;nbsp;&amp;nbsp;&amp;nbsp;&amp;nbsp;newlenmem&amp;nbsp;&lt;/span&gt;&lt;span style=&quot;margin: 0px ; padding: 0px ; outline: 0px ; max-width: 100% ; box-sizing: border-box ; word-wrap: break-word&quot;&gt;=&lt;/span&gt;&lt;span style=&quot;margin: 0px ; padding: 0px ; outline: 0px ; max-width: 100% ; box-sizing: border-box ; word-wrap: break-word&quot;&gt;&amp;nbsp;uintptr&lt;/span&gt;&lt;span style=&quot;margin: 0px ; padding: 0px ; outline: 0px ; max-width: 100% ; box-sizing: border-box ; word-wrap: break-word&quot;&gt;(&lt;/span&gt;&lt;span style=&quot;margin: 0px ; padding: 0px ; outline: 0px ; max-width: 100% ; box-sizing: border-box ; word-wrap: break-word&quot;&gt;cap&lt;/span&gt;&lt;span style=&quot;margin: 0px ; padding: 0px ; outline: 0px ; max-width: 100% ; box-sizing: border-box ; word-wrap: break-word&quot;&gt;)&lt;/span&gt;&lt;br style=&quot;margin: 0px ; padding: 0px ; outline: 0px ; max-width: 100% ; box-sizing: border-box ; word-wrap: break-word&quot;&gt;&lt;span style=&quot;margin: 0px ; padding: 0px ; outline: 0px ; max-width: 100% ; box-sizing: border-box ; word-wrap: break-word&quot;&gt;&amp;nbsp;&amp;nbsp;&amp;nbsp;&amp;nbsp;&amp;nbsp;&amp;nbsp;&amp;nbsp;&amp;nbsp;capmem&amp;nbsp;&lt;/span&gt;&lt;span style=&quot;margin: 0px ; padding: 0px ; outline: 0px ; max-width: 100% ; box-sizing: border-box ; word-wrap: break-word&quot;&gt;=&lt;/span&gt;&lt;span style=&quot;margin: 0px ; padding: 0px ; outline: 0px ; max-width: 100% ; box-sizing: border-box ; word-wrap: break-word&quot;&gt;&amp;nbsp;roundupsize&lt;/span&gt;&lt;span style=&quot;margin: 0px ; padding: 0px ; outline: 0px ; max-width: 100% ; box-sizing: border-box ; word-wrap: break-word&quot;&gt;(&lt;/span&gt;&lt;span style=&quot;margin: 0px ; padding: 0px ; outline: 0px ; max-width: 100% ; box-sizing: border-box ; word-wrap: break-word&quot;&gt;uintptr&lt;/span&gt;&lt;span style=&quot;margin: 0px ; padding: 0px ; outline: 0px ; max-width: 100% ; box-sizing: border-box ; word-wrap: break-word&quot;&gt;(&lt;/span&gt;&lt;span style=&quot;margin: 0px ; padding: 0px ; outline: 0px ; max-width: 100% ; box-sizing: border-box ; word-wrap: break-word&quot;&gt;newcap&lt;/span&gt;&lt;span style=&quot;margin: 0px ; padding: 0px ; outline: 0px ; max-width: 100% ; box-sizing: border-box ; word-wrap: break-word&quot;&gt;))&lt;/span&gt;&lt;br style=&quot;margin: 0px ; padding: 0px ; outline: 0px ; max-width: 100% ; box-sizing: border-box ; word-wrap: break-word&quot;&gt;&lt;span style=&quot;margin: 0px ; padding: 0px ; outline: 0px ; max-width: 100% ; box-sizing: border-box ; word-wrap: break-word&quot;&gt;&amp;nbsp;&amp;nbsp;&amp;nbsp;&amp;nbsp;&amp;nbsp;&amp;nbsp;&amp;nbsp;&amp;nbsp;overflow&amp;nbsp;&lt;/span&gt;&lt;span style=&quot;margin: 0px ; padding: 0px ; outline: 0px ; max-width: 100% ; box-sizing: border-box ; word-wrap: break-word&quot;&gt;=&lt;/span&gt;&lt;span style=&quot;margin: 0px ; padding: 0px ; outline: 0px ; max-width: 100% ; box-sizing: border-box ; word-wrap: break-word&quot;&gt;&amp;nbsp;uintptr&lt;/span&gt;&lt;span style=&quot;margin: 0px ; padding: 0px ; outline: 0px ; max-width: 100% ; box-sizing: border-box ; word-wrap: break-word&quot;&gt;(&lt;/span&gt;&lt;span style=&quot;margin: 0px ; padding: 0px ; outline: 0px ; max-width: 100% ; box-sizing: border-box ; word-wrap: break-word&quot;&gt;newcap&lt;/span&gt;&lt;span style=&quot;margin: 0px ; padding: 0px ; outline: 0px ; max-width: 100% ; box-sizing: border-box ; word-wrap: break-word&quot;&gt;)&lt;/span&gt;&lt;span style=&quot;margin: 0px ; padding: 0px ; outline: 0px ; max-width: 100% ; box-sizing: border-box ; word-wrap: break-word&quot;&gt;&amp;nbsp;&lt;/span&gt;&lt;span style=&quot;margin: 0px ; padding: 0px ; outline: 0px ; max-width: 100% ; box-sizing: border-box ; word-wrap: break-word&quot;&gt;&amp;gt;&lt;/span&gt;&lt;span style=&quot;margin: 0px ; padding: 0px ; outline: 0px ; max-width: 100% ; box-sizing: border-box ; word-wrap: break-word&quot;&gt;&amp;nbsp;maxAlloc&lt;/span&gt;&lt;br style=&quot;margin: 0px ; padding: 0px ; outline: 0px ; max-width: 100% ; box-sizing: border-box ; word-wrap: break-word&quot;&gt;&lt;span style=&quot;margin: 0px ; padding: 0px ; outline: 0px ; max-width: 100% ; box-sizing: border-box ; word-wrap: break-word&quot;&gt;&amp;nbsp;&amp;nbsp;&amp;nbsp;&amp;nbsp;&amp;nbsp;&amp;nbsp;&amp;nbsp;&amp;nbsp;newcap&amp;nbsp;&lt;/span&gt;&lt;span style=&quot;margin: 0px ; padding: 0px ; outline: 0px ; max-width: 100% ; box-sizing: border-box ; word-wrap: break-word&quot;&gt;=&lt;/span&gt;&lt;span style=&quot;margin: 0px ; padding: 0px ; outline: 0px ; max-width: 100% ; box-sizing: border-box ; word-wrap: break-word&quot;&gt;&amp;nbsp;&lt;/span&gt;&lt;span style=&quot;margin: 0px ; padding: 0px ; outline: 0px ; max-width: 100% ; box-sizing: border-box ; word-wrap: break-word&quot;&gt;int&lt;/span&gt;&lt;span style=&quot;margin: 0px ; padding: 0px ; outline: 0px ; max-width: 100% ; box-sizing: border-box ; word-wrap: break-word&quot;&gt;(&lt;/span&gt;&lt;span style=&quot;margin: 0px ; padding: 0px ; outline: 0px ; max-width: 100% ; box-sizing: border-box ; word-wrap: break-word&quot;&gt;capmem&lt;/span&gt;&lt;span style=&quot;margin: 0px ; padding: 0px ; outline: 0px ; max-width: 100% ; box-sizing: border-box ; word-wrap: break-word&quot;&gt;)&lt;/span&gt;&lt;br style=&quot;margin: 0px ; padding: 0px ; outline: 0px ; max-width: 100% ; box-sizing: border-box ; word-wrap: break-word&quot;&gt;&lt;span style=&quot;margin: 0px ; padding: 0px ; outline: 0px ; max-width: 100% ; box-sizing: border-box ; word-wrap: break-word&quot;&gt;&amp;nbsp;&amp;nbsp;&amp;nbsp;&amp;nbsp;&lt;/span&gt;&lt;span style=&quot;margin: 0px ; padding: 0px ; outline: 0px ; max-width: 100% ; box-sizing: border-box ; word-wrap: break-word&quot;&gt;//&amp;nbsp;倘若数组元素为指针类型，则根据指针占用空间结合元素个数计算空间大小&lt;/span&gt;&lt;br style=&quot;margin: 0px ; padding: 0px ; outline: 0px ; max-width: 100% ; box-sizing: border-box ; word-wrap: break-word&quot;&gt;&lt;span style=&quot;margin: 0px ; padding: 0px ; outline: 0px ; max-width: 100% ; box-sizing: border-box ; word-wrap: break-word&quot;&gt;&amp;nbsp;&amp;nbsp;&amp;nbsp;&amp;nbsp;&lt;/span&gt;&lt;span style=&quot;margin: 0px ; padding: 0px ; outline: 0px ; max-width: 100% ; box-sizing: border-box ; word-wrap: break-word&quot;&gt;//&amp;nbsp;并会针对&amp;nbsp;span&amp;nbsp;class&amp;nbsp;进行取整&lt;/span&gt;&lt;br style=&quot;margin: 0px ; padding: 0px ; outline: 0px ; max-width: 100% ; box-sizing: border-box ; word-wrap: break-word&quot;&gt;&lt;span style=&quot;margin: 0px ; padding: 0px ; outline: 0px ; max-width: 100% ; box-sizing: border-box ; word-wrap: break-word&quot;&gt;&amp;nbsp;&amp;nbsp;&amp;nbsp;&amp;nbsp;&lt;/span&gt;&lt;span style=&quot;margin: 0px ; padding: 0px ; outline: 0px ; max-width: 100% ; box-sizing: border-box ; word-wrap: break-word&quot;&gt;case&lt;/span&gt;&lt;span style=&quot;margin: 0px ; padding: 0px ; outline: 0px ; max-width: 100% ; box-sizing: border-box ; word-wrap: break-word&quot;&gt;&amp;nbsp;et&lt;/span&gt;&lt;span style=&quot;margin: 0px ; padding: 0px ; outline: 0px ; max-width: 100% ; box-sizing: border-box ; word-wrap: break-word&quot;&gt;.&lt;/span&gt;&lt;span style=&quot;margin: 0px ; padding: 0px ; outline: 0px ; max-width: 100% ; box-sizing: border-box ; word-wrap: break-word&quot;&gt;size&amp;nbsp;&lt;/span&gt;&lt;span style=&quot;margin: 0px ; padding: 0px ; outline: 0px ; max-width: 100% ; box-sizing: border-box ; word-wrap: break-word&quot;&gt;==&lt;/span&gt;&lt;span style=&quot;margin: 0px ; padding: 0px ; outline: 0px ; max-width: 100% ; box-sizing: border-box ; word-wrap: break-word&quot;&gt;&amp;nbsp;goarch&lt;/span&gt;&lt;span style=&quot;margin: 0px ; padding: 0px ; outline: 0px ; max-width: 100% ; box-sizing: border-box ; word-wrap: break-word&quot;&gt;.&lt;/span&gt;&lt;span style=&quot;margin: 0px ; padding: 0px ; outline: 0px ; max-width: 100% ; box-sizing: border-box ; word-wrap: break-word&quot;&gt;PtrSize&lt;/span&gt;&lt;span style=&quot;margin: 0px ; padding: 0px ; outline: 0px ; max-width: 100% ; box-sizing: border-box ; word-wrap: break-word&quot;&gt;:&lt;/span&gt;&lt;br style=&quot;margin: 0px ; padding: 0px ; outline: 0px ; max-width: 100% ; box-sizing: border-box ; word-wrap: break-word&quot;&gt;&lt;span style=&quot;margin: 0px ; padding: 0px ; outline: 0px ; max-width: 100% ; box-sizing: border-box ; word-wrap: break-word&quot;&gt;&amp;nbsp;&amp;nbsp;&amp;nbsp;&amp;nbsp;&amp;nbsp;&amp;nbsp;&amp;nbsp;&amp;nbsp;lenmem&amp;nbsp;&lt;/span&gt;&lt;span style=&quot;margin: 0px ; padding: 0px ; outline: 0px ; max-width: 100% ; box-sizing: border-box ; word-wrap: break-word&quot;&gt;=&lt;/span&gt;&lt;span style=&quot;margin: 0px ; padding: 0px ; outline: 0px ; max-width: 100% ; box-sizing: border-box ; word-wrap: break-word&quot;&gt;&amp;nbsp;uintptr&lt;/span&gt;&lt;span style=&quot;margin: 0px ; padding: 0px ; outline: 0px ; max-width: 100% ; box-sizing: border-box ; word-wrap: break-word&quot;&gt;(&lt;/span&gt;&lt;span style=&quot;margin: 0px ; padding: 0px ; outline: 0px ; max-width: 100% ; box-sizing: border-box ; word-wrap: break-word&quot;&gt;old&lt;/span&gt;&lt;span style=&quot;margin: 0px ; padding: 0px ; outline: 0px ; max-width: 100% ; box-sizing: border-box ; word-wrap: break-word&quot;&gt;.&lt;/span&gt;&lt;span style=&quot;margin: 0px ; padding: 0px ; outline: 0px ; max-width: 100% ; box-sizing: border-box ; word-wrap: break-word&quot;&gt;len&lt;/span&gt;&lt;span style=&quot;margin: 0px ; padding: 0px ; outline: 0px ; max-width: 100% ; box-sizing: border-box ; word-wrap: break-word&quot;&gt;)&lt;/span&gt;&lt;span style=&quot;margin: 0px ; padding: 0px ; outline: 0px ; max-width: 100% ; box-sizing: border-box ; word-wrap: break-word&quot;&gt;&amp;nbsp;&lt;/span&gt;&lt;span style=&quot;margin: 0px ; padding: 0px ; outline: 0px ; max-width: 100% ; box-sizing: border-box ; word-wrap: break-word&quot;&gt;*&lt;/span&gt;&lt;span style=&quot;margin: 0px ; padding: 0px ; outline: 0px ; max-width: 100% ; box-sizing: border-box ; word-wrap: break-word&quot;&gt;&amp;nbsp;goarch&lt;/span&gt;&lt;span style=&quot;margin: 0px ; padding: 0px ; outline: 0px ; max-width: 100% ; box-sizing: border-box ; word-wrap: break-word&quot;&gt;.&lt;/span&gt;&lt;span style=&quot;margin: 0px ; padding: 0px ; outline: 0px ; max-width: 100% ; box-sizing: border-box ; word-wrap: break-word&quot;&gt;PtrSize&lt;/span&gt;&lt;br style=&quot;margin: 0px ; padding: 0px ; outline: 0px ; max-width: 100% ; box-sizing: border-box ; word-wrap: break-word&quot;&gt;&lt;span style=&quot;margin: 0px ; padding: 0px ; outline: 0px ; max-width: 100% ; box-sizing: border-box ; word-wrap: break-word&quot;&gt;&amp;nbsp;&amp;nbsp;&amp;nbsp;&amp;nbsp;&amp;nbsp;&amp;nbsp;&amp;nbsp;&amp;nbsp;newlenmem&amp;nbsp;&lt;/span&gt;&lt;span style=&quot;margin: 0px ; padding: 0px ; outline: 0px ; max-width: 100% ; box-sizing: border-box ; word-wrap: break-word&quot;&gt;=&lt;/span&gt;&lt;span style=&quot;margin: 0px ; padding: 0px ; outline: 0px ; max-width: 100% ; box-sizing: border-box ; word-wrap: break-word&quot;&gt;&amp;nbsp;uintptr&lt;/span&gt;&lt;span style=&quot;margin: 0px ; padding: 0px ; outline: 0px ; max-width: 100% ; box-sizing: border-box ; word-wrap: break-word&quot;&gt;(&lt;/span&gt;&lt;span style=&quot;margin: 0px ; padding: 0px ; outline: 0px ; max-width: 100% ; box-sizing: border-box ; word-wrap: break-word&quot;&gt;cap&lt;/span&gt;&lt;span style=&quot;margin: 0px ; padding: 0px ; outline: 0px ; max-width: 100% ; box-sizing: border-box ; word-wrap: break-word&quot;&gt;)&lt;/span&gt;&lt;span style=&quot;margin: 0px ; padding: 0px ; outline: 0px ; max-width: 100% ; box-sizing: border-box ; word-wrap: break-word&quot;&gt;&amp;nbsp;&lt;/span&gt;&lt;span style=&quot;margin: 0px ; padding: 0px ; outline: 0px ; max-width: 100% ; box-sizing: border-box ; word-wrap: break-word&quot;&gt;*&lt;/span&gt;&lt;span style=&quot;margin: 0px ; padding: 0px ; outline: 0px ; max-width: 100% ; box-sizing: border-box ; word-wrap: break-word&quot;&gt;&amp;nbsp;goarch&lt;/span&gt;&lt;span style=&quot;margin: 0px ; padding: 0px ; outline: 0px ; max-width: 100% ; box-sizing: border-box ; word-wrap: break-word&quot;&gt;.&lt;/span&gt;&lt;span style=&quot;margin: 0px ; padding: 0px ; outline: 0px ; max-width: 100% ; box-sizing: border-box ; word-wrap: break-word&quot;&gt;PtrSize&lt;/span&gt;&lt;br style=&quot;margin: 0px ; padding: 0px ; outline: 0px ; max-width: 100% ; box-sizing: border-box ; word-wrap: break-word&quot;&gt;&lt;span style=&quot;margin: 0px ; padding: 0px ; outline: 0px ; max-width: 100% ; box-sizing: border-box ; word-wrap: break-word&quot;&gt;&amp;nbsp;&amp;nbsp;&amp;nbsp;&amp;nbsp;&amp;nbsp;&amp;nbsp;&amp;nbsp;&amp;nbsp;capmem&amp;nbsp;&lt;/span&gt;&lt;span style=&quot;margin: 0px ; padding: 0px ; outline: 0px ; max-width: 100% ; box-sizing: border-box ; word-wrap: break-word&quot;&gt;=&lt;/span&gt;&lt;span style=&quot;margin: 0px ; padding: 0px ; outline: 0px ; max-width: 100% ; box-sizing: border-box ; word-wrap: break-word&quot;&gt;&amp;nbsp;roundupsize&lt;/span&gt;&lt;span style=&quot;margin: 0px ; padding: 0px ; outline: 0px ; max-width: 100% ; box-sizing: border-box ; word-wrap: break-word&quot;&gt;(&lt;/span&gt;&lt;span style=&quot;margin: 0px ; padding: 0px ; outline: 0px ; max-width: 100% ; box-sizing: border-box ; word-wrap: break-word&quot;&gt;uintptr&lt;/span&gt;&lt;span style=&quot;margin: 0px ; padding: 0px ; outline: 0px ; max-width: 100% ; box-sizing: border-box ; word-wrap: break-word&quot;&gt;(&lt;/span&gt;&lt;span style=&quot;margin: 0px ; padding: 0px ; outline: 0px ; max-width: 100% ; box-sizing: border-box ; word-wrap: break-word&quot;&gt;newcap&lt;/span&gt;&lt;span style=&quot;margin: 0px ; padding: 0px ; outline: 0px ; max-width: 100% ; box-sizing: border-box ; word-wrap: break-word&quot;&gt;)&lt;/span&gt;&lt;span style=&quot;margin: 0px ; padding: 0px ; outline: 0px ; max-width: 100% ; box-sizing: border-box ; word-wrap: break-word&quot;&gt;&amp;nbsp;&lt;/span&gt;&lt;span style=&quot;margin: 0px ; padding: 0px ; outline: 0px ; max-width: 100% ; box-sizing: border-box ; word-wrap: break-word&quot;&gt;*&lt;/span&gt;&lt;span style=&quot;margin: 0px ; padding: 0px ; outline: 0px ; max-width: 100% ; box-sizing: border-box ; word-wrap: break-word&quot;&gt;&amp;nbsp;goarch&lt;/span&gt;&lt;span style=&quot;margin: 0px ; padding: 0px ; outline: 0px ; max-width: 100% ; box-sizing: border-box ; word-wrap: break-word&quot;&gt;.&lt;/span&gt;&lt;span style=&quot;margin: 0px ; padding: 0px ; outline: 0px ; max-width: 100% ; box-sizing: border-box ; word-wrap: break-word&quot;&gt;PtrSize&lt;/span&gt;&lt;span style=&quot;margin: 0px ; padding: 0px ; outline: 0px ; max-width: 100% ; box-sizing: border-box ; word-wrap: break-word&quot;&gt;)&lt;/span&gt;&lt;br style=&quot;margin: 0px ; padding: 0px ; outline: 0px ; max-width: 100% ; box-sizing: border-box ; word-wrap: break-word&quot;&gt;&lt;span style=&quot;margin: 0px ; padding: 0px ; outline: 0px ; max-width: 100% ; box-sizing: border-box ; word-wrap: break-word&quot;&gt;&amp;nbsp;&amp;nbsp;&amp;nbsp;&amp;nbsp;&amp;nbsp;&amp;nbsp;&amp;nbsp;&amp;nbsp;overflow&amp;nbsp;&lt;/span&gt;&lt;span style=&quot;margin: 0px ; padding: 0px ; outline: 0px ; max-width: 100% ; box-sizing: border-box ; word-wrap: break-word&quot;&gt;=&lt;/span&gt;&lt;span style=&quot;margin: 0px ; padding: 0px ; outline: 0px ; max-width: 100% ; box-sizing: border-box ; word-wrap: break-word&quot;&gt;&amp;nbsp;uintptr&lt;/span&gt;&lt;span style=&quot;margin: 0px ; padding: 0px ; outline: 0px ; max-width: 100% ; box-sizing: border-box ; word-wrap: break-word&quot;&gt;(&lt;/span&gt;&lt;span style=&quot;margin: 0px ; padding: 0px ; outline: 0px ; max-width: 100% ; box-sizing: border-box ; word-wrap: break-word&quot;&gt;newcap&lt;/span&gt;&lt;span style=&quot;margin: 0px ; padding: 0px ; outline: 0px ; max-width: 100% ; box-sizing: border-box ; word-wrap: break-word&quot;&gt;)&lt;/span&gt;&lt;span style=&quot;margin: 0px ; padding: 0px ; outline: 0px ; max-width: 100% ; box-sizing: border-box ; word-wrap: break-word&quot;&gt;&amp;nbsp;&lt;/span&gt;&lt;span style=&quot;margin: 0px ; padding: 0px ; outline: 0px ; max-width: 100% ; box-sizing: border-box ; word-wrap: break-word&quot;&gt;&amp;gt;&lt;/span&gt;&lt;span style=&quot;margin: 0px ; padding: 0px ; outline: 0px ; max-width: 100% ; box-sizing: border-box ; word-wrap: break-word&quot;&gt;&amp;nbsp;maxAlloc&lt;/span&gt;&lt;span style=&quot;margin: 0px ; padding: 0px ; outline: 0px ; max-width: 100% ; box-sizing: border-box ; word-wrap: break-word&quot;&gt;/&lt;/span&gt;&lt;span style=&quot;margin: 0px ; padding: 0px ; outline: 0px ; max-width: 100% ; box-sizing: border-box ; word-wrap: break-word&quot;&gt;goarch&lt;/span&gt;&lt;span style=&quot;margin: 0px ; padding: 0px ; outline: 0px ; max-width: 100% ; box-sizing: border-box ; word-wrap: break-word&quot;&gt;.&lt;/span&gt;&lt;span style=&quot;margin: 0px ; padding: 0px ; outline: 0px ; max-width: 100% ; box-sizing: border-box ; word-wrap: break-word&quot;&gt;PtrSize&lt;/span&gt;&lt;br style=&quot;margin: 0px ; padding: 0px ; outline: 0px ; max-width: 100% ; box-sizing: border-box ; word-wrap: break-word&quot;&gt;&lt;span style=&quot;margin: 0px ; padding: 0px ; outline: 0px ; max-width: 100% ; box-sizing: border-box ; word-wrap: break-word&quot;&gt;&amp;nbsp;&amp;nbsp;&amp;nbsp;&amp;nbsp;&amp;nbsp;&amp;nbsp;&amp;nbsp;&amp;nbsp;newcap&amp;nbsp;&lt;/span&gt;&lt;span style=&quot;margin: 0px ; padding: 0px ; outline: 0px ; max-width: 100% ; box-sizing: border-box ; word-wrap: break-word&quot;&gt;=&lt;/span&gt;&lt;span style=&quot;margin: 0px ; padding: 0px ; outline: 0px ; max-width: 100% ; box-sizing: border-box ; word-wrap: break-word&quot;&gt;&amp;nbsp;&lt;/span&gt;&lt;span style=&quot;margin: 0px ; padding: 0px ; outline: 0px ; max-width: 100% ; box-sizing: border-box ; word-wrap: break-word&quot;&gt;int&lt;/span&gt;&lt;span style=&quot;margin: 0px ; padding: 0px ; outline: 0px ; max-width: 100% ; box-sizing: border-box ; word-wrap: break-word&quot;&gt;(&lt;/span&gt;&lt;span style=&quot;margin: 0px ; padding: 0px ; outline: 0px ; max-width: 100% ; box-sizing: border-box ; word-wrap: break-word&quot;&gt;capmem&amp;nbsp;&lt;/span&gt;&lt;span style=&quot;margin: 0px ; padding: 0px ; outline: 0px ; max-width: 100% ; box-sizing: border-box ; word-wrap: break-word&quot;&gt;/&lt;/span&gt;&lt;span style=&quot;margin: 0px ; padding: 0px ; outline: 0px ; max-width: 100% ; box-sizing: border-box ; word-wrap: break-word&quot;&gt;&amp;nbsp;goarch&lt;/span&gt;&lt;span style=&quot;margin: 0px ; padding: 0px ; outline: 0px ; max-width: 100% ; box-sizing: border-box ; word-wrap: break-word&quot;&gt;.&lt;/span&gt;&lt;span style=&quot;margin: 0px ; padding: 0px ; outline: 0px ; max-width: 100% ; box-sizing: border-box ; word-wrap: break-word&quot;&gt;PtrSize&lt;/span&gt;&lt;span style=&quot;margin: 0px ; padding: 0px ; outline: 0px ; max-width: 100% ; box-sizing: border-box ; word-wrap: break-word&quot;&gt;)&lt;/span&gt;&lt;br style=&quot;margin: 0px ; padding: 0px ; outline: 0px ; max-width: 100% ; box-sizing: border-box ; word-wrap: break-word&quot;&gt;&lt;span style=&quot;margin: 0px ; padding: 0px ; outline: 0px ; max-width: 100% ; box-sizing: border-box ; word-wrap: break-word&quot;&gt;&amp;nbsp;&amp;nbsp;&amp;nbsp;&amp;nbsp;&lt;/span&gt;&lt;span style=&quot;margin: 0px ; padding: 0px ; outline: 0px ; max-width: 100% ; box-sizing: border-box ; word-wrap: break-word&quot;&gt;//&amp;nbsp;倘若元素大小为&amp;nbsp;2&amp;nbsp;的指数，则直接通过位运算进行空间大小的计算&amp;nbsp;&amp;nbsp;&amp;nbsp;&lt;/span&gt;&lt;br style=&quot;margin: 0px ; padding: 0px ; outline: 0px ; max-width: 100% ; box-sizing: border-box ; word-wrap: break-word&quot;&gt;&lt;span style=&quot;margin: 0px ; padding: 0px ; outline: 0px ; max-width: 100% ; box-sizing: border-box ; word-wrap: break-word&quot;&gt;&amp;nbsp;&amp;nbsp;&amp;nbsp;&amp;nbsp;&lt;/span&gt;&lt;span style=&quot;margin: 0px ; padding: 0px ; outline: 0px ; max-width: 100% ; box-sizing: border-box ; word-wrap: break-word&quot;&gt;case&lt;/span&gt;&lt;span style=&quot;margin: 0px ; padding: 0px ; outline: 0px ; max-width: 100% ; box-sizing: border-box ; word-wrap: break-word&quot;&gt;&amp;nbsp;isPowerOfTwo&lt;/span&gt;&lt;span style=&quot;margin: 0px ; padding: 0px ; outline: 0px ; max-width: 100% ; box-sizing: border-box ; word-wrap: break-word&quot;&gt;(&lt;/span&gt;&lt;span style=&quot;margin: 0px ; padding: 0px ; outline: 0px ; max-width: 100% ; box-sizing: border-box ; word-wrap: break-word&quot;&gt;et&lt;/span&gt;&lt;span style=&quot;margin: 0px ; padding: 0px ; outline: 0px ; max-width: 100% ; box-sizing: border-box ; word-wrap: break-word&quot;&gt;.&lt;/span&gt;&lt;span style=&quot;margin: 0px ; padding: 0px ; outline: 0px ; max-width: 100% ; box-sizing: border-box ; word-wrap: break-word&quot;&gt;size&lt;/span&gt;&lt;span style=&quot;margin: 0px ; padding: 0px ; outline: 0px ; max-width: 100% ; box-sizing: border-box ; word-wrap: break-word&quot;&gt;):&lt;/span&gt;&lt;br style=&quot;margin: 0px ; padding: 0px ; outline: 0px ; max-width: 100% ; box-sizing: border-box ; word-wrap: break-word&quot;&gt;&lt;span style=&quot;margin: 0px ; padding: 0px ; outline: 0px ; max-width: 100% ; box-sizing: border-box ; word-wrap: break-word&quot;&gt;&amp;nbsp;&amp;nbsp;&amp;nbsp;&amp;nbsp;&amp;nbsp;&amp;nbsp;&amp;nbsp;&amp;nbsp;&lt;/span&gt;&lt;span style=&quot;margin: 0px ; padding: 0px ; outline: 0px ; max-width: 100% ; box-sizing: border-box ; word-wrap: break-word&quot;&gt;var&lt;/span&gt;&lt;span style=&quot;margin: 0px ; padding: 0px ; outline: 0px ; max-width: 100% ; box-sizing: border-box ; word-wrap: break-word&quot;&gt;&amp;nbsp;shift&amp;nbsp;uintptr&lt;/span&gt;&lt;br style=&quot;margin: 0px ; padding: 0px ; outline: 0px ; max-width: 100% ; box-sizing: border-box ; word-wrap: break-word&quot;&gt;&lt;span style=&quot;margin: 0px ; padding: 0px ; outline: 0px ; max-width: 100% ; box-sizing: border-box ; word-wrap: break-word&quot;&gt;&amp;nbsp;&amp;nbsp;&amp;nbsp;&amp;nbsp;&amp;nbsp;&amp;nbsp;&amp;nbsp;&amp;nbsp;&lt;/span&gt;&lt;span style=&quot;margin: 0px ; padding: 0px ; outline: 0px ; max-width: 100% ; box-sizing: border-box ; word-wrap: break-word&quot;&gt;if&lt;/span&gt;&lt;span style=&quot;margin: 0px ; padding: 0px ; outline: 0px ; max-width: 100% ; box-sizing: border-box ; word-wrap: break-word&quot;&gt;&amp;nbsp;goarch&lt;/span&gt;&lt;span style=&quot;margin: 0px ; padding: 0px ; outline: 0px ; max-width: 100% ; box-sizing: border-box ; word-wrap: break-word&quot;&gt;.&lt;/span&gt;&lt;span style=&quot;margin: 0px ; padding: 0px ; outline: 0px ; max-width: 100% ; box-sizing: border-box ; word-wrap: break-word&quot;&gt;PtrSize&lt;/span&gt;&lt;span style=&quot;margin: 0px ; padding: 0px ; outline: 0px ; max-width: 100% ; box-sizing: border-box ; word-wrap: break-word&quot;&gt;&amp;nbsp;&lt;/span&gt;&lt;span style=&quot;margin: 0px ; padding: 0px ; outline: 0px ; max-width: 100% ; box-sizing: border-box ; word-wrap: break-word&quot;&gt;==&lt;/span&gt;&lt;span style=&quot;margin: 0px ; padding: 0px ; outline: 0px ; max-width: 100% ; box-sizing: border-box ; word-wrap: break-word&quot;&gt;&amp;nbsp;&lt;/span&gt;&lt;span style=&quot;margin: 0px ; padding: 0px ; outline: 0px ; max-width: 100% ; box-sizing: border-box ; word-wrap: break-word&quot;&gt;8&lt;/span&gt;&lt;span style=&quot;margin: 0px ; padding: 0px ; outline: 0px ; max-width: 100% ; box-sizing: border-box ; word-wrap: break-word&quot;&gt;&amp;nbsp;&lt;/span&gt;&lt;span style=&quot;margin: 0px ; padding: 0px ; outline: 0px ; max-width: 100% ; box-sizing: border-box ; word-wrap: break-word&quot;&gt;{&lt;/span&gt;&lt;br style=&quot;margin: 0px ; padding: 0px ; outline: 0px ; max-width: 100% ; box-sizing: border-box ; word-wrap: break-word&quot;&gt;&lt;span style=&quot;margin: 0px ; padding: 0px ; outline: 0px ; max-width: 100% ; box-sizing: border-box ; word-wrap: break-word&quot;&gt;&amp;nbsp;&amp;nbsp;&amp;nbsp;&amp;nbsp;&amp;nbsp;&amp;nbsp;&amp;nbsp;&amp;nbsp;&amp;nbsp;&amp;nbsp;&amp;nbsp;&amp;nbsp;&lt;/span&gt;&lt;span style=&quot;margin: 0px ; padding: 0px ; outline: 0px ; max-width: 100% ; box-sizing: border-box ; word-wrap: break-word&quot;&gt;//&amp;nbsp;Mask&amp;nbsp;shift&amp;nbsp;for&amp;nbsp;better&amp;nbsp;code&amp;nbsp;generation.&lt;/span&gt;&lt;br style=&quot;margin: 0px ; padding: 0px ; outline: 0px ; max-width: 100% ; box-sizing: border-box ; word-wrap: break-word&quot;&gt;&lt;span style=&quot;margin: 0px ; padding: 0px ; outline: 0px ; max-width: 100% ; box-sizing: border-box ; word-wrap: break-word&quot;&gt;&amp;nbsp;&amp;nbsp;&amp;nbsp;&amp;nbsp;&amp;nbsp;&amp;nbsp;&amp;nbsp;&amp;nbsp;&amp;nbsp;&amp;nbsp;&amp;nbsp;&amp;nbsp;shift&amp;nbsp;&lt;/span&gt;&lt;span style=&quot;margin: 0px ; padding: 0px ; outline: 0px ; max-width: 100% ; box-sizing: border-box ; word-wrap: break-word&quot;&gt;=&lt;/span&gt;&lt;span style=&quot;margin: 0px ; padding: 0px ; outline: 0px ; max-width: 100% ; box-sizing: border-box ; word-wrap: break-word&quot;&gt;&amp;nbsp;uintptr&lt;/span&gt;&lt;span style=&quot;margin: 0px ; padding: 0px ; outline: 0px ; max-width: 100% ; box-sizing: border-box ; word-wrap: break-word&quot;&gt;(&lt;/span&gt;&lt;span style=&quot;margin: 0px ; padding: 0px ; outline: 0px ; max-width: 100% ; box-sizing: border-box ; word-wrap: break-word&quot;&gt;sys&lt;/span&gt;&lt;span style=&quot;margin: 0px ; padding: 0px ; outline: 0px ; max-width: 100% ; box-sizing: border-box ; word-wrap: break-word&quot;&gt;.&lt;/span&gt;&lt;span style=&quot;margin: 0px ; padding: 0px ; outline: 0px ; max-width: 100% ; box-sizing: border-box ; word-wrap: break-word&quot;&gt;Ctz64&lt;/span&gt;&lt;span style=&quot;margin: 0px ; padding: 0px ; outline: 0px ; max-width: 100% ; box-sizing: border-box ; word-wrap: break-word&quot;&gt;(&lt;/span&gt;&lt;span style=&quot;margin: 0px ; padding: 0px ; outline: 0px ; max-width: 100% ; box-sizing: border-box ; word-wrap: break-word&quot;&gt;uint64&lt;/span&gt;&lt;span style=&quot;margin: 0px ; padding: 0px ; outline: 0px ; max-width: 100% ; box-sizing: border-box ; word-wrap: break-word&quot;&gt;(&lt;/span&gt;&lt;span style=&quot;margin: 0px ; padding: 0px ; outline: 0px ; max-width: 100% ; box-sizing: border-box ; word-wrap: break-word&quot;&gt;et&lt;/span&gt;&lt;span style=&quot;margin: 0px ; padding: 0px ; outline: 0px ; max-width: 100% ; box-sizing: border-box ; word-wrap: break-word&quot;&gt;.&lt;/span&gt;&lt;span style=&quot;margin: 0px ; padding: 0px ; outline: 0px ; max-width: 100% ; box-sizing: border-box ; word-wrap: break-word&quot;&gt;size&lt;/span&gt;&lt;span style=&quot;margin: 0px ; padding: 0px ; outline: 0px ; max-width: 100% ; box-sizing: border-box ; word-wrap: break-word&quot;&gt;)))&lt;/span&gt;&lt;span style=&quot;margin: 0px ; padding: 0px ; outline: 0px ; max-width: 100% ; box-sizing: border-box ; word-wrap: break-word&quot;&gt;&amp;nbsp;&lt;/span&gt;&lt;span style=&quot;margin: 0px ; padding: 0px ; outline: 0px ; max-width: 100% ; box-sizing: border-box ; word-wrap: break-word&quot;&gt;&amp;amp;&lt;/span&gt;&lt;span style=&quot;margin: 0px ; padding: 0px ; outline: 0px ; max-width: 100% ; box-sizing: border-box ; word-wrap: break-word&quot;&gt;&amp;nbsp;&lt;/span&gt;&lt;span style=&quot;margin: 0px ; padding: 0px ; outline: 0px ; max-width: 100% ; box-sizing: border-box ; word-wrap: break-word&quot;&gt;63&lt;/span&gt;&lt;br style=&quot;margin: 0px ; padding: 0px ; outline: 0px ; max-width: 100% ; box-sizing: border-box ; word-wrap: break-word&quot;&gt;&lt;span style=&quot;margin: 0px ; padding: 0px ; outline: 0px ; max-width: 100% ; box-sizing: border-box ; word-wrap: break-word&quot;&gt;&amp;nbsp;&amp;nbsp;&amp;nbsp;&amp;nbsp;&amp;nbsp;&amp;nbsp;&amp;nbsp;&amp;nbsp;&lt;/span&gt;&lt;span style=&quot;margin: 0px ; padding: 0px ; outline: 0px ; max-width: 100% ; box-sizing: border-box ; word-wrap: break-word&quot;&gt;}&lt;/span&gt;&lt;span style=&quot;margin: 0px ; padding: 0px ; outline: 0px ; max-width: 100% ; box-sizing: border-box ; word-wrap: break-word&quot;&gt;&amp;nbsp;&lt;/span&gt;&lt;span style=&quot;margin: 0px ; padding: 0px ; outline: 0px ; max-width: 100% ; box-sizing: border-box ; word-wrap: break-word&quot;&gt;else&lt;/span&gt;&lt;span style=&quot;margin: 0px ; padding: 0px ; outline: 0px ; max-width: 100% ; box-sizing: border-box ; word-wrap: break-word&quot;&gt;&amp;nbsp;&lt;/span&gt;&lt;span style=&quot;margin: 0px ; padding: 0px ; outline: 0px ; max-width: 100% ; box-sizing: border-box ; word-wrap: break-word&quot;&gt;{&lt;/span&gt;&lt;br style=&quot;margin: 0px ; padding: 0px ; outline: 0px ; max-width: 100% ; box-sizing: border-box ; word-wrap: break-word&quot;&gt;&lt;span style=&quot;margin: 0px ; padding: 0px ; outline: 0px ; max-width: 100% ; box-sizing: border-box ; word-wrap: break-word&quot;&gt;&amp;nbsp;&amp;nbsp;&amp;nbsp;&amp;nbsp;&amp;nbsp;&amp;nbsp;&amp;nbsp;&amp;nbsp;&amp;nbsp;&amp;nbsp;&amp;nbsp;&amp;nbsp;shift&amp;nbsp;&lt;/span&gt;&lt;span style=&quot;margin: 0px ; padding: 0px ; outline: 0px ; max-width: 100% ; box-sizing: border-box ; word-wrap: break-word&quot;&gt;=&lt;/span&gt;&lt;span style=&quot;margin: 0px ; padding: 0px ; outline: 0px ; max-width: 100% ; box-sizing: border-box ; word-wrap: break-word&quot;&gt;&amp;nbsp;uintptr&lt;/span&gt;&lt;span style=&quot;margin: 0px ; padding: 0px ; outline: 0px ; max-width: 100% ; box-sizing: border-box ; word-wrap: break-word&quot;&gt;(&lt;/span&gt;&lt;span style=&quot;margin: 0px ; padding: 0px ; outline: 0px ; max-width: 100% ; box-sizing: border-box ; word-wrap: break-word&quot;&gt;sys&lt;/span&gt;&lt;span style=&quot;margin: 0px ; padding: 0px ; outline: 0px ; max-width: 100% ; box-sizing: border-box ; word-wrap: break-word&quot;&gt;.&lt;/span&gt;&lt;span style=&quot;margin: 0px ; padding: 0px ; outline: 0px ; max-width: 100% ; box-sizing: border-box ; word-wrap: break-word&quot;&gt;Ctz32&lt;/span&gt;&lt;span style=&quot;margin: 0px ; padding: 0px ; outline: 0px ; max-width: 100% ; box-sizing: border-box ; word-wrap: break-word&quot;&gt;(&lt;/span&gt;&lt;span style=&quot;margin: 0px ; padding: 0px ; outline: 0px ; max-width: 100% ; box-sizing: border-box ; word-wrap: break-word&quot;&gt;uint32&lt;/span&gt;&lt;span style=&quot;margin: 0px ; padding: 0px ; outline: 0px ; max-width: 100% ; box-sizing: border-box ; word-wrap: break-word&quot;&gt;(&lt;/span&gt;&lt;span style=&quot;margin: 0px ; padding: 0px ; outline: 0px ; max-width: 100% ; box-sizing: border-box ; word-wrap: break-word&quot;&gt;et&lt;/span&gt;&lt;span style=&quot;margin: 0px ; padding: 0px ; outline: 0px ; max-width: 100% ; box-sizing: border-box ; word-wrap: break-word&quot;&gt;.&lt;/span&gt;&lt;span style=&quot;margin: 0px ; padding: 0px ; outline: 0px ; max-width: 100% ; box-sizing: border-box ; word-wrap: break-word&quot;&gt;size&lt;/span&gt;&lt;span style=&quot;margin: 0px ; padding: 0px ; outline: 0px ; max-width: 100% ; box-sizing: border-box ; word-wrap: break-word&quot;&gt;)))&lt;/span&gt;&lt;span style=&quot;margin: 0px ; padding: 0px ; outline: 0px ; max-width: 100% ; box-sizing: border-box ; word-wrap: break-word&quot;&gt;&amp;nbsp;&lt;/span&gt;&lt;span style=&quot;margin: 0px ; padding: 0px ; outline: 0px ; max-width: 100% ; box-sizing: border-box ; word-wrap: break-word&quot;&gt;&amp;amp;&lt;/span&gt;&lt;span style=&quot;margin: 0px ; padding: 0px ; outline: 0px ; max-width: 100% ; box-sizing: border-box ; word-wrap: break-word&quot;&gt;&amp;nbsp;&lt;/span&gt;&lt;span style=&quot;margin: 0px ; padding: 0px ; outline: 0px ; max-width: 100% ; box-sizing: border-box ; word-wrap: break-word&quot;&gt;31&lt;/span&gt;&lt;br style=&quot;margin: 0px ; padding: 0px ; outline: 0px ; max-width: 100% ; box-sizing: border-box ; word-wrap: break-word&quot;&gt;&lt;span style=&quot;margin: 0px ; padding: 0px ; outline: 0px ; max-width: 100% ; box-sizing: border-box ; word-wrap: break-word&quot;&gt;&amp;nbsp;&amp;nbsp;&amp;nbsp;&amp;nbsp;&amp;nbsp;&amp;nbsp;&amp;nbsp;&amp;nbsp;&lt;/span&gt;&lt;span style=&quot;margin: 0px ; padding: 0px ; outline: 0px ; max-width: 100% ; box-sizing: border-box ; word-wrap: break-word&quot;&gt;}&lt;/span&gt;&lt;br style=&quot;margin: 0px ; padding: 0px ; outline: 0px ; max-width: 100% ; box-sizing: border-box ; word-wrap: break-word&quot;&gt;&lt;span style=&quot;margin: 0px ; padding: 0px ; outline: 0px ; max-width: 100% ; box-sizing: border-box ; word-wrap: break-word&quot;&gt;&amp;nbsp;&amp;nbsp;&amp;nbsp;&amp;nbsp;&amp;nbsp;&amp;nbsp;&amp;nbsp;&amp;nbsp;lenmem&amp;nbsp;&lt;/span&gt;&lt;span style=&quot;margin: 0px ; padding: 0px ; outline: 0px ; max-width: 100% ; box-sizing: border-box ; word-wrap: break-word&quot;&gt;=&lt;/span&gt;&lt;span style=&quot;margin: 0px ; padding: 0px ; outline: 0px ; max-width: 100% ; box-sizing: border-box ; word-wrap: break-word&quot;&gt;&amp;nbsp;uintptr&lt;/span&gt;&lt;span style=&quot;margin: 0px ; padding: 0px ; outline: 0px ; max-width: 100% ; box-sizing: border-box ; word-wrap: break-word&quot;&gt;(&lt;/span&gt;&lt;span style=&quot;margin: 0px ; padding: 0px ; outline: 0px ; max-width: 100% ; box-sizing: border-box ; word-wrap: break-word&quot;&gt;old&lt;/span&gt;&lt;span style=&quot;margin: 0px ; padding: 0px ; outline: 0px ; max-width: 100% ; box-sizing: border-box ; word-wrap: break-word&quot;&gt;.&lt;/span&gt;&lt;span style=&quot;margin: 0px ; padding: 0px ; outline: 0px ; max-width: 100% ; box-sizing: border-box ; word-wrap: break-word&quot;&gt;len&lt;/span&gt;&lt;span style=&quot;margin: 0px ; padding: 0px ; outline: 0px ; max-width: 100% ; box-sizing: border-box ; word-wrap: break-word&quot;&gt;)&lt;/span&gt;&lt;span style=&quot;margin: 0px ; padding: 0px ; outline: 0px ; max-width: 100% ; box-sizing: border-box ; word-wrap: break-word&quot;&gt;&amp;nbsp;&lt;/span&gt;&lt;span style=&quot;margin: 0px ; padding: 0px ; outline: 0px ; max-width: 100% ; box-sizing: border-box ; word-wrap: break-word&quot;&gt;&amp;lt;&amp;lt;&lt;/span&gt;&lt;span style=&quot;margin: 0px ; padding: 0px ; outline: 0px ; max-width: 100% ; box-sizing: border-box ; word-wrap: break-word&quot;&gt;&amp;nbsp;shift&lt;/span&gt;&lt;br style=&quot;margin: 0px ; padding: 0px ; outline: 0px ; max-width: 100% ; box-sizing: border-box ; word-wrap: break-word&quot;&gt;&lt;span style=&quot;margin: 0px ; padding: 0px ; outline: 0px ; max-width: 100% ; box-sizing: border-box ; word-wrap: break-word&quot;&gt;&amp;nbsp;&amp;nbsp;&amp;nbsp;&amp;nbsp;&amp;nbsp;&amp;nbsp;&amp;nbsp;&amp;nbsp;newlenmem&amp;nbsp;&lt;/span&gt;&lt;span style=&quot;margin: 0px ; padding: 0px ; outline: 0px ; max-width: 100% ; box-sizing: border-box ; word-wrap: break-word&quot;&gt;=&lt;/span&gt;&lt;span style=&quot;margin: 0px ; padding: 0px ; outline: 0px ; max-width: 100% ; box-sizing: border-box ; word-wrap: break-word&quot;&gt;&amp;nbsp;uintptr&lt;/span&gt;&lt;span style=&quot;margin: 0px ; padding: 0px ; outline: 0px ; max-width: 100% ; box-sizing: border-box ; word-wrap: break-word&quot;&gt;(&lt;/span&gt;&lt;span style=&quot;margin: 0px ; padding: 0px ; outline: 0px ; max-width: 100% ; box-sizing: border-box ; word-wrap: break-word&quot;&gt;cap&lt;/span&gt;&lt;span style=&quot;margin: 0px ; padding: 0px ; outline: 0px ; max-width: 100% ; box-sizing: border-box ; word-wrap: break-word&quot;&gt;)&lt;/span&gt;&lt;span style=&quot;margin: 0px ; padding: 0px ; outline: 0px ; max-width: 100% ; box-sizing: border-box ; word-wrap: break-word&quot;&gt;&amp;nbsp;&lt;/span&gt;&lt;span style=&quot;margin: 0px ; padding: 0px ; outline: 0px ; max-width: 100% ; box-sizing: border-box ; word-wrap: break-word&quot;&gt;&amp;lt;&amp;lt;&lt;/span&gt;&lt;span style=&quot;margin: 0px ; padding: 0px ; outline: 0px ; max-width: 100% ; box-sizing: border-box ; word-wrap: break-word&quot;&gt;&amp;nbsp;shift&lt;/span&gt;&lt;br style=&quot;margin: 0px ; padding: 0px ; outline: 0px ; max-width: 100% ; box-sizing: border-box ; word-wrap: break-word&quot;&gt;&lt;span style=&quot;margin: 0px ; padding: 0px ; outline: 0px ; max-width: 100% ; box-sizing: border-box ; word-wrap: break-word&quot;&gt;&amp;nbsp;&amp;nbsp;&amp;nbsp;&amp;nbsp;&amp;nbsp;&amp;nbsp;&amp;nbsp;&amp;nbsp;capmem&amp;nbsp;&lt;/span&gt;&lt;span style=&quot;margin: 0px ; padding: 0px ; outline: 0px ; max-width: 100% ; box-sizing: border-box ; word-wrap: break-word&quot;&gt;=&lt;/span&gt;&lt;span style=&quot;margin: 0px ; padding: 0px ; outline: 0px ; max-width: 100% ; box-sizing: border-box ; word-wrap: break-word&quot;&gt;&amp;nbsp;roundupsize&lt;/span&gt;&lt;span style=&quot;margin: 0px ; padding: 0px ; outline: 0px ; max-width: 100% ; box-sizing: border-box ; word-wrap: break-word&quot;&gt;(&lt;/span&gt;&lt;span style=&quot;margin: 0px ; padding: 0px ; outline: 0px ; max-width: 100% ; box-sizing: border-box ; word-wrap: break-word&quot;&gt;uintptr&lt;/span&gt;&lt;span style=&quot;margin: 0px ; padding: 0px ; outline: 0px ; max-width: 100% ; box-sizing: border-box ; word-wrap: break-word&quot;&gt;(&lt;/span&gt;&lt;span style=&quot;margin: 0px ; padding: 0px ; outline: 0px ; max-width: 100% ; box-sizing: border-box ; word-wrap: break-word&quot;&gt;newcap&lt;/span&gt;&lt;span style=&quot;margin: 0px ; padding: 0px ; outline: 0px ; max-width: 100% ; box-sizing: border-box ; word-wrap: break-word&quot;&gt;)&lt;/span&gt;&lt;span style=&quot;margin: 0px ; padding: 0px ; outline: 0px ; max-width: 100% ; box-sizing: border-box ; word-wrap: break-word&quot;&gt;&amp;nbsp;&lt;/span&gt;&lt;span style=&quot;margin: 0px ; padding: 0px ; outline: 0px ; max-width: 100% ; box-sizing: border-box ; word-wrap: break-word&quot;&gt;&amp;lt;&amp;lt;&lt;/span&gt;&lt;span style=&quot;margin: 0px ; padding: 0px ; outline: 0px ; max-width: 100% ; box-sizing: border-box ; word-wrap: break-word&quot;&gt;&amp;nbsp;shift&lt;/span&gt;&lt;span style=&quot;margin: 0px ; padding: 0px ; outline: 0px ; max-width: 100% ; box-sizing: border-box ; word-wrap: break-word&quot;&gt;)&lt;/span&gt;&lt;br style=&quot;margin: 0px ; padding: 0px ; outline: 0px ; max-width: 100% ; box-sizing: border-box ; word-wrap: break-word&quot;&gt;&lt;span style=&quot;margin: 0px ; padding: 0px ; outline: 0px ; max-width: 100% ; box-sizing: border-box ; word-wrap: break-word&quot;&gt;&amp;nbsp;&amp;nbsp;&amp;nbsp;&amp;nbsp;&amp;nbsp;&amp;nbsp;&amp;nbsp;&amp;nbsp;overflow&amp;nbsp;&lt;/span&gt;&lt;span style=&quot;margin: 0px ; padding: 0px ; outline: 0px ; max-width: 100% ; box-sizing: border-box ; word-wrap: break-word&quot;&gt;=&lt;/span&gt;&lt;span style=&quot;margin: 0px ; padding: 0px ; outline: 0px ; max-width: 100% ; box-sizing: border-box ; word-wrap: break-word&quot;&gt;&amp;nbsp;uintptr&lt;/span&gt;&lt;span style=&quot;margin: 0px ; padding: 0px ; outline: 0px ; max-width: 100% ; box-sizing: border-box ; word-wrap: break-word&quot;&gt;(&lt;/span&gt;&lt;span style=&quot;margin: 0px ; padding: 0px ; outline: 0px ; max-width: 100% ; box-sizing: border-box ; word-wrap: break-word&quot;&gt;newcap&lt;/span&gt;&lt;span style=&quot;margin: 0px ; padding: 0px ; outline: 0px ; max-width: 100% ; box-sizing: border-box ; word-wrap: break-word&quot;&gt;)&lt;/span&gt;&lt;span style=&quot;margin: 0px ; padding: 0px ; outline: 0px ; max-width: 100% ; box-sizing: border-box ; word-wrap: break-word&quot;&gt;&amp;nbsp;&lt;/span&gt;&lt;span style=&quot;margin: 0px ; padding: 0px ; outline: 0px ; max-width: 100% ; box-sizing: border-box ; word-wrap: break-word&quot;&gt;&amp;gt;&lt;/span&gt;&lt;span style=&quot;margin: 0px ; padding: 0px ; outline: 0px ; max-width: 100% ; box-sizing: border-box ; word-wrap: break-word&quot;&gt;&amp;nbsp;&lt;/span&gt;&lt;span style=&quot;margin: 0px ; padding: 0px ; outline: 0px ; max-width: 100% ; box-sizing: border-box ; word-wrap: break-word&quot;&gt;(&lt;/span&gt;&lt;span style=&quot;margin: 0px ; padding: 0px ; outline: 0px ; max-width: 100% ; box-sizing: border-box ; word-wrap: break-word&quot;&gt;maxAlloc&amp;nbsp;&lt;/span&gt;&lt;span style=&quot;margin: 0px ; padding: 0px ; outline: 0px ; max-width: 100% ; box-sizing: border-box ; word-wrap: break-word&quot;&gt;&amp;gt;&amp;gt;&lt;/span&gt;&lt;span style=&quot;margin: 0px ; padding: 0px ; outline: 0px ; max-width: 100% ; box-sizing: border-box ; word-wrap: break-word&quot;&gt;&amp;nbsp;shift&lt;/span&gt;&lt;span style=&quot;margin: 0px ; padding: 0px ; outline: 0px ; max-width: 100% ; box-sizing: border-box ; word-wrap: break-word&quot;&gt;)&lt;/span&gt;&lt;br style=&quot;margin: 0px ; padding: 0px ; outline: 0px ; max-width: 100% ; box-sizing: border-box ; word-wrap: break-word&quot;&gt;&lt;span style=&quot;margin: 0px ; padding: 0px ; outline: 0px ; max-width: 100% ; box-sizing: border-box ; word-wrap: break-word&quot;&gt;&amp;nbsp;&amp;nbsp;&amp;nbsp;&amp;nbsp;&amp;nbsp;&amp;nbsp;&amp;nbsp;&amp;nbsp;newcap&amp;nbsp;&lt;/span&gt;&lt;span style=&quot;margin: 0px ; padding: 0px ; outline: 0px ; max-width: 100% ; box-sizing: border-box ; word-wrap: break-word&quot;&gt;=&lt;/span&gt;&lt;span style=&quot;margin: 0px ; padding: 0px ; outline: 0px ; max-width: 100% ; box-sizing: border-box ; word-wrap: break-word&quot;&gt;&amp;nbsp;&lt;/span&gt;&lt;span style=&quot;margin: 0px ; padding: 0px ; outline: 0px ; max-width: 100% ; box-sizing: border-box ; word-wrap: break-word&quot;&gt;int&lt;/span&gt;&lt;span style=&quot;margin: 0px ; padding: 0px ; outline: 0px ; max-width: 100% ; box-sizing: border-box ; word-wrap: break-word&quot;&gt;(&lt;/span&gt;&lt;span style=&quot;margin: 0px ; padding: 0px ; outline: 0px ; max-width: 100% ; box-sizing: border-box ; word-wrap: break-word&quot;&gt;capmem&amp;nbsp;&lt;/span&gt;&lt;span style=&quot;margin: 0px ; padding: 0px ; outline: 0px ; max-width: 100% ; box-sizing: border-box ; word-wrap: break-word&quot;&gt;&amp;gt;&amp;gt;&lt;/span&gt;&lt;span style=&quot;margin: 0px ; padding: 0px ; outline: 0px ; max-width: 100% ; box-sizing: border-box ; word-wrap: break-word&quot;&gt;&amp;nbsp;shift&lt;/span&gt;&lt;span style=&quot;margin: 0px ; padding: 0px ; outline: 0px ; max-width: 100% ; box-sizing: border-box ; word-wrap: break-word&quot;&gt;)&lt;/span&gt;&lt;br style=&quot;margin: 0px ; padding: 0px ; outline: 0px ; max-width: 100% ; box-sizing: border-box ; word-wrap: break-word&quot;&gt;&lt;span style=&quot;margin: 0px ; padding: 0px ; outline: 0px ; max-width: 100% ; box-sizing: border-box ; word-wrap: break-word&quot;&gt;&amp;nbsp;&amp;nbsp;&amp;nbsp;&amp;nbsp;&lt;/span&gt;&lt;span style=&quot;margin: 0px ; padding: 0px ; outline: 0px ; max-width: 100% ; box-sizing: border-box ; word-wrap: break-word&quot;&gt;//&amp;nbsp;兜底分支：根据元素大小乘以元素个数&lt;/span&gt;&lt;br style=&quot;margin: 0px ; padding: 0px ; outline: 0px ; max-width: 100% ; box-sizing: border-box ; word-wrap: break-word&quot;&gt;&lt;span style=&quot;margin: 0px ; padding: 0px ; outline: 0px ; max-width: 100% ; box-sizing: border-box ; word-wrap: break-word&quot;&gt;&amp;nbsp;&amp;nbsp;&amp;nbsp;&amp;nbsp;&lt;/span&gt;&lt;span style=&quot;margin: 0px ; padding: 0px ; outline: 0px ; max-width: 100% ; box-sizing: border-box ; word-wrap: break-word&quot;&gt;//&amp;nbsp;再针对&amp;nbsp;span&amp;nbsp;class&amp;nbsp;进行取整&amp;nbsp;&amp;nbsp;&amp;nbsp;&amp;nbsp;&amp;nbsp;&lt;/span&gt;&lt;br style=&quot;margin: 0px ; padding: 0px ; outline: 0px ; max-width: 100% ; box-sizing: border-box ; word-wrap: break-word&quot;&gt;&lt;span style=&quot;margin: 0px ; padding: 0px ; outline: 0px ; max-width: 100% ; box-sizing: border-box ; word-wrap: break-word&quot;&gt;&amp;nbsp;&amp;nbsp;&amp;nbsp;&amp;nbsp;&lt;/span&gt;&lt;span style=&quot;margin: 0px ; padding: 0px ; outline: 0px ; max-width: 100% ; box-sizing: border-box ; word-wrap: break-word&quot;&gt;default&lt;/span&gt;&lt;span style=&quot;margin: 0px ; padding: 0px ; outline: 0px ; max-width: 100% ; box-sizing: border-box ; word-wrap: break-word&quot;&gt;:&lt;/span&gt;&lt;br style=&quot;margin: 0px ; padding: 0px ; outline: 0px ; max-width: 100% ; box-sizing: border-box ; word-wrap: break-word&quot;&gt;&lt;span style=&quot;margin: 0px ; padding: 0px ; outline: 0px ; max-width: 100% ; box-sizing: border-box ; word-wrap: break-word&quot;&gt;&amp;nbsp;&amp;nbsp;&amp;nbsp;&amp;nbsp;&amp;nbsp;&amp;nbsp;&amp;nbsp;&amp;nbsp;lenmem&amp;nbsp;&lt;/span&gt;&lt;span style=&quot;margin: 0px ; padding: 0px ; outline: 0px ; max-width: 100% ; box-sizing: border-box ; word-wrap: break-word&quot;&gt;=&lt;/span&gt;&lt;span style=&quot;margin: 0px ; padding: 0px ; outline: 0px ; max-width: 100% ; box-sizing: border-box ; word-wrap: break-word&quot;&gt;&amp;nbsp;uintptr&lt;/span&gt;&lt;span style=&quot;margin: 0px ; padding: 0px ; outline: 0px ; max-width: 100% ; box-sizing: border-box ; word-wrap: break-word&quot;&gt;(&lt;/span&gt;&lt;span style=&quot;margin: 0px ; padding: 0px ; outline: 0px ; max-width: 100% ; box-sizing: border-box ; word-wrap: break-word&quot;&gt;old&lt;/span&gt;&lt;span style=&quot;margin: 0px ; padding: 0px ; outline: 0px ; max-width: 100% ; box-sizing: border-box ; word-wrap: break-word&quot;&gt;.&lt;/span&gt;&lt;span style=&quot;margin: 0px ; padding: 0px ; outline: 0px ; max-width: 100% ; box-sizing: border-box ; word-wrap: break-word&quot;&gt;len&lt;/span&gt;&lt;span style=&quot;margin: 0px ; padding: 0px ; outline: 0px ; max-width: 100% ; box-sizing: border-box ; word-wrap: break-word&quot;&gt;)&lt;/span&gt;&lt;span style=&quot;margin: 0px ; padding: 0px ; outline: 0px ; max-width: 100% ; box-sizing: border-box ; word-wrap: break-word&quot;&gt;&amp;nbsp;&lt;/span&gt;&lt;span style=&quot;margin: 0px ; padding: 0px ; outline: 0px ; max-width: 100% ; box-sizing: border-box ; word-wrap: break-word&quot;&gt;*&lt;/span&gt;&lt;span style=&quot;margin: 0px ; padding: 0px ; outline: 0px ; max-width: 100% ; box-sizing: border-box ; word-wrap: break-word&quot;&gt;&amp;nbsp;et&lt;/span&gt;&lt;span style=&quot;margin: 0px ; padding: 0px ; outline: 0px ; max-width: 100% ; box-sizing: border-box ; word-wrap: break-word&quot;&gt;.&lt;/span&gt;&lt;span style=&quot;margin: 0px ; padding: 0px ; outline: 0px ; max-width: 100% ; box-sizing: border-box ; word-wrap: break-word&quot;&gt;size&lt;/span&gt;&lt;br style=&quot;margin: 0px ; padding: 0px ; outline: 0px ; max-width: 100% ; box-sizing: border-box ; word-wrap: break-word&quot;&gt;&lt;span style=&quot;margin: 0px ; padding: 0px ; outline: 0px ; max-width: 100% ; box-sizing: border-box ; word-wrap: break-word&quot;&gt;&amp;nbsp;&amp;nbsp;&amp;nbsp;&amp;nbsp;&amp;nbsp;&amp;nbsp;&amp;nbsp;&amp;nbsp;newlenmem&amp;nbsp;&lt;/span&gt;&lt;span style=&quot;margin: 0px ; padding: 0px ; outline: 0px ; max-width: 100% ; box-sizing: border-box ; word-wrap: break-word&quot;&gt;=&lt;/span&gt;&lt;span style=&quot;margin: 0px ; padding: 0px ; outline: 0px ; max-width: 100% ; box-sizing: border-box ; word-wrap: break-word&quot;&gt;&amp;nbsp;uintptr&lt;/span&gt;&lt;span style=&quot;margin: 0px ; padding: 0px ; outline: 0px ; max-width: 100% ; box-sizing: border-box ; word-wrap: break-word&quot;&gt;(&lt;/span&gt;&lt;span style=&quot;margin: 0px ; padding: 0px ; outline: 0px ; max-width: 100% ; box-sizing: border-box ; word-wrap: break-word&quot;&gt;cap&lt;/span&gt;&lt;span style=&quot;margin: 0px ; padding: 0px ; outline: 0px ; max-width: 100% ; box-sizing: border-box ; word-wrap: break-word&quot;&gt;)&lt;/span&gt;&lt;span style=&quot;margin: 0px ; padding: 0px ; outline: 0px ; max-width: 100% ; box-sizing: border-box ; word-wrap: break-word&quot;&gt;&amp;nbsp;&lt;/span&gt;&lt;span style=&quot;margin: 0px ; padding: 0px ; outline: 0px ; max-width: 100% ; box-sizing: border-box ; word-wrap: break-word&quot;&gt;*&lt;/span&gt;&lt;span style=&quot;margin: 0px ; padding: 0px ; outline: 0px ; max-width: 100% ; box-sizing: border-box ; word-wrap: break-word&quot;&gt;&amp;nbsp;et&lt;/span&gt;&lt;span style=&quot;margin: 0px ; padding: 0px ; outline: 0px ; max-width: 100% ; box-sizing: border-box ; word-wrap: break-word&quot;&gt;.&lt;/span&gt;&lt;span style=&quot;margin: 0px ; padding: 0px ; outline: 0px ; max-width: 100% ; box-sizing: border-box ; word-wrap: break-word&quot;&gt;size&lt;/span&gt;&lt;br style=&quot;margin: 0px ; padding: 0px ; outline: 0px ; max-width: 100% ; box-sizing: border-box ; word-wrap: break-word&quot;&gt;&lt;span style=&quot;margin: 0px ; padding: 0px ; outline: 0px ; max-width: 100% ; box-sizing: border-box ; word-wrap: break-word&quot;&gt;&amp;nbsp;&amp;nbsp;&amp;nbsp;&amp;nbsp;&amp;nbsp;&amp;nbsp;&amp;nbsp;&amp;nbsp;capmem&lt;/span&gt;&lt;span style=&quot;margin: 0px ; padding: 0px ; outline: 0px ; max-width: 100% ; box-sizing: border-box ; word-wrap: break-word&quot;&gt;,&lt;/span&gt;&lt;span style=&quot;margin: 0px ; padding: 0px ; outline: 0px ; max-width: 100% ; box-sizing: border-box ; word-wrap: break-word&quot;&gt;&amp;nbsp;overflow&amp;nbsp;&lt;/span&gt;&lt;span style=&quot;margin: 0px ; padding: 0px ; outline: 0px ; max-width: 100% ; box-sizing: border-box ; word-wrap: break-word&quot;&gt;=&lt;/span&gt;&lt;span style=&quot;margin: 0px ; padding: 0px ; outline: 0px ; max-width: 100% ; box-sizing: border-box ; word-wrap: break-word&quot;&gt;&amp;nbsp;math&lt;/span&gt;&lt;span style=&quot;margin: 0px ; padding: 0px ; outline: 0px ; max-width: 100% ; box-sizing: border-box ; word-wrap: break-word&quot;&gt;.&lt;/span&gt;&lt;span style=&quot;margin: 0px ; padding: 0px ; outline: 0px ; max-width: 100% ; box-sizing: border-box ; word-wrap: break-word&quot;&gt;MulUintptr&lt;/span&gt;&lt;span style=&quot;margin: 0px ; padding: 0px ; outline: 0px ; max-width: 100% ; box-sizing: border-box ; word-wrap: break-word&quot;&gt;(&lt;/span&gt;&lt;span style=&quot;margin: 0px ; padding: 0px ; outline: 0px ; max-width: 100% ; box-sizing: border-box ; word-wrap: break-word&quot;&gt;et&lt;/span&gt;&lt;span style=&quot;margin: 0px ; padding: 0px ; outline: 0px ; max-width: 100% ; box-sizing: border-box ; word-wrap: break-word&quot;&gt;.&lt;/span&gt;&lt;span style=&quot;margin: 0px ; padding: 0px ; outline: 0px ; max-width: 100% ; box-sizing: border-box ; word-wrap: break-word&quot;&gt;size&lt;/span&gt;&lt;span style=&quot;margin: 0px ; padding: 0px ; outline: 0px ; max-width: 100% ; box-sizing: border-box ; word-wrap: break-word&quot;&gt;,&lt;/span&gt;&lt;span style=&quot;margin: 0px ; padding: 0px ; outline: 0px ; max-width: 100% ; box-sizing: border-box ; word-wrap: break-word&quot;&gt;&amp;nbsp;uintptr&lt;/span&gt;&lt;span style=&quot;margin: 0px ; padding: 0px ; outline: 0px ; max-width: 100% ; box-sizing: border-box ; word-wrap: break-word&quot;&gt;(&lt;/span&gt;&lt;span style=&quot;margin: 0px ; padding: 0px ; outline: 0px ; max-width: 100% ; box-sizing: border-box ; word-wrap: break-word&quot;&gt;newcap&lt;/span&gt;&lt;span style=&quot;margin: 0px ; padding: 0px ; outline: 0px ; max-width: 100% ; box-sizing: border-box ; word-wrap: break-word&quot;&gt;))&lt;/span&gt;&lt;br style=&quot;margin: 0px ; padding: 0px ; outline: 0px ; max-width: 100% ; box-sizing: border-box ; word-wrap: break-word&quot;&gt;&lt;span style=&quot;margin: 0px ; padding: 0px ; outline: 0px ; max-width: 100% ; box-sizing: border-box ; word-wrap: break-word&quot;&gt;&amp;nbsp;&amp;nbsp;&amp;nbsp;&amp;nbsp;&amp;nbsp;&amp;nbsp;&amp;nbsp;&amp;nbsp;capmem&amp;nbsp;&lt;/span&gt;&lt;span style=&quot;margin: 0px ; padding: 0px ; outline: 0px ; max-width: 100% ; box-sizing: border-box ; word-wrap: break-word&quot;&gt;=&lt;/span&gt;&lt;span style=&quot;margin: 0px ; padding: 0px ; outline: 0px ; max-width: 100% ; box-sizing: border-box ; word-wrap: break-word&quot;&gt;&amp;nbsp;roundupsize&lt;/span&gt;&lt;span style=&quot;margin: 0px ; padding: 0px ; outline: 0px ; max-width: 100% ; box-sizing: border-box ; word-wrap: break-word&quot;&gt;(&lt;/span&gt;&lt;span style=&quot;margin: 0px ; padding: 0px ; outline: 0px ; max-width: 100% ; box-sizing: border-box ; word-wrap: break-word&quot;&gt;capmem&lt;/span&gt;&lt;span style=&quot;margin: 0px ; padding: 0px ; outline: 0px ; max-width: 100% ; box-sizing: border-box ; word-wrap: break-word&quot;&gt;)&lt;/span&gt;&lt;br style=&quot;margin: 0px ; padding: 0px ; outline: 0px ; max-width: 100% ; box-sizing: border-box ; word-wrap: break-word&quot;&gt;&lt;span style=&quot;margin: 0px ; padding: 0px ; outline: 0px ; max-width: 100% ; box-sizing: border-box ; word-wrap: break-word&quot;&gt;&amp;nbsp;&amp;nbsp;&amp;nbsp;&amp;nbsp;&amp;nbsp;&amp;nbsp;&amp;nbsp;&amp;nbsp;newcap&amp;nbsp;&lt;/span&gt;&lt;span style=&quot;margin: 0px ; padding: 0px ; outline: 0px ; max-width: 100% ; box-sizing: border-box ; word-wrap: break-word&quot;&gt;=&lt;/span&gt;&lt;span style=&quot;margin: 0px ; padding: 0px ; outline: 0px ; max-width: 100% ; box-sizing: border-box ; word-wrap: break-word&quot;&gt;&amp;nbsp;&lt;/span&gt;&lt;span style=&quot;margin: 0px ; padding: 0px ; outline: 0px ; max-width: 100% ; box-sizing: border-box ; word-wrap: break-word&quot;&gt;int&lt;/span&gt;&lt;span style=&quot;margin: 0px ; padding: 0px ; outline: 0px ; max-width: 100% ; box-sizing: border-box ; word-wrap: break-word&quot;&gt;(&lt;/span&gt;&lt;span style=&quot;margin: 0px ; padding: 0px ; outline: 0px ; max-width: 100% ; box-sizing: border-box ; word-wrap: break-word&quot;&gt;capmem&amp;nbsp;&lt;/span&gt;&lt;span style=&quot;margin: 0px ; padding: 0px ; outline: 0px ; max-width: 100% ; box-sizing: border-box ; word-wrap: break-word&quot;&gt;/&lt;/span&gt;&lt;span style=&quot;margin: 0px ; padding: 0px ; outline: 0px ; max-width: 100% ; box-sizing: border-box ; word-wrap: break-word&quot;&gt;&amp;nbsp;et&lt;/span&gt;&lt;span style=&quot;margin: 0px ; padding: 0px ; outline: 0px ; max-width: 100% ; box-sizing: border-box ; word-wrap: break-word&quot;&gt;.&lt;/span&gt;&lt;span style=&quot;margin: 0px ; padding: 0px ; outline: 0px ; max-width: 100% ; box-sizing: border-box ; word-wrap: break-word&quot;&gt;size&lt;/span&gt;&lt;span style=&quot;margin: 0px ; padding: 0px ; outline: 0px ; max-width: 100% ; box-sizing: border-box ; word-wrap: break-word&quot;&gt;)&lt;/span&gt;&lt;br style=&quot;margin: 0px ; padding: 0px ; outline: 0px ; max-width: 100% ; box-sizing: border-box ; word-wrap: break-word&quot;&gt;&lt;span style=&quot;margin: 0px ; padding: 0px ; outline: 0px ; max-width: 100% ; box-sizing: border-box ; word-wrap: break-word&quot;&gt;&amp;nbsp;&amp;nbsp;&amp;nbsp;&amp;nbsp;&lt;/span&gt;&lt;span style=&quot;margin: 0px ; padding: 0px ; outline: 0px ; max-width: 100% ; box-sizing: border-box ; word-wrap: break-word&quot;&gt;}&lt;/span&gt;&lt;br style=&quot;margin: 0px ; padding: 0px ; outline: 0px ; max-width: 100% ; box-sizing: border-box ; word-wrap: break-word&quot;&gt;&lt;br style=&quot;margin: 0px ; padding: 0px ; outline: 0px ; max-width: 100% ; box-sizing: border-box ; word-wrap: break-word&quot;&gt;&lt;br style=&quot;margin: 0px ; padding: 0px ; outline: 0px ; max-width: 100% ; box-sizing: border-box ; word-wrap: break-word&quot;&gt;&lt;br style=&quot;margin: 0px ; padding: 0px ; outline: 0px ; max-width: 100% ; box-sizing: border-box ; word-wrap: break-word&quot;&gt;&lt;br style=&quot;margin: 0px ; padding: 0px ; outline: 0px ; max-width: 100% ; box-sizing: border-box ; word-wrap: break-word&quot;&gt;&lt;span style=&quot;margin: 0px ; padding: 0px ; outline: 0px ; max-width: 100% ; box-sizing: border-box ; word-wrap: break-word&quot;&gt;&amp;nbsp;&amp;nbsp;&amp;nbsp;&amp;nbsp;&lt;/span&gt;&lt;span style=&quot;margin: 0px ; padding: 0px ; outline: 0px ; max-width: 100% ; box-sizing: border-box ; word-wrap: break-word&quot;&gt;//&amp;nbsp;进行实际的切片初始化操作&lt;/span&gt;&lt;br style=&quot;margin: 0px ; padding: 0px ; outline: 0px ; max-width: 100% ; box-sizing: border-box ; word-wrap: break-word&quot;&gt;&lt;span style=&quot;margin: 0px ; padding: 0px ; outline: 0px ; max-width: 100% ; box-sizing: border-box ; word-wrap: break-word&quot;&gt;&amp;nbsp;&amp;nbsp;&amp;nbsp;&amp;nbsp;&lt;/span&gt;&lt;span style=&quot;margin: 0px ; padding: 0px ; outline: 0px ; max-width: 100% ; box-sizing: border-box ; word-wrap: break-word&quot;&gt;var&lt;/span&gt;&lt;span style=&quot;margin: 0px ; padding: 0px ; outline: 0px ; max-width: 100% ; box-sizing: border-box ; word-wrap: break-word&quot;&gt;&amp;nbsp;p&amp;nbsp;&lt;/span&gt;&lt;span style=&quot;margin: 0px ; padding: 0px ; outline: 0px ; max-width: 100% ; box-sizing: border-box ; word-wrap: break-word&quot;&gt;unsafe&lt;/span&gt;&lt;span style=&quot;margin: 0px ; padding: 0px ; outline: 0px ; max-width: 100% ; box-sizing: border-box ; word-wrap: break-word&quot;&gt;.&lt;/span&gt;&lt;span style=&quot;margin: 0px ; padding: 0px ; outline: 0px ; max-width: 100% ; box-sizing: border-box ; word-wrap: break-word&quot;&gt;Pointer&lt;/span&gt;&lt;br style=&quot;margin: 0px ; padding: 0px ; outline: 0px ; max-width: 100% ; box-sizing: border-box ; word-wrap: break-word&quot;&gt;&lt;span style=&quot;margin: 0px ; padding: 0px ; outline: 0px ; max-width: 100% ; box-sizing: border-box ; word-wrap: break-word&quot;&gt;&amp;nbsp;&amp;nbsp;&amp;nbsp;&amp;nbsp;&lt;/span&gt;&lt;span style=&quot;margin: 0px ; padding: 0px ; outline: 0px ; max-width: 100% ; box-sizing: border-box ; word-wrap: break-word&quot;&gt;//&amp;nbsp;非指针类型&lt;/span&gt;&lt;br style=&quot;margin: 0px ; padding: 0px ; outline: 0px ; max-width: 100% ; box-sizing: border-box ; word-wrap: break-word&quot;&gt;&lt;span style=&quot;margin: 0px ; padding: 0px ; outline: 0px ; max-width: 100% ; box-sizing: border-box ; word-wrap: break-word&quot;&gt;&amp;nbsp;&amp;nbsp;&amp;nbsp;&amp;nbsp;&lt;/span&gt;&lt;span style=&quot;margin: 0px ; padding: 0px ; outline: 0px ; max-width: 100% ; box-sizing: border-box ; word-wrap: break-word&quot;&gt;if&lt;/span&gt;&lt;span style=&quot;margin: 0px ; padding: 0px ; outline: 0px ; max-width: 100% ; box-sizing: border-box ; word-wrap: break-word&quot;&gt;&amp;nbsp;et&lt;/span&gt;&lt;span style=&quot;margin: 0px ; padding: 0px ; outline: 0px ; max-width: 100% ; box-sizing: border-box ; word-wrap: break-word&quot;&gt;.&lt;/span&gt;&lt;span style=&quot;margin: 0px ; padding: 0px ; outline: 0px ; max-width: 100% ; box-sizing: border-box ; word-wrap: break-word&quot;&gt;ptrdata&amp;nbsp;&lt;/span&gt;&lt;span style=&quot;margin: 0px ; padding: 0px ; outline: 0px ; max-width: 100% ; box-sizing: border-box ; word-wrap: break-word&quot;&gt;==&lt;/span&gt;&lt;span style=&quot;margin: 0px ; padding: 0px ; outline: 0px ; max-width: 100% ; box-sizing: border-box ; word-wrap: break-word&quot;&gt;&amp;nbsp;&lt;/span&gt;&lt;span style=&quot;margin: 0px ; padding: 0px ; outline: 0px ; max-width: 100% ; box-sizing: border-box ; word-wrap: break-word&quot;&gt;0&lt;/span&gt;&lt;span style=&quot;margin: 0px ; padding: 0px ; outline: 0px ; max-width: 100% ; box-sizing: border-box ; word-wrap: break-word&quot;&gt;&amp;nbsp;&lt;/span&gt;&lt;span style=&quot;margin: 0px ; padding: 0px ; outline: 0px ; max-width: 100% ; box-sizing: border-box ; word-wrap: break-word&quot;&gt;{&lt;/span&gt;&lt;br style=&quot;margin: 0px ; padding: 0px ; outline: 0px ; max-width: 100% ; box-sizing: border-box ; word-wrap: break-word&quot;&gt;&lt;span style=&quot;margin: 0px ; padding: 0px ; outline: 0px ; max-width: 100% ; box-sizing: border-box ; word-wrap: break-word&quot;&gt;&amp;nbsp;&amp;nbsp;&amp;nbsp;&amp;nbsp;&amp;nbsp;&amp;nbsp;&amp;nbsp;&amp;nbsp;p&amp;nbsp;&lt;/span&gt;&lt;span style=&quot;margin: 0px ; padding: 0px ; outline: 0px ; max-width: 100% ; box-sizing: border-box ; word-wrap: break-word&quot;&gt;=&lt;/span&gt;&lt;span style=&quot;margin: 0px ; padding: 0px ; outline: 0px ; max-width: 100% ; box-sizing: border-box ; word-wrap: break-word&quot;&gt;&amp;nbsp;mallocgc&lt;/span&gt;&lt;span style=&quot;margin: 0px ; padding: 0px ; outline: 0px ; max-width: 100% ; box-sizing: border-box ; word-wrap: break-word&quot;&gt;(&lt;/span&gt;&lt;span style=&quot;margin: 0px ; padding: 0px ; outline: 0px ; max-width: 100% ; box-sizing: border-box ; word-wrap: break-word&quot;&gt;capmem&lt;/span&gt;&lt;span style=&quot;margin: 0px ; padding: 0px ; outline: 0px ; max-width: 100% ; box-sizing: border-box ; word-wrap: break-word&quot;&gt;,&lt;/span&gt;&lt;span style=&quot;margin: 0px ; padding: 0px ; outline: 0px ; max-width: 100% ; box-sizing: border-box ; word-wrap: break-word&quot;&gt;&amp;nbsp;&lt;/span&gt;&lt;span style=&quot;margin: 0px ; padding: 0px ; outline: 0px ; max-width: 100% ; box-sizing: border-box ; word-wrap: break-word&quot;&gt;nil&lt;/span&gt;&lt;span style=&quot;margin: 0px ; padding: 0px ; outline: 0px ; max-width: 100% ; box-sizing: border-box ; word-wrap: break-word&quot;&gt;,&lt;/span&gt;&lt;span style=&quot;margin: 0px ; padding: 0px ; outline: 0px ; max-width: 100% ; box-sizing: border-box ; word-wrap: break-word&quot;&gt;&amp;nbsp;&lt;/span&gt;&lt;span style=&quot;margin: 0px ; padding: 0px ; outline: 0px ; max-width: 100% ; box-sizing: border-box ; word-wrap: break-word&quot;&gt;false&lt;/span&gt;&lt;span style=&quot;margin: 0px ; padding: 0px ; outline: 0px ; max-width: 100% ; box-sizing: border-box ; word-wrap: break-word&quot;&gt;)&lt;/span&gt;&lt;br style=&quot;margin: 0px ; padding: 0px ; outline: 0px ; max-width: 100% ; box-sizing: border-box ; word-wrap: break-word&quot;&gt;&lt;span style=&quot;margin: 0px ; padding: 0px ; outline: 0px ; max-width: 100% ; box-sizing: border-box ; word-wrap: break-word&quot;&gt;&amp;nbsp;&amp;nbsp;&amp;nbsp;&amp;nbsp;&amp;nbsp;&amp;nbsp;&amp;nbsp;&amp;nbsp;&lt;/span&gt;&lt;span style=&quot;margin: 0px ; padding: 0px ; outline: 0px ; max-width: 100% ; box-sizing: border-box ; word-wrap: break-word&quot;&gt;//&amp;nbsp;...&lt;/span&gt;&lt;br style=&quot;margin: 0px ; padding: 0px ; outline: 0px ; max-width: 100% ; box-sizing: border-box ; word-wrap: break-word&quot;&gt;&lt;span style=&quot;margin: 0px ; padding: 0px ; outline: 0px ; max-width: 100% ; box-sizing: border-box ; word-wrap: break-word&quot;&gt;&amp;nbsp;&amp;nbsp;&amp;nbsp;&amp;nbsp;&lt;/span&gt;&lt;span style=&quot;margin: 0px ; padding: 0px ; outline: 0px ; max-width: 100% ; box-sizing: border-box ; word-wrap: break-word&quot;&gt;}&lt;/span&gt;&lt;span style=&quot;margin: 0px ; padding: 0px ; outline: 0px ; max-width: 100% ; box-sizing: border-box ; word-wrap: break-word&quot;&gt;&amp;nbsp;&lt;/span&gt;&lt;span style=&quot;margin: 0px ; padding: 0px ; outline: 0px ; max-width: 100% ; box-sizing: border-box ; word-wrap: break-word&quot;&gt;else&lt;/span&gt;&lt;span style=&quot;margin: 0px ; padding: 0px ; outline: 0px ; max-width: 100% ; box-sizing: border-box ; word-wrap: break-word&quot;&gt;&amp;nbsp;&lt;/span&gt;&lt;span style=&quot;margin: 0px ; padding: 0px ; outline: 0px ; max-width: 100% ; box-sizing: border-box ; word-wrap: break-word&quot;&gt;{&lt;/span&gt;&lt;br style=&quot;margin: 0px ; padding: 0px ; outline: 0px ; max-width: 100% ; box-sizing: border-box ; word-wrap: break-word&quot;&gt;&lt;span style=&quot;margin: 0px ; padding: 0px ; outline: 0px ; max-width: 100% ; box-sizing: border-box ; word-wrap: break-word&quot;&gt;&amp;nbsp;&amp;nbsp;&amp;nbsp;&amp;nbsp;&amp;nbsp;&amp;nbsp;&amp;nbsp;&amp;nbsp;&lt;/span&gt;&lt;span style=&quot;margin: 0px ; padding: 0px ; outline: 0px ; max-width: 100% ; box-sizing: border-box ; word-wrap: break-word&quot;&gt;//&amp;nbsp;指针类型&lt;/span&gt;&lt;br style=&quot;margin: 0px ; padding: 0px ; outline: 0px ; max-width: 100% ; box-sizing: border-box ; word-wrap: break-word&quot;&gt;&lt;span style=&quot;margin: 0px ; padding: 0px ; outline: 0px ; max-width: 100% ; box-sizing: border-box ; word-wrap: break-word&quot;&gt;&amp;nbsp;&amp;nbsp;&amp;nbsp;&amp;nbsp;&amp;nbsp;&amp;nbsp;&amp;nbsp;&amp;nbsp;p&amp;nbsp;&lt;/span&gt;&lt;span style=&quot;margin: 0px ; padding: 0px ; outline: 0px ; max-width: 100% ; box-sizing: border-box ; word-wrap: break-word&quot;&gt;=&lt;/span&gt;&lt;span style=&quot;margin: 0px ; padding: 0px ; outline: 0px ; max-width: 100% ; box-sizing: border-box ; word-wrap: break-word&quot;&gt;&amp;nbsp;mallocgc&lt;/span&gt;&lt;span style=&quot;margin: 0px ; padding: 0px ; outline: 0px ; max-width: 100% ; box-sizing: border-box ; word-wrap: break-word&quot;&gt;(&lt;/span&gt;&lt;span style=&quot;margin: 0px ; padding: 0px ; outline: 0px ; max-width: 100% ; box-sizing: border-box ; word-wrap: break-word&quot;&gt;capmem&lt;/span&gt;&lt;span style=&quot;margin: 0px ; padding: 0px ; outline: 0px ; max-width: 100% ; box-sizing: border-box ; word-wrap: break-word&quot;&gt;,&lt;/span&gt;&lt;span style=&quot;margin: 0px ; padding: 0px ; outline: 0px ; max-width: 100% ; box-sizing: border-box ; word-wrap: break-word&quot;&gt;&amp;nbsp;et&lt;/span&gt;&lt;span style=&quot;margin: 0px ; padding: 0px ; outline: 0px ; max-width: 100% ; box-sizing: border-box ; word-wrap: break-word&quot;&gt;,&lt;/span&gt;&lt;span style=&quot;margin: 0px ; padding: 0px ; outline: 0px ; max-width: 100% ; box-sizing: border-box ; word-wrap: break-word&quot;&gt;&amp;nbsp;&lt;/span&gt;&lt;span style=&quot;margin: 0px ; padding: 0px ; outline: 0px ; max-width: 100% ; box-sizing: border-box ; word-wrap: break-word&quot;&gt;true&lt;/span&gt;&lt;span style=&quot;margin: 0px ; padding: 0px ; outline: 0px ; max-width: 100% ; box-sizing: border-box ; word-wrap: break-word&quot;&gt;)&lt;/span&gt;&lt;br style=&quot;margin: 0px ; padding: 0px ; outline: 0px ; max-width: 100% ; box-sizing: border-box ; word-wrap: break-word&quot;&gt;&lt;span style=&quot;margin: 0px ; padding: 0px ; outline: 0px ; max-width: 100% ; box-sizing: border-box ; word-wrap: break-word&quot;&gt;&amp;nbsp;&amp;nbsp;&amp;nbsp;&amp;nbsp;&amp;nbsp;&amp;nbsp;&amp;nbsp;&amp;nbsp;&lt;/span&gt;&lt;span style=&quot;margin: 0px ; padding: 0px ; outline: 0px ; max-width: 100% ; box-sizing: border-box ; word-wrap: break-word&quot;&gt;//&amp;nbsp;...&lt;/span&gt;&lt;br style=&quot;margin: 0px ; padding: 0px ; outline: 0px ; max-width: 100% ; box-sizing: border-box ; word-wrap: break-word&quot;&gt;&lt;span style=&quot;margin: 0px ; padding: 0px ; outline: 0px ; max-width: 100% ; box-sizing: border-box ; word-wrap: break-word&quot;&gt;&amp;nbsp;&amp;nbsp;&amp;nbsp;&amp;nbsp;&lt;/span&gt;&lt;span style=&quot;margin: 0px ; padding: 0px ; outline: 0px ; max-width: 100% ; box-sizing: border-box ; word-wrap: break-word&quot;&gt;}&lt;/span&gt;&lt;br style=&quot;margin: 0px ; padding: 0px ; outline: 0px ; max-width: 100% ; box-sizing: border-box ; word-wrap: break-word&quot;&gt;&lt;span style=&quot;margin: 0px ; padding: 0px ; outline: 0px ; max-width: 100% ; box-sizing: border-box ; word-wrap: break-word&quot;&gt;&amp;nbsp;&amp;nbsp;&amp;nbsp;&amp;nbsp;&lt;/span&gt;&lt;span style=&quot;margin: 0px ; padding: 0px ; outline: 0px ; max-width: 100% ; box-sizing: border-box ; word-wrap: break-word&quot;&gt;//&amp;nbsp;将切片的内容拷贝到扩容后的位置&amp;nbsp;p&amp;nbsp;&lt;/span&gt;&lt;br style=&quot;margin: 0px ; padding: 0px ; outline: 0px ; max-width: 100% ; box-sizing: border-box ; word-wrap: break-word&quot;&gt;&lt;span style=&quot;margin: 0px ; padding: 0px ; outline: 0px ; max-width: 100% ; box-sizing: border-box ; word-wrap: break-word&quot;&gt;&amp;nbsp;&amp;nbsp;&amp;nbsp;&amp;nbsp;memmove&lt;/span&gt;&lt;span style=&quot;margin: 0px ; padding: 0px ; outline: 0px ; max-width: 100% ; box-sizing: border-box ; word-wrap: break-word&quot;&gt;(&lt;/span&gt;&lt;span style=&quot;margin: 0px ; padding: 0px ; outline: 0px ; max-width: 100% ; box-sizing: border-box ; word-wrap: break-word&quot;&gt;p&lt;/span&gt;&lt;span style=&quot;margin: 0px ; padding: 0px ; outline: 0px ; max-width: 100% ; box-sizing: border-box ; word-wrap: break-word&quot;&gt;,&lt;/span&gt;&lt;span style=&quot;margin: 0px ; padding: 0px ; outline: 0px ; max-width: 100% ; box-sizing: border-box ; word-wrap: break-word&quot;&gt;&amp;nbsp;old&lt;/span&gt;&lt;span style=&quot;margin: 0px ; padding: 0px ; outline: 0px ; max-width: 100% ; box-sizing: border-box ; word-wrap: break-word&quot;&gt;.&lt;/span&gt;&lt;span style=&quot;margin: 0px ; padding: 0px ; outline: 0px ; max-width: 100% ; box-sizing: border-box ; word-wrap: break-word&quot;&gt;array&lt;/span&gt;&lt;span style=&quot;margin: 0px ; padding: 0px ; outline: 0px ; max-width: 100% ; box-sizing: border-box ; word-wrap: break-word&quot;&gt;,&lt;/span&gt;&lt;span style=&quot;margin: 0px ; padding: 0px ; outline: 0px ; max-width: 100% ; box-sizing: border-box ; word-wrap: break-word&quot;&gt;&amp;nbsp;lenmem&lt;/span&gt;&lt;span style=&quot;margin: 0px ; padding: 0px ; outline: 0px ; max-width: 100% ; box-sizing: border-box ; word-wrap: break-word&quot;&gt;)&lt;/span&gt;&lt;br style=&quot;margin: 0px ; padding: 0px ; outline: 0px ; max-width: 100% ; box-sizing: border-box ; word-wrap: break-word&quot;&gt;&lt;span style=&quot;margin: 0px ; padding: 0px ; outline: 0px ; max-width: 100% ; box-sizing: border-box ; word-wrap: break-word&quot;&gt;&amp;nbsp;&amp;nbsp;&amp;nbsp;&amp;nbsp;&lt;/span&gt;&lt;span style=&quot;margin: 0px ; padding: 0px ; outline: 0px ; max-width: 100% ; box-sizing: border-box ; word-wrap: break-word&quot;&gt;return&lt;/span&gt;&lt;span style=&quot;margin: 0px ; padding: 0px ; outline: 0px ; max-width: 100% ; box-sizing: border-box ; word-wrap: break-word&quot;&gt;&amp;nbsp;slice&lt;/span&gt;&lt;span style=&quot;margin: 0px ; padding: 0px ; outline: 0px ; max-width: 100% ; box-sizing: border-box ; word-wrap: break-word&quot;&gt;{&lt;/span&gt;&lt;span style=&quot;margin: 0px ; padding: 0px ; outline: 0px ; max-width: 100% ; box-sizing: border-box ; word-wrap: break-word&quot;&gt;p&lt;/span&gt;&lt;span style=&quot;margin: 0px ; padding: 0px ; outline: 0px ; max-width: 100% ; box-sizing: border-box ; word-wrap: break-word&quot;&gt;,&lt;/span&gt;&lt;span style=&quot;margin: 0px ; padding: 0px ; outline: 0px ; max-width: 100% ; box-sizing: border-box ; word-wrap: break-word&quot;&gt;&amp;nbsp;old&lt;/span&gt;&lt;span style=&quot;margin: 0px ; padding: 0px ; outline: 0px ; max-width: 100% ; box-sizing: border-box ; word-wrap: break-word&quot;&gt;.&lt;/span&gt;&lt;span style=&quot;margin: 0px ; padding: 0px ; outline: 0px ; max-width: 100% ; box-sizing: border-box ; word-wrap: break-word&quot;&gt;len&lt;/span&gt;&lt;span style=&quot;margin: 0px ; padding: 0px ; outline: 0px ; max-width: 100% ; box-sizing: border-box ; word-wrap: break-word&quot;&gt;,&lt;/span&gt;&lt;span style=&quot;margin: 0px ; padding: 0px ; outline: 0px ; max-width: 100% ; box-sizing: border-box ; word-wrap: break-word&quot;&gt;&amp;nbsp;newcap&lt;/span&gt;&lt;span style=&quot;margin: 0px ; padding: 0px ; outline: 0px ; max-width: 100% ; box-sizing: border-box ; word-wrap: break-word&quot;&gt;}&lt;/span&gt;&lt;br style=&quot;margin: 0px ; padding: 0px ; outline: 0px ; max-width: 100% ; box-sizing: border-box ; word-wrap: break-word&quot;&gt;&lt;span style=&quot;margin: 0px ; padding: 0px ; outline: 0px ; max-width: 100% ; box-sizing: border-box ; word-wrap: break-word&quot;&gt;}&lt;/span&gt;&lt;/code&gt;&lt;/pre&gt;" style="rounded=0;whiteSpace=wrap;html=1;" parent="1" vertex="1">
          <mxGeometry x="1730" y="190" width="630" height="2520" as="geometry" />
        </mxCell>
        <mxCell id="m9XsXD8E_b_i3M8wHN8T-26" value="&lt;ul class=&quot;list-paddingleft-1&quot; style=&quot;margin: 0px ; padding: 0px 0px 0px 1em ; outline: 0px ; max-width: 100% ; background-color: rgb(255 , 255 , 255) ; font-size: 14px ; text-align: left ; line-height: 1.75 ; font-family: , &amp;#34;blinkmacsystemfont&amp;#34; , &amp;#34;helvetica neue&amp;#34; , &amp;#34;pingfang sc&amp;#34; , &amp;#34;hiragino sans gb&amp;#34; , &amp;#34;microsoft yahei ui&amp;#34; , &amp;#34;microsoft yahei&amp;#34; , &amp;#34;arial&amp;#34; , sans-serif ; list-style: circle ; color: rgb(63 , 63 , 63) ; box-sizing: border-box ; overflow-wrap: break-word&quot;&gt;&lt;li style=&quot;margin: 0.2em 8px ; padding: 0px ; outline: 0px ; max-width: 100% ; box-sizing: border-box ; word-wrap: break-word ; text-align: left ; line-height: 1.75 ; text-indent: -1em ; display: block&quot;&gt;&lt;p style=&quot;margin: 0px ; padding: 0px ; outline: 0px ; max-width: 100% ; box-sizing: border-box ; word-wrap: break-word ; clear: both ; min-height: 1em&quot;&gt;倘若扩容后预期的新容量小于原切片的容量，则 panic&lt;/p&gt;&lt;/li&gt;&lt;li style=&quot;margin: 0.2em 8px ; padding: 0px ; outline: 0px ; max-width: 100% ; box-sizing: border-box ; word-wrap: break-word ; text-align: left ; line-height: 1.75 ; text-indent: -1em ; display: block&quot;&gt;&lt;p style=&quot;margin: 0px ; padding: 0px ; outline: 0px ; max-width: 100% ; box-sizing: border-box ; word-wrap: break-word ; clear: both ; min-height: 1em&quot;&gt;•&amp;nbsp;倘若切片元素大小为 0（元素类型为 struct{}），则直接复用一个全局的 zerobase 实例，直接返回&lt;/p&gt;&lt;/li&gt;&lt;li style=&quot;margin: 0.2em 8px ; padding: 0px ; outline: 0px ; max-width: 100% ; box-sizing: border-box ; word-wrap: break-word ; text-align: left ; line-height: 1.75 ; text-indent: -1em ; display: block&quot;&gt;&lt;p style=&quot;margin: 0px ; padding: 0px ; outline: 0px ; max-width: 100% ; box-sizing: border-box ; word-wrap: break-word ; clear: both ; min-height: 1em&quot;&gt;•&amp;nbsp;倘若预期的新容量超过老容量的两倍，则直接采用预期的新容量&lt;/p&gt;&lt;/li&gt;&lt;li style=&quot;margin: 0.2em 8px ; padding: 0px ; outline: 0px ; max-width: 100% ; box-sizing: border-box ; word-wrap: break-word ; text-align: left ; line-height: 1.75 ; text-indent: -1em ; display: block&quot;&gt;&lt;p style=&quot;margin: 0px ; padding: 0px ; outline: 0px ; max-width: 100% ; box-sizing: border-box ; word-wrap: break-word ; clear: both ; min-height: 1em&quot;&gt;•&amp;nbsp;倘若老容量小于 256，则直接采用老容量的2倍作为新容量&lt;/p&gt;&lt;/li&gt;&lt;li style=&quot;margin: 0.2em 8px ; padding: 0px ; outline: 0px ; max-width: 100% ; box-sizing: border-box ; word-wrap: break-word ; text-align: left ; line-height: 1.75 ; text-indent: -1em ; display: block&quot;&gt;&lt;p style=&quot;margin: 0px ; padding: 0px ; outline: 0px ; max-width: 100% ; box-sizing: border-box ; word-wrap: break-word ; clear: both ; min-height: 1em&quot;&gt;•&amp;nbsp;倘若老容量已经大于等于 256，则在老容量的基础上扩容 1/4 的比例并且累加上 192 的数值，持续这样处理，直到得到的新容量已经大于等于预期的新容量为止&lt;/p&gt;&lt;/li&gt;&lt;li style=&quot;margin: 0.2em 8px ; padding: 0px ; outline: 0px ; max-width: 100% ; box-sizing: border-box ; word-wrap: break-word ; text-align: left ; line-height: 1.75 ; text-indent: -1em ; display: block&quot;&gt;&lt;p style=&quot;margin: 0px ; padding: 0px ; outline: 0px ; max-width: 100% ; box-sizing: border-box ; word-wrap: break-word ; clear: both ; min-height: 1em&quot;&gt;•&amp;nbsp;结合 mallocgc 流程中，对内存分配单元 mspan 的等级制度，推算得到实际需要申请的内存空间大小&lt;/p&gt;&lt;/li&gt;&lt;li style=&quot;margin: 0.2em 8px ; padding: 0px ; outline: 0px ; max-width: 100% ; box-sizing: border-box ; word-wrap: break-word ; text-align: left ; line-height: 1.75 ; text-indent: -1em ; display: block&quot;&gt;&lt;p style=&quot;margin: 0px ; padding: 0px ; outline: 0px ; max-width: 100% ; box-sizing: border-box ; word-wrap: break-word ; clear: both ; min-height: 1em&quot;&gt;•&amp;nbsp;调用 mallocgc，对新切片进行内存初始化&lt;/p&gt;&lt;/li&gt;&lt;li style=&quot;margin: 0.2em 8px ; padding: 0px ; outline: 0px ; max-width: 100% ; box-sizing: border-box ; word-wrap: break-word ; text-align: left ; line-height: 1.75 ; text-indent: -1em ; display: block&quot;&gt;&lt;p style=&quot;margin: 0px ; padding: 0px ; outline: 0px ; max-width: 100% ; box-sizing: border-box ; word-wrap: break-word ; clear: both ; min-height: 1em&quot;&gt;•&amp;nbsp;调用 memmove 方法，将老切片中的内容拷贝到新切片中&lt;/p&gt;&lt;/li&gt;&lt;li style=&quot;margin: 0.2em 8px ; padding: 0px ; outline: 0px ; max-width: 100% ; box-sizing: border-box ; word-wrap: break-word ; text-align: left ; line-height: 1.75 ; text-indent: -1em ; display: block&quot;&gt;&lt;p style=&quot;margin: 0px ; padding: 0px ; outline: 0px ; max-width: 100% ; box-sizing: border-box ; word-wrap: break-word ; clear: both ; min-height: 1em&quot;&gt;•&amp;nbsp;返回扩容后的新切片&lt;/p&gt;&lt;/li&gt;&lt;/ul&gt;" style="rounded=0;whiteSpace=wrap;html=1;" parent="1" vertex="1">
          <mxGeometry x="2680" y="1300" width="640" height="330" as="geometry" />
        </mxCell>
        <mxCell id="FjZOOBbh_rfoeGEimOdd-2" style="edgeStyle=orthogonalEdgeStyle;rounded=0;orthogonalLoop=1;jettySize=auto;html=1;exitX=0;exitY=0.5;exitDx=0;exitDy=0;entryX=1;entryY=0.5;entryDx=0;entryDy=0;" edge="1" parent="1" source="FjZOOBbh_rfoeGEimOdd-1" target="4QqiqVwi1cBf87IRrPp7-16">
          <mxGeometry relative="1" as="geometry" />
        </mxCell>
        <mxCell id="FjZOOBbh_rfoeGEimOdd-1" value="本质：对数组元素的截取，对数组一部分的引用" style="ellipse;whiteSpace=wrap;html=1;" vertex="1" parent="1">
          <mxGeometry x="170" y="550" width="120" height="80" as="geometry" />
        </mxCell>
        <mxCell id="FjZOOBbh_rfoeGEimOdd-5" style="edgeStyle=orthogonalEdgeStyle;rounded=0;orthogonalLoop=1;jettySize=auto;html=1;exitX=0;exitY=1;exitDx=0;exitDy=0;" edge="1" parent="1" source="FjZOOBbh_rfoeGEimOdd-3" target="FjZOOBbh_rfoeGEimOdd-4">
          <mxGeometry relative="1" as="geometry" />
        </mxCell>
        <mxCell id="FjZOOBbh_rfoeGEimOdd-3" value="本质是传入了一个slice的结构体" style="ellipse;whiteSpace=wrap;html=1;" vertex="1" parent="1">
          <mxGeometry x="580" y="990" width="120" height="80" as="geometry" />
        </mxCell>
        <mxCell id="FjZOOBbh_rfoeGEimOdd-4" value="仅修改slice中数组元素&lt;br&gt;&lt;br&gt;只传递slice变量即可" style="ellipse;whiteSpace=wrap;html=1;" vertex="1" parent="1">
          <mxGeometry x="410" y="1230" width="120" height="80" as="geometry" />
        </mxCell>
        <mxCell id="FjZOOBbh_rfoeGEimOdd-6" value="修改slice中 len cap 这样的结构体属性，例如 append,截取，应该传入slice变量的指针" style="ellipse;whiteSpace=wrap;html=1;" vertex="1" parent="1">
          <mxGeometry x="730" y="1250" width="120" height="80" as="geometry" />
        </mxCell>
        <mxCell id="FjZOOBbh_rfoeGEimOdd-7" style="edgeStyle=orthogonalEdgeStyle;rounded=0;orthogonalLoop=1;jettySize=auto;html=1;exitX=1;exitY=0.5;exitDx=0;exitDy=0;entryX=0.567;entryY=-0.05;entryDx=0;entryDy=0;entryPerimeter=0;" edge="1" parent="1" source="FjZOOBbh_rfoeGEimOdd-3" target="FjZOOBbh_rfoeGEimOdd-6">
          <mxGeometry relative="1" as="geometry" />
        </mxCell>
      </root>
    </mxGraphModel>
  </diagram>
</mxfile>
